<svg id="Graphic_Elements" data-name="Graphic Elements" xmlns="http://www.w3.org/2000/svg" viewBox="0 0 1200 1200"><path id="path3836" d="M181.58,1064.68c-65.91-2.65-81-4.63-97.28-12.81-10.81-5.42-11.49-6.6-11.49-20,0-8.52-2.75-19.93-6.81-28.28-6.28-12.91-7-20.21-9.15-95.15-1.29-44.64-3.62-84.83-5.18-89.3s-2.13-23-1.27-41.14c1.43-30.3,2.49-34.9,13-56.23C69.65,708.94,81.16,688.6,89,676.5c16.41-25.48,30.93-55.46,35.34-73,3.75-14.92,7.65-56.52,7-74.25-.49-12.56-.24-12.93,8.06-11.65C216.5,529.44,249.89,532,298,529.84c32.21-1.45,45.05-1.11,42.9,1.16-5.7,6-100.16,7.57-144,2.37-21.91-2.6-43.81-5.66-48.66-6.8-6.74-1.57-8.49-1.06-7.42,2.15,1.3,3.91,17,7.32,61.44,13.42,8,1.1,14.55,3.47,14.55,5.27,0,3.18-7.26,2.89-64-2.57-13-1.25-18.93-.83-17.66,1.23,2.86,4.62,60.22,10.87,79.11,8.62,9-1.07,31.51-2.49,50-3.15s43-2,54.39-3,20.68-.62,20.68.8c0,3-106.35,11.63-109.14,8.83-1-1-3.92.14-6.4,2.62-4.89,4.89-27.16,4.11-64.6-2.26q-28.68-4.87-20.29,3.54c3.93,3.93,80.62,11.64,105.45,10.6,40.36-1.7,89.22-2,90.65-.58,2.33,2.34-30.24,5.25-78.4,7-40.48,1.48-83.8-1.08-109.53-6.48-7.71-1.61-10-1-10,2.47,0,5.36,26.27,11.46,50.3,11.67,8.57.08,19.71,2,24.77,4.35,8.92,4.09,8.6,4.21-11.08,4.46-11.14.13-27.69-1.29-36.76-3.16-22.37-4.61-25.58-4.75-26.44-1.19-1,4.2,25,10.58,43.64,10.71,8.42.06,17.16,1.27,19.4,2.7,7.86,5-4.71,6.34-30.82,3.34-31.73-3.65-41.21-3.73-37.45-.33,6.06,5.48,40.74,9.64,83.85,10.05,34.5.34,40.84,1,27.83,2.76-25.68,3.55-85.85,3.32-99.18-.39q-11.86-3.29-14.92-.22c-3.74,3.73,15.54,9.64,31.58,9.66,6,0,18.31,2.21,27.32,4.88,13.41,4,28,4.63,80.1,3.55,35-.73,63.11-.34,62.36.88-1.09,1.76-61.54,3.83-119.43,4.1-5.06,0-26.17-1.75-46.92-3.93s-38.41-3.28-39.27-2.43c-2.63,2.64,17.77,7.72,39.49,9.83,13.21,1.29,20,3.17,18.73,5.22-1.93,3.13-26.22,1.79-44.8-2.48-5-1.16-8.43-.65-8.43,1.27,0,7.37,35.11,10.6,96.18,8.84,45.1-1.3,60-.87,57.49,1.68-4.21,4.21-124.09,5.15-153.29,1.2-13-1.75-18.91-1.61-17.65.43,1,1.68,6.39,3.77,11.89,4.62,36.22,5.66,53.14,9.42,54.89,12.21,1.94,3.09,20.87,3.22,113.22.76,19.57-.52,37.49.27,39.83,1.75,2.61,1.65-10.59,2.93-34,3.31-21.06.34-43.81.91-50.55,1.27-85.1,4.51-102.81,4.75-119.25,1.65-17.22-3.25-23.54-2.74-19.24,1.56,1.06,1.06,9.91,3.8,19.66,6.07l17.72,4.14-27-1.51c-14.86-.83-26.29-.35-25.42,1.07s13,4.2,27,6.19l33.08,4.69c4.21.6-3.7,1.28-17.57,1.51s-31.42-1.24-39-3.26c-12-3.2-20.78-2.15-16.66,2,1.81,1.8,62.47,11.41,67.64,10.71,8.84-1.19,16.24.31,12.68,2.57-4.17,2.65-26.56,2.54-59.21-.3-21.87-1.91-22.53-1.78-13.78,2.63,7.74,3.89,20.78,4.35,82.72,2.88,50.82-1.2,72.12-.76,68.94,1.41-2.53,1.74-14.4,3.18-26.39,3.2s-29.12,1.44-38.07,3.14c-23.3,4.41-76.81,4.41-90.2,0-7.53-2.49-12.38-2.73-14.4-.7-5.82,5.81,4.19,7.62,56.83,10.24,80.22,4,90.28,4.12,164.31,1.82,104.4-3.23,135.58-5.47,142.39-10.23,7-4.89,20-5.64,20-1.16,0,1.69,2.76,3.07,6.13,3.07s5.78-1.73,5.36-3.83c-.54-2.69,6.53-4.39,23.74-5.71,13.49-1,29-3.58,34.46-5.66,8.67-3.29,9.69-4.81,8-11.91a77.2,77.2,0,0,0-2.42-8.77c-.25-.36-13.42.69-29.25,2.33-18.31,1.89-29.85,1.91-31.71.05-3.09-3.09,5.39-5.65,19.4-5.85a206.63,206.63,0,0,0,20.68-2c14.53-2.12,16.7-7.51,7.59-18.84-4.86-6.06-6.78-6.37-23.67-3.84-21.37,3.19-52.45,2.91-61.28-.56-6.13-2.41-6.13-2.41,0-2.75,3.37-.18,19.23-1,35.23-1.8,33.48-1.69,43.82-3.48,41.53-7.18-.9-1.44-10.95-1.91-22.34-1-22.08,1.7-24.6-2.25-3.29-5.15,7-1,13.18-3.14,13.75-4.85,1.23-3.73-37.4-2.72-65.13,1.69-17.41,2.77-57.36,3.67-47.24,1.07,2.53-.65,15.62-2.61,29.11-4.35L460.39,645c11.8-1.52,23.86-2.85,26.81-3s5.37-1.91,5.37-4c0-2.94-13.21-3.73-57-3.4-31.62.24-55.8-.73-54.34-2.19s24.29-3.06,50.77-3.59c32.61-.66,49.36-2.17,51.89-4.7,2.93-2.94-.29-3.73-15.08-3.73-22.44,0-28-4.69-8.13-6.93,7.7-.86,15.6-3.18,17.56-5.14,2.71-2.72-6.32-3.2-37.8-2-36.75,1.4-40.7,1.08-35.42-2.9,4.06-3.06,13.79-4.5,30.64-4.52,27.21,0,38.48-2.08,38.48-6.93,0-2.17-18-2.57-55.92-1.26-70.17,2.42-67.7-3.23,3.45-7.89,54-3.54,70.08-8.85,24.85-8.2-32.12.47-82.37-1.92-84.46-4-.74-.74,23-2.23,52.87-3.3s55.6-3.36,57.32-5.08c3.73-3.73,2.82-3.8-43.3-3.15-20.26.28-34.47-.73-34.47-2.45,0-4.79,12-6.63,43.48-6.67,16.76,0,30.53-1.4,31.62-3.16,3.95-6.4,6.71.52,10.64,26.72,2.23,14.82,5.91,29.13,8.18,31.79s4.12,6.18,4.12,7.82c0,6.24,28.93,61.32,37.25,70.94,4.79,5.53,8.71,11.87,8.71,14.08s2.62,6.38,5.83,9.28c8,7.27,10.73,2,9.87-19.44-1.22-30-6.63-72-9.68-75.07-1.62-1.62-2.95-5.85-2.95-9.39,0-10.2-6.15-13.78-23.67-13.78-18.94,0-20.5-2.17-24-33.4-2.39-21.14.14-26.37,14.23-29.47,9.32-2,15.07-9.24,15.1-18.89,0-3.06,4.24-8,9.39-10.9s8.48-6.78,7.39-8.54-.25-10,1.87-18.22c5.71-22.29,2.68-24.59-32.35-24.59-38.16,0-39.21,1.19-38.33,43.46,1.08,52.11,1.37,50.59-10,52.61-5.48,1-27.19,2.49-48.25,3.38l-38.3,1.61,16.85-5.9c9.27-3.24,24-6,32.68-6.1,17-.22,25.53-2.39,25.53-6.48,0-1.41-9.31-2-20.68-1.27-57.58,3.59-74.35,4-72.94,1.7,2.21-3.58,25.92-6.74,63-8.39,44.42-2,47.22-7.21,3.86-7.21-19.45,0-34.95-1.32-36-3.07s3.66-3.27,12.08-3.6C437.39,505,465,501.18,465,497.37c0-2-11.31-2.29-31.75-.92-20.09,1.35-32.44,1-33.63-.92-1.94-3.14,18-6.92,36.52-6.92,5.56,0,11.1-1.6,12.31-3.55,2.31-3.74-28-2.4-81.49,3.6-14.32,1.61-52.76,3.82-85.41,4.91-48.53,1.61-59.13,1.23-58-2.08s17-4.18,74.68-4.64c40.34-.32,78.86-2.05,85.6-3.84S405,478.69,416,477.39L435.89,475l-15.32-1.88c-8.43-1-33.94-.1-56.69,2.08-50.33,4.84-139.53,5.33-174.32,1-14.06-1.76-26.19-2.59-26.95-1.83-2.07,2.08,26.59,8.84,39.26,9.26,7.52.25,10.63,1.61,9.63,4.2-2,5.18-22.91,4.81-43.71-.77-18.59-5-30.63-5.86-30.63-2.22,0,2.42,28.26,9.88,37.44,9.88,2.8,0,6.06,1.58,7.25,3.5,1.56,2.52-2.39,3.06-14.17,1.93-13.58-1.31-15.45-.93-11.09,2.26,13.65,10,85,12.48,161.33,5.66,13.91-1.24,19-.8,16.86,1.45-5.09,5.36-141.5,11-162.9,6.69-23.91-4.78-38.18-9.56-44.75-15-4.79-4-6.69-3.89-16.19.64-14.07,6.71-17.12,6.51-32.59-2.18-23.23-13.05-23-35.81.5-47.79l12.4-6.33,15.46,6.65c9.48,4.08,16.55,5.56,18.3,3.82s1.64-10.27-.26-22.06c-2.79-17.3-2.48-20.09,3.12-28,6.9-9.68,7.73-16.1,3.19-24.58-5.36-10,5.14-34.7,22.62-53.19,34.8-36.82,37-41,27.29-51.72-4.6-5.08-4.72-6.9-1-15.56,6.83-16,5.38-29.65-4-37.72-9.95-8.56-27.4-13.74-38.67-11.48-10.74,2.14-23.94-9-26.5-22.32-1.65-8.61-.6-10.48,9.9-17.62,6.47-4.39,13.74-8,16.16-8s6.7-2.06,9.48-4.58c4-3.64,17.48-4.89,64.59-6,176.33-4.13,217.87-2.62,234.75,8.57,13.57,9,16.45,16.62,11.6,30.73-4.3,12.5-10.92,18.83-22.92,21.87-13.27,3.38-33.83,18-35.74,25.51-1,3.95-.19,12.67,1.82,19.38s2.83,16,1.81,20.64c-3.3,15,6.06,30.13,42.25,68.09l11.68,12.25,46.93-1c52.8-1.16,58.1-3,55.33-18.91C556,326,560,322.68,581.8,321.09c26-1.89,40.94,5.5,41.09,20.37.13,13.35,8,18.77,24.11,16.6,6.9-.93,24.61-2,39.34-2.35l26.78-.66,11.31-12.12c36.15-38.71,37.76-41,37.76-53.62,0-6.71-1.72-14.95-3.82-18.32-3.18-5.09-2.7-9.23,2.85-24.47l6.69-18.35-10-10.6c-7.1-7.53-13.77-11.2-23-12.68-20.51-3.28-23.68-8.7-16.41-28,.79-2.11-.09-3.83-2-3.83-7.24,0-2.85-8.72,8.1-16.1,9.4-6.33,17.89-8.4,46.72-11.39,19.38-2,45.58-5,58.22-6.71,34.57-4.58,133.43-6.53,157.79-3.11,23.23,3.27,46.6,10.83,53.1,17.18,3.33,3.26,3.37,6.32.22,16.83-3.72,12.43-8.59,17.66-31.53,33.94-14.69,10.41-19.09,21.44-14.57,36.51,5.43,18.13,4.47,21.61-7.35,26.55-11.15,4.66-11.44,8.34-1.25,15.71,2.82,2,6.75,7.55,8.73,12.26s9.19,12.52,16,17.38c14.45,10.26,24.08,24.58,24.1,35.82,0,4.45,3.36,11,7.68,15.11s10,14.52,12.8,23.46c4.45,14.09,4.56,17.31.87,24.2s-3.61,9.07.41,16.14c4.83,8.48,6.38,8.74,29.51,4.93,16-2.64,29.4,2.41,34.2,12.94,2.94,6.46,2.49,9.43-2.73,17.88-3.44,5.56-8.43,11-11.09,12-4,1.52-4.47,5-2.77,19.64,1.64,14.12,1.09,18.61-2.66,21.72-8.35,6.93-12.17,1.93-16-21-4-23.8-7.22-28.23-19.53-27-7.45.77-7.66,1.44-7.4,23.77.64,56.42,5.94,97,14.44,110.63,2.59,4.15,2.62,6.55.11,9.06-4.87,4.87-76.08,7.85-78.89,3.3-1.36-2.21.45-3.61,4.92-3.81l25.45-1.11c23.84-1,39.67-4.56,36.19-8-2.74-2.73-79.15,1-104.36,5.08-8.5,1.38-13,1-13-1.16,0-1.79,6.55-4.13,14.56-5.18s18.69-2.74,23.74-3.74c10.21-2,15.48-2.43,44.43-3.36,18.57-.6,31-4.23,27.32-8-.89-.89-9.12-.42-18.3,1-19.05,3-61.75.67-59.31-3.28.9-1.44,14.73-2.63,30.75-2.63,26.74,0,41-3,41-8.53,0-1.2-12.75-1.48-28.34-.61s-33.17.78-39.07-.21c-9.05-1.52-7.38-2.13,10.72-3.9,11.8-1.15,23.52-1.78,26-1.39,6.69,1,30.64-3.92,30.64-6.33,0-1.12-25.17-1.57-55.92-1-38,.72-54.93.06-52.85-2.06,1.68-1.72,22.37-3.94,46-4.94,41.79-1.76,62.81-5.45,62.81-11,0-1.58-2.93-1.64-6.9-.14-10,3.77-55.76,7.38-63.3,5-12.85-4.08-5.77-6.89,22.35-8.87,29.56-2.08,47.84-6.49,47.84-11.54,0-1.6-2.88-1.33-6.49.6s-22.52,4.56-42.13,5.9-41.07,3.87-47.72,5.63c-12.46,3.32-18.44,2.25-15.36-2.75,1-1.56,6.56-2.85,12.42-2.85s13.7-1.9,17.43-4.23c4-2.49,19.76-5,38.24-6,17.3-1,33.85-3.23,36.77-5,3.9-2.4-2-2.85-22.26-1.72-70.37,4-198.29,5.23-196.27,2,1.35-2.19,18.36-3.42,48.62-3.54,38-.14,95.27-2.53,165.78-6.92,4.91-.31,9.51-2.28,10.21-4.39,1.49-4.46-4.44-4.66-23.74-.82-16.24,3.23-64.29.21-52.09-3.28,4.21-1.2,16.62-2.49,27.58-2.85s24-1.8,29.1-3.18c11-3-28.65-2-173,4.29-58.09,2.54-106.34,4.56-107.24,4.49-5.66-.49-9.43.94-8.11,3.08.85,1.37,15.41,2.19,32.36,1.82s30.81.4,30.81,1.72c0,3.76-17,6.22-43.1,6.22-13.17,0-24.8,1.38-25.84,3.06-1.22,2,11.41,3.07,35.67,3.07q59.18,0,16.29,9.37c-16.52,3.59-22.73,4.26-27.45,3-1.69-.45-7.63-.66-13.2-.46-13.81.49-9.41,6.43,5,6.7,11.45.21,9.84,1.95-6.75,7.26-11.36,3.65-1.65,5.61,24.86,5,32.9-.72,31.73,4.91-1.76,8.49-34.26,3.66-32.62,8.51,2,5.89,114.89-8.68,138.51-9.69,138.51-5.92,0,1.42-23.09,3.46-51.32,4.52s-56.7,3.48-63.27,5.35-22,3.65-34.38,4c-13.58.34-24,2.12-26.35,4.52-3.2,3.23,11.77,3.88,81.87,3.53,103.18-.51,99.24-.62,93.88,2.77-2.29,1.46-36.07,3.53-75.06,4.62-81.37,2.28-106.14,4.27-106.14,8.53,0,1.65,5.86,2.66,13,2.24s21.23-.54,31.25-.25c29.49.84,16.12,6.38-20.85,8.64-18.13,1.11-31.25,3.08-29.15,4.38,4.83,3,75.6.28,82.09-3.14,4.41-2.33,69.5-4.81,95.22-3.63,8.14.37,9.61,1.2,6.13,3.46-2.53,1.63-21.15,3-41.37,3.07a526.94,526.94,0,0,0-73.53,6.12c-20.22,3.31-46.76,6-59,6.07-13.8,0-22.21,1.31-22.21,3.36,0,2.33,29,2.82,98,1.68,53.88-.89,98.66-.49,99.52.9,2.4,3.89-66.6,7.37-134.66,6.8-36.67-.31-63.13.71-65.88,2.54-3.21,2.15,5.08,3.09,27.58,3.15,36,.09,55.85,2.52,53.37,6.53-.9,1.47-20.52,2.69-43.6,2.72-37.83,0-54.87,2.51-47.63,6.91,3.73,2.27,66,.33,112.92-3.51,46.32-3.8,99-4.14,87.24-.57-4.26,1.3-26.93,2.63-50.37,3-23.94.35-50.75,2.54-61.19,5-10.94,2.58-34.63,4.4-57.64,4.43-21.48,0-39.06,1.26-39.06,2.74,0,4.6,53.38,6.81,131.75,5.44,47.92-.84,69-.36,58.21,1.31-14,2.19-126.38,5.71-186.13,5.84-8.85,0-16.09,1.37-16.09,3s18,3.33,43.66,3.83c27.82.54,43.11,2,42.13,3.91-.84,1.69-9.33,3.07-18.86,3.07s-18.5,1.16-19.92,2.58,19.81,2,47.17,1.33c87.5-2.21,61.94,4.07-34,8.36-29.62,1.32-39.63,4.44-15.47,4.82,8.28.13,19.89.69,25.78,1.26,23.62,2.25,129.79,1.45,171.58-1.3,24.44-1.61,58.22-3.72,75.07-4.7,56.64-3.27,113.09-12.75,111.21-18.67a2.92,2.92,0,0,0-4-1.66c-7,2.78-76.42,3.64-72.46.9,2.28-1.57,12.62-3,23-3.23,24.48-.47,48-6.39,48-12.07,0-3.15-1.94-3.76-6.89-2.18-18.77,6-89,10.7-84,5.62,1.14-1.14,16.89-3.08,35-4.3s36.74-3.2,41.45-4.41c9.38-2.4,9.64-9.55.31-8.41-40.2,4.94-65.43,6.68-73.91,5.09-5.67-1.07-9.73-2.52-9-3.23s17.13-2.58,36.48-4.16,37.45-3.74,40.21-4.8c12.74-4.88,1.4-6.33-43.23-5.51-29.51.55-44.69-.1-39.06-1.67,5.05-1.4,19.26-2.72,31.57-2.92,21.58-.35,48.45-5.18,50.91-9.16.65-1.06-27.7-1.81-63-1.67s-64.79-.73-65.53-1.92c-2.74-4.44,19.5-6.12,55.23-4.17,29.3,1.59,40.11,1,53.23-2.92,17-5.07,21.84-4.53,21.84,2.38,0,2.19,5.19,10,11.54,17.44,23.39,27.26,34.73,42.56,38.84,52.39A95.8,95.8,0,0,0,1139,713c6.14,7.8,6.38,9.8,3.25,27.57-11,62.51-12.8,92.16-8.29,135.59,3.17,30.56,6,49.91,11.74,81.79,7.87,43.34,6.8,47.28-18.94,69.67-16,13.95-20.32,16-41.85,20.12-13.18,2.53-32.42,4.59-42.75,4.59s-23.54,2-29.36,4.43c-17.63,7.36-41.54,9.39-47.69,4-4.33-3.78-22.29-5-100.26-6.67-102.35-2.22-158.69-5.73-177-11-15.79-4.57-22.13-12.37-33.43-41.14-9.63-24.52-9.7-25.16-10.56-87.51-1.18-85.77-3.54-119.49-8.95-127.75-2.47-3.76-4.49-9.68-4.49-13.16,0-10-13.06-13.16-45.84-11-16,1.08-29.86,3.36-30.92,5.07s-.89,10.28.38,19,3.11,46.26,4.09,83.34,2.67,79.18,3.75,93.58c1.7,22.82,1.24,26.89-3.6,31.73-4.67,4.68-5.06,7.38-2.45,17.16,3.39,12.72-.82,25.29-9.61,28.66-9.09,3.49-116.86,16.92-160.91,20a1885.65,1885.65,0,0,1-203.75,3.43Zm-16.86-15c0-3.1-14.83-6.49-28.72-6.55-5.27,0-11.64-1.39-14.17-3-3.45-2.23-1.93-3,6.13-3.06,12.93-.12,21.43-4.31,14.28-7-2.54-1-5.07-4.88-5.62-8.67-.71-4.92-4-7.67-11.44-9.59-13.39-3.45-26-.52-23.64,5.52,1.13,3-.27,4.47-4.14,4.47-3.21,0-6.62,1.25-7.57,2.78-2.67,4.32,1.51,12.54,6.38,12.54,2.4,0,5.16,2.06,6.13,4.59s4.29,4.6,7.38,4.6,6.47,1.38,7.51,3.06c2.33,3.76,47.49,4.13,47.49.38Zm-49-28a3.17,3.17,0,0,1,3.25-3.07c1.78,0,2.39,1.38,1.35,3.07s-2.5,3.06-3.25,3.06S115.7,1023.41,115.7,1021.73Zm320,9.19c2.83,0,3.92,1.77,2.84,4.59-2.61,6.79,10.34,5.9,24.49-1.68,6.45-3.46,10.82-4.84,9.73-3.07-1.33,2.16,7.19,3.22,25.86,3.22,22.39,0,28.22-.93,29.69-4.77,1-2.62,3.72-4,6-3.16,5.7,2.19,13.79-1.2,11.54-4.83-1-1.62-5.33-4.27-9.62-5.91-7.49-2.84-7.58-3.15-2-7.2s5.48-4.35-1.85-7.35a114.46,114.46,0,0,0-16.18-5c-11.1-2.38-7.72-7.77,4.9-7.83,13.92-.06,23.57-3.12,23.57-7.49,0-2.77-3.81-3.12-14.56-1.35-16.94,2.78-33.1,3.43-30.89,1.23,2.49-2.5,31-8.22,40.08-8.06,4.93.09,8.43-1.5,8.43-3.81,0-2.89-4.78-3.71-17.62-3s-15.59.23-10-1.74a65.05,65.05,0,0,1,15.75-3c4.46-.16,8.9-2.38,9.87-4.91,1.49-3.89-1-4.35-15.76-2.92-9.64.93-21.26,2.27-25.83,3s-9,.15-9.86-1.23,9.68-3.39,23.42-4.45c23.51-1.81,33.77-5.39,29-10.13-1.15-1.14-13.58-.29-27.64,1.9-17,2.63-31.65,3.11-43.68,1.41l-18.11-2.56L488,938.76c16.86-1.15,37.19-3.1,45.2-4.33,14.48-2.24,14.55-2.31,14.55-14.16,0-12.68-1.34-13.58-13.4-9-4.22,1.6-31.54,4.38-60.71,6.17s-57.52,3.84-63,4.55-10,.3-10-.92c0-3.57,104.76-15.52,137.88-15.73,7-.05,7.71-1.32,8.2-14.07l.54-14L536,878.87c-29.08,4.16-53.95,5.24-70.15,3-16.43-2.22-14.3-2.66,29.37-6.1,41.84-3.3,57.09-6.78,52-11.86-.88-.88-14.58-.24-30.43,1.43-37.16,3.91-61,3.94-61,.08,0-1.78,10-3.09,23.75-3.13,24.28-.06,61.32-4.32,64.41-7.41,4.41-4.41-4.55-4.84-41.07-2-59.28,4.67-103.24,6.14-100.28,3.37,2.61-2.44,10.12-3.27,82.3-9.05,48.17-3.85,59.75-6.09,59.75-11.53,0-3.16-1.93-3.78-6.84-2.23-9.73,3.09-134.7,6.65-140.19,4-7.84-3.79,7.42-5.36,65.83-6.76,69.5-1.66,90.77-7.69,28.16-8-27.37-.13-41.64-1.28-40.41-3.26,1-1.68,15.25-3.14,31.58-3.24s35.21-1.43,41.95-3c14.49-3.29-69.39-1.59-142.47,2.88-41,2.51-204.5,2.25-235.88-.38-7.83-.66-10.72.33-10.78,3.7-.06,3.85-5.67,4.48-34.5,3.91-28-.56-34.42.12-34.42,3.65,0,5.22,27.85,6.23,172.34,6.23,53.5,0,97.28,1,97.28,2.3s-11.37,2.58-25.27,2.93l-42.13,1c-73.72,1.8-147.23,1.72-171.58-.18-32.92-2.57-34.9,1.14-3.63,6.82l20.48,3.72-25.56-1.52c-19.94-1.18-25.28-.65-24.25,2.41,1.51,4.53-1.9,4.32,100.37,6.22,43,.79,98.12.54,122.55-.56s46.5-1,49,.33c3.65,1.86,3.33,2.41-1.53,2.68-125.42,6.93-213.32,7.44-255.43,1.5-13.24-1.87-16.19-1.51-15.09,1.84.89,2.75,9.64,5,25.64,6.65,38.4,3.93,45.29,5.32,42.11,8.49-1.81,1.81-14.1,1.73-32.85-.22-16.48-1.7-31.34-2.25-33-1.22-7.1,4.39,4.27,7.12,38.08,9.14,20.06,1.19,36,3.48,36,5.15,0,1.93-13.26,2.22-36.76.82-24.12-1.44-36.77-1.14-36.77.89,0,8.54,72.63,13.52,179.79,12.31,64.61-.73,93.87-.08,90.38,2-6.83,4.07-225.61,3.66-251-.47-14.29-2.32-19.15-2.21-19.15.45,0,4,32.39,10.74,51.67,10.74,7,0,12.67,1.38,12.67,3.07,0,3.72-33.88,3.94-49.47.32-11.14-2.59-24.45.83-14.78,3.8,17.48,5.35,53.35,8.56,77.61,6.94,44.81-3,203.55-4.76,173.54-1.92-36.63,3.45-165.55,7.77-212.17,7.1-21.49-.31-39.07.59-39.07,2s12.07,4.23,26.81,6.25S126,950,133,951.48c11.38,2.43,55.29,2.06,165-1.38,23.68-.74,32.95-.25,26.05,1.39-30.52,7.25-169.87,9.83-211.14,3.91-15.87-2.28-32.06-4.14-36-4.14-12.08,0-7.94,5.17,5.86,7.32,46.77,7.29,61.36,10.54,63.6,14.16,2,3.23,14.15,3.92,57.17,3.27,30-.46,57.39-1,60.77-1.08s13.71.24,23,.85c11,.72,3.14,1.81-23,3.17-21.91,1.14-58,3.17-80.31,4.51-28.38,1.71-50.14,1.24-72.82-1.56-29.78-3.67-39.44-3.12-34.34,2,3.6,3.6,32.91,6.93,78.32,8.92,57.17,2.49,63.94,7.35,11,7.85l-39.68.38,24.51,4.39c28.66,5.14,82.21,4.21,223.93-3.91l92.19-5.29,6.63,6.63c7.94,7.94,11.5,8.3,15.28,1.55,1.69-3,4.82-4.3,7.76-3.18,8.76,3.36,1.89,10.88-14.29,15.62-15,4.38-16,4.31-21.44-1.53-4.57-4.91-8.27-5.8-18.48-4.47-27.62,3.6-120.52,11.13-129.19,10.47-28.32-2.16-145.54.76-145.54,3.62,0,2.15,23.21,3,70.61,2.69,38.83-.28,71.46.34,72.51,1.39s-1.43,2-5.5,2.12a40.47,40.47,0,0,0-13.53,3.12c-6.64,3.14,90.89,1.26,114.13-2.2,10.55-1.57,13-1,13,2.81,0,7,7.31,8.27,9.86,1.71,1.21-3.11,4.27-5.65,6.8-5.65Zm43.18-2.92c-1.21-2,1.52-3.21,7-3.21a127.15,127.15,0,0,0,19.33-1.94c7-1.31,9.34-.92,7.28,1.18-4.58,4.65-31.25,7.8-33.62,4Zm1.2-34.14c4.91-2,8.48-1.89,10.57.2s-.16,3.09-7.41,3c-9.94-.18-10.13-.37-3.16-3.16Zm-65.63-5.68c-4-1.58,4.59-3.13,24.51-4.44,16.85-1.1,35.91-2.69,42.36-3.53,6.83-.89,11-.33,9.95,1.33s-15.2,3.77-31.63,4.9-31.94,2.53-34.47,3.11-7.35,0-10.72-1.37Zm-3.77-14.54c3-.77,7.12-.72,9.19.12s-.36,1.47-5.42,1.41-6.75-.75-3.77-1.53Zm42.07-4c-3.17-2,2.48-2.94,18.13-3,12.49,0,22.15.45,21.44,1.06-3.38,2.94-35.54,4.5-39.57,1.92Zm-50.53-12.26c1-1.66,6.15-3,11.39-3,11.57,0,10.4,1.53-3.14,4.11C404.14,959.63,401.05,959.22,402.21,957.34Zm52.06,0c-1-1.68.34-3.06,3.06-3.06s4.11,1.38,3.07,3.06-2.42,3.07-3.07,3.07S455.31,959.07,454.27,957.38Zm-49-18.38c13.74-3.5,38.3-3.5,38.3,0,0,1.81-9.72,2.92-23.75,2.7C402.36,941.44,398.5,940.72,405.25,939Zm64.34-12.07c29-4.92,73.61-6.69,69.68-2.76-2.26,2.26-18.52,3.9-44.29,4.46-29.81.66-36.61.21-25.39-1.7Zm-64.34-27.76c8.51-3.66,14.51-3.66,12.25,0-1,1.69-5.6,3-10.13,2.85C400,901.83,399.78,901.52,405.25,899.17Zm33.7.14L426.7,897.5l15-2.23A275.15,275.15,0,0,1,474.79,893a314.55,314.55,0,0,0,39.73-3.35c15.42-2.39,22.54-2.4,24.89-.05,5.86,5.86.07,7.18-36.74,8.38-19.88.65-39.59,1.61-43.8,2.14s-13.18.15-19.92-.85ZM151.23,887.37c-2.53-4.09-5.37-3.84,54.87-4.89,121.32-2.11,136.84-2.21,138.15-.9,2.82,2.82-32.63,5.12-110.89,7.19-58.89,1.56-80.53,1.19-82.14-1.4Zm243.29-9.65c0-1.81,11-3,26.81-3,18.44,0,25.38,1,22.22,3C437.42,881.68,394.52,881.68,394.52,877.72ZM936.07,1038.3c29.13-3.55,17.48-7.85-19.92-7.36-46,.61-46.72.56-46.72-3.09,0-1.86,13.71-3.06,35-3.06a352.19,352.19,0,0,0,66.1-6.13c17.1-3.37,38.23-6.16,47-6.19a75.87,75.87,0,0,0,29.64-6.56l13.79-6.5-9.52-2.15c-5.27-1.2-25.8.18-46,3.08-39.51,5.68-175.84,8.34-192.7,3.76-5-1.37-14.7-1.7-21.44-.73s-15,.84-18.39-.29-18.07-2.85-32.67-3.83-30.12-2.68-34.49-3.78c-12.77-3.21-29.92,1.15-28.69,7.28,1.09,5.44,3.27,5.59,31.51,2.27,12.69-1.49,14-1.23,7.66,1.52-16.05,7-4.54,8.69,114.86,17.16,19.73,1.39,26,2.79,22.76,5-1.57,1.07-95.2-3.21-110-5-27.3-3.35-67.41-4.74-67.41-2.33,0,5.12,9.2,10.27,15.44,8.64,3.45-.9,10.63-.39,15.95,1.13s24.59,3,42.81,3.21,37.59,1.37,43,2.52c13.29,2.8,122.18,3.9,142.43,1.44Zm-80.43-19.7c-11.2-1.7-11.59-2.06-4.52-4.12a28.12,28.12,0,0,1,15.07.46c10.24,3.78,4.15,5.9-10.55,3.66Zm-20.49-2c2.21-.89,4.85-.78,5.87.24s-.79,1.74-4,1.61c-3.57-.15-4.29-.87-1.85-1.85Zm-65.3-4c1-1.68,4.23-3,7.08-3,4.46,0,4.54.45.58,3C771.51,1016.41,767.46,1016.41,769.85,1012.53Zm-14.36-2.09c2.21-.88,4.85-.78,5.87.24s-.79,1.75-4,1.61c-3.57-.15-4.29-.87-1.85-1.85Zm-598.41,11.29a40.25,40.25,0,0,0-12.25-2.81c-5.06-.13-5.33.35-1.53,2.81,2.52,1.63,8,2.89,12.25,2.8C162.57,1024.37,162.69,1024.14,157.08,1021.73Zm-44.42-21.57c0-4.64-22.88-5.89-27.27-1.5-3.77,3.77-2.22,4.31,11.45,4,8.7-.2,15.82-1.33,15.82-2.5ZM897,989.78c80.7-3.32,149.56-8.55,163.92-12.44a279.31,279.31,0,0,1,29.11-6.05c15.89-2.18,42-13.26,32.15-13.66-3.39-.13-10.65,1-16.16,2.62-9.73,2.8-82.53,11.35-111.74,13.14-24.89,1.52-15.94-2.75,10.35-4.95,13.7-1.14,27.42-3.42,30.49-5.06s17.49-4.2,32-5.67,28-4.37,30-6.43c2.81-2.95-3.29-3.34-28.6-1.85-71.11,4.19-96.33,4.83-91.92,2.35,2.53-1.42,21.14-4.24,41.36-6.26,58.88-5.91,85.25-10.06,93.45-14.73,7.22-4.11,6.87-4.23-6.13-2.18-23,3.64-134,4.25-127.69.71,3-1.7,7.59-2.29,10.12-1.32,4.22,1.62,94.46-5.8,105.27-8.65,2.56-.68,8.64-2.12,13.51-3.21,5-1.13,7.69-3.12,6.13-4.61s-12.26-.75-24.19,1.59c-25.49,5-47.49,5.64-47.49,1.37,0-1.69,1-3.07,2.3-3.08,7.94,0,62.22-10,70.31-12.91,18-6.45,7.4-7.91-14.92-2-12.12,3.18-27.64,5.82-34.5,5.86a127.16,127.16,0,0,0-24.72,3.1c-11.15,2.75-35.51,6-52.72,7.12-3.73.24-6.86-.95-7-2.64s10.77-4,24.18-5.14,26.88-3.41,29.94-5,18.6-4.55,34.52-6.48c29.41-3.57,64.06-12.91,54.85-14.79-2.77-.57-13.8,1.29-24.51,4.14-22.67,6-125.16,9.59-125.16,4.35,0-1.69,5.86-3.11,13-3.16,34.8-.26,107.43-9.19,123.07-15.13,15.41-5.86,6-7-16.23-1.92-23,5.23-67.78,6.66-67.78,2.16,0-3.18,9.35-5,48.84-9.75,15.91-1.89,32.45-5,36.77-6.83l7.84-3.39-9.82-1.09c-5.39-.6-12.29.23-15.32,1.86-8.45,4.52-69.68,8.25-67.11,4.09,2-3.26,8-4.7,34-8.21a170.52,170.52,0,0,0,21.45-4.41,194.58,194.58,0,0,1,23.74-4.72c8-1.08,14.55-3.26,14.55-4.84,0-3.55,5-4.14-40,4.67-21.13,4.14-41.42,6.75-45.09,5.79S1017.28,842,1003,844s-27.67,2.63-29.77,1.34c-5.92-3.66,5.49-7,24.92-7.21,9.28-.12,21.49-1.54,27.15-3.16s24.18-4.48,41.18-6.35,34.43-5.44,38.73-7.94c7.52-4.36,7.3-4.46-6-2.51-23.83,3.5-125.62,4.54-125.62,1.28,0-1.64,7.24-3.08,16.08-3.2,62.66-.82,94.54-2.64,106.47-6.06,17.28-4.95,24.13-10.64,9.52-7.9-22,4.11-80,6-80,2.59,0-1.83,3.8-4,8.43-4.86s-17.87-.94-50-.21l-145.54,3.27c-51.35,1.16-88.72,3.24-91.05,5.08-2.53,2-20.43,2.45-49.79,1.24-28.56-1.17-45.84-.77-45.84,1.06,0,1.62,7.24,3.06,16.09,3.2s18.84.71,22.21,1.27c32.7,5.43,83.88,7.41,149.36,5.78,49.46-1.23,75.83-.83,75.83,1.16,0,6.82-178.14,8.21-241.67,1.88-15.85-1.58-19.27-1.15-18.14,2.28,1.56,4.72,23.06,8,55.12,8.52,18.43.27,28,3.56,21.67,7.44-1.29.8-15.44,0-31.45-1.75-39.06-4.29-41.22-4.33-42.24-.79s40.77,10,68.28,10.7c13.26.33,16.68,1.19,12.26,3.08-8.59,3.69-39.26,3.61-62.54-.17-15.5-2.51-20.16-2.35-22.12.79-4.38,7.06,27.62,9.16,146.7,9.64,62.76.26,114.12,1.29,114.13,2.29,0,5.15-206.71,7.67-239,2.9-15.6-2.31-25.38,0-20.52,4.88,1.12,1.13,16.2,2.6,33.49,3.28,36.11,1.41,46.2,3,43.78,6.93-1,1.57-17.68,2-38.43,1-24.59-1.16-36.7-.68-36.7,1.46,0,4.34,41.24,7.93,61.64,5.37,9.07-1.14,57.16-2.49,106.87-3,61-.62,80.42-.14,59.74,1.49-16.85,1.33-53.55,2.44-81.57,2.46-28.71,0-56.65,1.58-64.05,3.57-8.11,2.18-26.45,3-47.89,2.06-30.67-1.31-43,.46-35.53,5.09,4.74,2.93,87,5.63,172.36,5.67,60.88,0,80.83.79,65.88,2.54-28,3.26-172.25,4.17-210.65,1.32-21.57-1.61-29.87-1.25-29.87,1.26,0,1.92,1,3.46,2.3,3.44,13.5-.27,89.62,10.85,89.62,13.1,0,3-9.44,2.34-62.11-4.38-14.78-1.89-27.79-2.52-28.91-1.41-5,5,6.86,8,49.65,12.6,51.35,5.48,59.24,7.09,36.77,7.52-8.43.15-17.31,1.55-19.75,3.09-9.34,5.9,14.65,7.16,105.24,5.51,51.79-.94,82.53-.61,70.13.76-31.57,3.48-191.12,4.81-218.43,1.82-14.69-1.61-21.87-1.46-19.91.42,4.72,4.53,33.2,9.7,71.66,13,19.19,1.65,35.74,3.92,36.77,5,1.67,1.83-23,.83-87-3.52l-21.44-1.45,10.72,4.94c16.31,7.52,133.37,19.19,174.64,17.41,9.27-.4,32.71-1.37,52.09-2.17ZM795.79,975.71c5.83-1.37,21.69-1.42,35.23-.11l24.63,2.4-35.24.1c-24.58.07-32-.65-24.62-2.39Zm100.45-2.1a43.11,43.11,0,0,1,13.79,0c3.79.73.69,1.32-6.89,1.32S892.45,974.34,896.24,973.61Zm-92.68-36.87c-11.79-.61-22.75-2.42-24.36-4-1.83-1.84,23-2.76,67.41-2.5,55.28.32,65.08.93,45.81,2.85C854.74,936.82,827.08,938,803.56,936.74Zm176.18-71.63c-8.15-1.44-5.75-2,10-2.3,11.38-.22,20.68.13,20.68.79C1010.37,866,990.22,867,979.74,865.11Zm-228-17.56c-1.61-2.61,13.18-3.63,57-3.93,32.54-.23,69.77-.57,82.73-.77s22.46.76,21.1,2.13c-4.17,4.22-158.26,6.69-160.8,2.57ZM137.18,976.23c0-1.43-12-4.28-26.68-6.33S80,965.4,75.26,964.46c-6.39-1.28-8.55-.52-8.55,3s5.26,5.15,23.75,6.67c13.06,1.07,26.5,2.38,29.87,2.9,12.44,1.94,16.85,1.73,16.85-.81ZM711.5,948.61c-7.6-6.92-56.52-13.09-56.52-7.13,0,1.36,5.86,3.91,13,5.67,16.32,4,47.45,5.05,43.5,1.46Zm411-3.48c4.55,0,7.41-1.78,7.41-4.6,0-5.83-4.08-5.8-15.47.08-9.47,4.9-12.55,9.59-4.19,6.38A41.94,41.94,0,0,1,1122.46,945.13ZM128,816.87c0-1.45-9.31-3.56-20.68-4.68-32.19-3.18-40.6-5.23-40.6-9.93,0-3.07,2.21-3.76,7.66-2.39,4.53,1.14,7.66.61,7.66-1.29,0-5.85-6.37-7.29-15.5-3.5-23.45,9.71,1.17,23.23,43.84,24.08,9.69.19,17.62-.84,17.62-2.29Zm88.76-12.56c2.48-1.57,3.58-3.78,2.44-4.92-3.11-3.11-30.31,1.69-28.27,5,2.28,3.69,20,3.63,25.83-.08Zm131.84-3.69c52.4-3.65,65.73-4.61,73.53-5.31,3.17-.28,3.5-1.1,1.06-2.65-5.29-3.38-82-2.16-135.87,2.14-50.6,4.05-56.35,5-54.11,8.6,1.81,2.94,50.12,1.77,115.39-2.78Zm367.66-1.36c-11-2-30.25-4.62-42.89-5.78-35.37-3.22-22.92,3.65,15.4,8.5s58,2.93,27.49-2.72Zm-185.36,1.87c4.76-2,3.27-2.68-6.71-2.85-7.07-.12-13.7,1.16-14.74,2.85C507.14,804.85,522.22,804.85,530.89,801.13Zm-60.51-10c9.59-4.63,8.63-9.23-1.53-7.29-4.64.89-14.29,2.5-21.45,3.58-14.75,2.22-17.23,6.63-4.6,8.17,10.3,1.25,18.49-.07,27.58-4.46Zm625.8,2.45,13.78-4.36L1090.05,791c-11,1-25.43,2.79-32.17,4.07-11.61,2.2-11.29,2.34,6.12,2.61,10.12.16,24.59-1.67,32.18-4.07Zm-285-1.67c0-1.69-2.15-3.07-4.77-3.07s-3.93,1.38-2.89,3.07a6.61,6.61,0,0,0,4.78,3.06A3,3,0,0,0,811.23,791.94Zm-312.51-1.28c0-4.81-4.39-11-7.81-11-6.13,0-8.89,6.44-4.07,9.49C491.23,792,498.72,792.89,498.72,790.66Zm-292.6-4.85c1.1-1.78-1.71-3-6.72-2.85-7.57.19-7.86.53-2.47,2.85,3.37,1.45,6.39,2.73,6.71,2.85S205.08,787.49,206.12,785.81Zm25.31,1a33.28,33.28,0,0,0-12.26-.06c-3.81.73-1.41,1.36,5.33,1.39S234.36,787.53,231.43,786.77Zm60.48-.81c9.19-1.91,3.83-2.49-21.45-2.31-19.94.14-29.95,1.11-24.51,2.37,12.85,3,31.52,3,46-.06ZM88.16,782.65c0-3.67-8.64-7.6-11.17-5.08-2.68,2.68,1.87,8.24,6.75,8.24C86.17,785.81,88.16,784.39,88.16,782.65ZM115,783.7a33.66,33.66,0,0,0-12.25-.06c-3.82.73-1.42,1.36,5.32,1.4S117.93,784.47,115,783.7Zm50.52.08a11.82,11.82,0,0,0-7.66,0c-2.11.85-.38,1.54,3.83,1.54S167.63,784.63,165.52,783.78Zm187.66-2.55c1.69-.58-3.48-1.17-11.49-1.31s-14.55.86-14.55,2.21C327.14,784.38,346,783.73,353.18,781.23Zm609-.24c41.62-1.8,45.61-2.48,49.85-8.52s4.09-6.81-1.31-9.22-64.9,2.58-121.36,10.25c-11.79,1.61-44.88,3.13-73.53,3.4-36.83.34-48.05,1.2-38.3,2.94,7.58,1.35,37.69,2.44,66.91,2.43s53.85.72,54.74,1.61,5.26,1,9.7.34,28.42-2.16,53.3-3.23ZM406.8,776.62c3.39-2.19,1.37-3-7.66-3-6.74,0-14.32,1.33-16.85,3-3.39,2.19-1.37,3,7.66,3C396.69,779.59,404.27,778.25,406.8,776.62Zm49,1.71c0-.74-1.38-2.2-3.06-3.24s-3.07-.44-3.07,1.35a3.17,3.17,0,0,0,3.07,3.24C454.44,779.68,455.82,779.07,455.82,778.33Zm291.07-1.71c0-1.69-4.22-3.07-9.37-3.07-5.47,0-8.58,1.28-7.48,3.07s5.26,3.06,9.37,3.06S746.89,778.3,746.89,776.62Zm-309.45-3.07c0-3.67-11.37-3.67-19.92,0-4.74,2-3.19,2.68,6.9,2.85C431.58,776.52,437.44,775.24,437.44,773.55Zm628.86-1.13c4.64-.64,10.08-1.34,12.1-1.55,2.3-.24,2.59-1.42.77-3.15-4.56-4.34-54.24.44-55.87,5.37C1022,777.11,1033.6,776.93,1066.3,772.42ZM92.75,764.36c1-1.68.44-3.06-1.35-3.06a3.17,3.17,0,0,0-3.24,3.06c0,1.69.6,3.07,1.35,3.07S91.71,766.05,92.75,764.36Zm21.45,0c-1-1.68-3.88-3.06-6.31-3.06s-4.41,1.38-4.41,3.06,2.83,3.07,6.3,3.07S115.24,766.05,114.2,764.36Zm276.73-5.14c9-2.53,19.56-3.79,23.55-2.79s8.12.44,9.16-1.25c2.41-3.9-2.33-3.89-73.52.08-32,1.79-72.35,4-89.62,4.94s-31.41,2.87-31.41,4.33c0,4.59,143.47-.12,161.83-5.31Zm297.75,2.08c0-1.69-4.48-3-10-3-7.56,0-8.85.76-5.36,3C679.38,765.19,688.68,765.19,688.68,761.3Zm233.45-4.12c41.61-.35,76.65-1.64,77.87-2.86s-44.81-2.21-102.29-2.21-105.23,1.18-106.13,2.63c-3.47,5.61,3.6,6.84,28.76,5,14.37-1,60.17-2.2,101.79-2.56Zm-457.81-4.5c.68-2-1.6-3.64-5.17-3.64-6.36,0-8.27,3.22-4.28,7.21C457.71,759.09,462.83,757.16,464.32,752.68Zm314.75,2.49c1-1.69-1-3.06-4.59-3.06s-5.64,1.37-4.6,3.06,3.11,3.06,4.6,3.06S778,756.85,779.07,755.17Zm-278.8-3.09c1.05-1.69-.25-3.91-2.88-4.92s-4.79-3.76-4.79-6.11-2.76-4.26-6.13-4.26c-6.19,0-7.67,4.67-4.27,13.53,2.06,5.36,15.07,6.63,18.07,1.76Zm545.37,0c2.24-3.62-4.55-3.68-21.44-.18l-12.26,2.53,15.91.36c8.74.19,16.75-1,17.79-2.71ZM1129.9,749c0-3.37-1.38-6.13-3.06-6.13a3.08,3.08,0,0,0-3.07,3.07c0,1.68-2.41,3.08-5.36,3.11a21.91,21.91,0,0,0-10,3c-3.36,2.17-1.11,3,8.43,3,11,0,13-.9,13-6.08Zm-438.66-6.51c-5.69-3.61-32.14-3.46-28.44.17,3.25,3.17,22.12,5.61,28.44,3.68,3.41-1,3.41-1.69,0-3.85Zm-62.45-4.95c.85-2.18-1.88-4.64-6.42-5.78-9.37-2.35-70.76.36-78.43,3.47-11.74,4.75-.71,6.47,40.35,6.29,31.27-.13,43.44-1.22,44.5-4Zm384.61-2.71c4.27-4.47,1.09-4.71-37.11-2.79-23,1.15-48.49,4-56.68,6.43-13.87,4-11.28,4.22,37.11,2.79C999,740.05,1009.62,738.84,1013.4,734.87Zm62.11,4.82c10.47-2.91,16.06-9,8.25-9-6.51,0-32.07,7-34.9,9.61-4,3.68,12.61,3.32,26.65-.58Zm49.79.16c4.82-2.07,3.5-2.67-6.13-2.8-6.74-.09-14.32,1.17-16.85,2.8C1096.38,743.69,1116.36,743.69,1125.3,739.85Zm-384.52-6.13c-2.52-1.63-8.73-2.89-13.78-2.8-7.89.15-8.33.54-3.07,2.8a44.25,44.25,0,0,0,13.79,2.8C743.76,736.66,744.41,736.06,740.78,733.72Zm-38.29-3.06c-1-1.69-6-3.07-10.91-3.07s-9,1.38-9,3.07,4.91,3.06,10.91,3.06C700,733.72,703.61,732.48,702.49,730.66Zm373.79-6.61c3.86-3.79-34.75,0-41.36,4.09-2.91,1.79,3.29,2.11,16.85.87C1063.56,727.94,1074.59,725.71,1076.28,724.05Zm56.68,2.19c0-6-4-8-9.34-4.57-3.87,2.49-3.85,3.25.15,5.88,6.44,4.22,9.19,3.83,9.19-1.31Zm-18.38-1.19c0-4.12-14.42-10.63-18.28-8.25-2.47,1.53-1.86,3.46,2,6.4,6.15,4.66,16.27,5.81,16.27,1.85Zm-413.78-25c4.24,0,6.24-1.14,4.6-2.56s-10.5-1.89-19.77-1.13c-12.59,1-15.3,2-10.72,3.91a24.35,24.35,0,0,0,12.26,1.17A78.9,78.9,0,0,1,700.8,700.06ZM666,674.5c11.92-16.08,33.19-53.45,36.1-63.44,11.46-39.31,11.89-42.75,12.26-97.94.21-31.17-.68-60.47-2-65.1-2.35-8.38-2.53-8.43-29.11-8.39-36.6.07-42,3.15-42.19,23.91-.1,12,1.35,17.43,5.68,21.35,3.2,2.89,8.39,10.3,11.53,16.46,4.27,8.37,9.27,12.56,19.74,16.56,7.7,2.94,15.32,7.8,16.93,10.8,6,11.26,1.22,50.19-6.82,55.28-2.22,1.42-9.64,2.59-16.48,2.62-15.69.06-20.47,4-27.3,22.62-4.35,11.84-5.18,21.06-4,44.7.78,16.37,2.34,31.25,3.45,33.05,3.54,5.72,12.44.72,22.22-12.47Zm-496.62,7.14c1-1.69.77-3.15-.59-3.25-18.69-1.39-35.14-3.66-43.84-6-15.1-4.13-23.62-3.92-19.22.48,8.2,8.21,59.62,15.32,63.65,8.81Zm450.88-7.87c2.72-7.09-3.3-11.78-8-6.19-3.92,4.73-2.14,11,3.13,11,1.63,0,3.8-2.16,4.82-4.8Zm.34-18.35c8.72-6.11,8.66-13.88-.17-22.17-6.77-6.36-7.1-6.38-10.58-.81-2.89,4.63-2.68,6.11,1,7.54,6.28,2.41,2.39,7.95-5.59,7.95-6.23,0-6.25.19-.87,6.13,6.67,7.37,7.48,7.44,16.17,1.36Zm-39.67-17.73c.92-4.78.15-5.09-5.33-2.16-7.75,4.15-8.49,10.19-1.07,8.76a8.86,8.86,0,0,0,6.4-6.6Zm16.67-22.41c-2.08-.83-6.21-.89-9.19-.11s-1.29,1.46,3.77,1.53,7.49-.58,5.42-1.42Zm26.75-25.56c0-1.69-2.07-3.06-4.6-3.06s-4.59,1.37-4.59,3.06,2.07,3.06,4.59,3.06S624.35,591.4,624.35,589.72Zm-37.28-14.21c14.72-1.45,19.94-5.57,7.19-5.67-3.89,0-4.9-2.28-4.15-9.2,1.24-11.33,1.18-11.27,12.69-12.18,5.18-.41,10.28-1.6,11.33-2.65,3.94-3.94-7.54-4.81-35.74-2.7l-29.11,2.18V555.9c0,8.08-1.72,11.46-7.27,14.25-6.45,3.25-6.62,3.77-1.53,4.72,10.75,2,30.22,2.26,46.59.64Zm-27.06-18c0-4.21,1.18-7.66,2.64-7.66s2,3.45,1.17,7.66-2,7.66-2.64,7.66S560,561.76,560,557.55Zm12.49-3.32c.15-3.57.88-4.3,1.86-1.85.88,2.21.77,4.85-.25,5.87s-1.74-.79-1.61-4Zm-30.88-10.14c0-3.19,1.73-6.37,3.83-7.06s28.64-1.64,59-2.1S660,533.6,660.64,533s.08-2.72-1.15-4.71c-2.79-4.52-114.26-.89-120.16,3.91-4.56,3.71-5.16,17.69-.77,17.69,1.69,0,3.06-2.61,3.06-5.8Zm-75.06-15.65c1-1.68-.26-3.06-2.88-3.06s-4.78,1.38-4.78,3.06a3,3,0,0,0,2.88,3.07A6.56,6.56,0,0,0,466.56,528.44Zm147.06-15.32c1.2-1.94-6.66-3.06-21.44-3.06s-22.65,1.12-21.45,3.06c1,1.69,10.69,3.07,21.45,3.07S612.58,514.81,613.62,513.12Zm5.78-13c10.6-5.52-.17-7.08-28.59-4.14-26.23,2.71-31.21,5.31-17,8.86C582.17,507,612.31,503.85,619.4,500.15Zm325.11-11.84c6.74-1.87,24.37-4.46,39.18-5.75s27.65-3.07,28.53-3.95c6.45-6.45-182.51-5.64-199.6.86-4.35,1.66-16.59,3-27.2,3a277.32,277.32,0,0,0-34.27,2.3l-15,2.3,21.44,1.53c45.95,3.28,174.74,3.08,186.9-.3Zm-852.31-4c.91-2.36-.33-6.84-2.74-9.95-4.25-5.5-4.52-5.49-8.93.21-3.37,4.37-3.67,6.93-1.15,10,4.41,5.32,10.74,5.21,12.82-.22Zm487-.77c-2.07-.84-6.21-.89-9.19-.12s-1.28,1.47,3.77,1.53,7.5-.57,5.42-1.41ZM609,482.48c3.63-2.35,3-3-3.07-3-4.21,0-9.73,1.34-12.25,3-3.64,2.35-3,3,3.06,3C600.94,485.45,606.46,484.12,609,482.48Zm428.57-5c5.27-1.05,9.58-3.24,9.58-4.86,0-3.5-24.61-.07-29,4-3.43,3.24,5.43,3.63,19.38.83Zm-427-7.27c1.08-1.75-1.56-3.07-6.13-3.07s-7.21,1.32-6.13,3.07a7.67,7.67,0,0,0,12.26,0Zm157.53-1.94c2.78-2.44-23-.86-27,1.66-2.6,1.64,1.57,2.06,10.72,1.07,8.23-.88,15.54-2.11,16.24-2.73Zm157.32.09c41.72-1.05,76.61-3.13,77.54-4.63S995,461,983.34,461c-15.82,0-22.31-1.27-25.36-5-3.51-4.23-8.51-4.62-34.84-2.73-16.91,1.22-53.49,2.29-81.3,2.38s-46.07.72-40.59,1.39c14.36,1.77,12.24,6.25-4.14,8.71-24.23,3.63-8.41,7.72,23.29,6,16-.86,63.24-2.42,105-3.47ZM99.74,462.52c.5-.4-1.09-1.49-3.53-2.43s-7,.3-10.09,2.74c-5.2,4.07-4.92,4.27,3.53,2.42C94.71,464.14,99.25,462.91,99.74,462.52Zm997.94-3.23a7.14,7.14,0,0,0-5.37-6.86c-6.79-1.31-10.83,8.27-5,11.93C1093.35,468.2,1097.68,466.09,1097.68,459.29Zm-737.57-3.16c15.62-1.11,29.11-3.16,30-4.56,3-4.92-16.15-12.16-24.16-9.11-5.86,2.23-54.91,8.59-99.72,12.93-2.73.26,1.93,1.5,10.35,2.74,15.18,2.24,28.55,1.92,83.56-2Zm-107.36,0c-1-1-3.67-1.13-5.88-.24-2.44,1-1.72,1.7,1.85,1.85,3.23.13,5-.59,4-1.61Zm523.4-1.4c-8.33-1.4-20-1.37-26,0-8.65,2.05-5.51,2.58,15.14,2.53,24,0,24.84-.25,10.9-2.58ZM432,447.17c.43-5.5-14.55-11.67-23.11-9.53-11.8,3-10.15,6.43,4.81,10.07s18,3.58,18.3-.54Zm166,2a3.77,3.77,0,0,0-.12-4.39c-2.39-2.39-10.34.91-10.34,4.29s8.31,3.58,10.46.1ZM296.23,437.65c.7-.62.54-1.86-.36-2.76-2.76-2.76-27,2.22-25.13,5.18,1.51,2.45,22.19.49,25.49-2.42Zm555.57-.09a11.82,11.82,0,0,0-7.66,0c-2.1.85-.38,1.55,3.83,1.55S853.91,438.41,851.8,437.56Zm98.81-.25,21.45-2.24-19.92-2.41c-27.33-3.31-31.54-3.18-61.27,1.83l-26,4.4,32.17.33c17.7.18,41.83-.68,53.62-1.91ZM676.39,429c4.22-.48,14.9-1,23.75-1.26s16.09-1.43,16.09-2.69c0-2.69-134.14-1.74-190,1.34-65,3.59-25.28,6.78,62.8,5,43.82-.86,83.11-2,87.33-2.43Zm116.18-.55c3.49-3-3.22-3.83-17.76-2.11-8.92,1.06-14.48,2.92-12.45,4.18,3.39,2.09,27.3.46,30.21-2.07Zm32.21,2.31c1.91-3.09-10.22-7-14.16-4.59a3.22,3.22,0,0,0-.81,4.45C812.05,434.23,822.56,434.33,824.78,430.75Zm-422.6-9c38.39-5.78-120.11-7.15-200.69-1.74-20.17,1.36-27.22,2.76-23,4.57,7.14,3,201,.58,223.67-2.83Zm143.64-14c26.83-18.49,24.46-20.31-26.45-20.28-68.07,0-102,4.8-77.61,10.91,4.09,1,12.09,6.91,17.8,13.08l10.37,11.22,29.34-1.53c28-1.46,30.16-2.1,46.55-13.4Zm383.36,8.53c105.77-2.66,99.77-1.73,104.14-16.17l2.2-7.26-128.23,1.92c-131.81,2-154.28,3.25-154.28,8.76,0,2.19,29.1,2.49,92.68,1,51-1.23,91.53-1.09,90.13.32s-43.1,3.36-92.67,4.33-90.95,2.61-92,3.63-.83,3.5.41,5.51c1.69,2.73,15.58,3.17,54.69,1.73,28.84-1.07,84.14-2.74,122.9-3.72Zm21.44-10.74c-10.81-1.68-10-2,6.9-2.34,10.53-.24,19.15.09,19.15.74C976.67,406.52,962.27,407.41,950.62,405.6Zm36.06-1.84c3-.77,7.12-.72,9.2.12s-.37,1.47-5.42,1.41-6.76-.75-3.78-1.53Zm-381.33,8.29c10.06,0,15.55-1.21,14.38-3.1-2.11-3.41-29.21-4.12-44.05-1.15-13.88,2.78-12.1,8.5,1.92,6.18a214.28,214.28,0,0,1,27.75-1.93Zm104-1.73c4.23-1.3,5.15-19.06,1.31-25.11-1.88-3-11.95-3.27-44.31-1.35-23,1.36-42.77,3.37-43.86,4.46-3.48,3.48,1.45,11.44,7.11,11.46,3,0,9.59,2.29,14.64,5.06,15.36,8.42,46.89,11.07,65.11,5.48Zm-289.53-4c2.49-2.49-28.54-2.94-115.88-1.67-75.59,1.09-120.4,2.88-122.34,4.89-2.11,2.16,34.23,2.69,115.88,1.66C378.61,410.22,417.49,408.66,419.81,406.35Zm375.38-20.18c1-.95-8.92-1.73-21.93-1.73s-23,1-22.26,2.3c1.6,2.6,41.53,2.09,44.19-.57Zm-461.94-3.26c2.1-2.53,5.63-4.6,7.86-4.6a7.57,7.57,0,0,0,5.87-3c1.14-1.86-11-2.55-32.76-1.87-19,.6-43.2,1.24-53.74,1.43s-19.14,1.65-19.14,3.26,15.22,2.73,36.79,2.47c24.91-.29,38,.74,40.44,3.21,4.93,4.93,10.09,4.6,14.68-.94Zm646.24-3.5c.7-.6-11.71-.89-27.58-.64-22.7.36-25.91.9-15.06,2.52,12.69,1.89,39.64.71,42.64-1.88Zm45.62-.8c1.05-3.2-.45-3.79-5.89-2.34a101.72,101.72,0,0,1-18,2.4l-10.72.45,10.72,2.31c14.69,3.16,22.24,2.27,23.91-2.82Zm-793-.3c3.39-2.19,1.37-3-7.66-3s-11,.78-7.66,3c2.53,1.64,6,3,7.66,3S229.61,380,232.14,378.31Zm662.57,1a11.82,11.82,0,0,0-7.66,0c-2.11.85-.39,1.54,3.83,1.54S896.81,380.2,894.71,379.35Zm-357.87-7.56c1.67-1.53-14.34-2.67-37.53-2.67-23,0-40.44,1.23-40.44,2.86s3.79,3.4,8.42,4.07c13.41,1.92,66.35-1.32,69.55-4.26Zm160.83-2c13.74-5.08,1.82-5.82-58-3.6-32.86,1.22-60.86,1.56-62.22.75s-6.11-.55-10.56.57c-6.52,1.64-7.23,2.63-3.66,5.1,5.36,3.72,123.51,1.23,134.47-2.82Zm-509.95-.67c1-1.69-.18-3.06-2.71-3.06s-5.44,1.37-6.49,3.06.18,3.06,2.71,3.06S186.67,370.81,187.72,369.12Zm181.47,1.21c-1-1-3.66-1.12-5.88-.24-2.44,1-1.72,1.7,1.85,1.85,3.23.13,5-.59,4-1.61Zm37.59-1.21c0-1.69-4-3.06-9-3.06s-9.86,1.37-10.9,3.06,2.52,3.06,9,3.06C401.88,372.18,406.78,370.81,406.78,369.12Zm27.58,0a20.35,20.35,0,0,0-9.19-3c-4.09,0-4.09.33,0,3a20.27,20.27,0,0,0,9.19,3C438.44,372.09,438.44,371.76,434.36,369.12Zm326.3-3.06c1.11-1.79-2-3.07-7.48-3.07-5.15,0-9.37,1.38-9.37,3.07s3.37,3.06,7.48,3.06S759.62,367.74,760.66,366.06Zm172.8-4.41c1.71-1.06,2.26-4.14,1.22-6.85-1.66-4.3-6.38-4.67-37.4-2.87-19.53,1.13-41,3.36-47.77,5s-24,3.06-38.29,3.27-29.49,1.4-33.71,2.65,28.46,1.94,72.6,1.52,81.65-1.63,83.35-2.68Zm-575.7,0c0-3.23-5.88-4.59-7.63-1.76-1.06,1.71.23,3.11,2.85,3.11s4.78-.61,4.78-1.35Zm39.83-1.71c0-1.69-.61-3.07-1.35-3.07s-2.2,1.38-3.24,3.07-.44,3.06,1.35,3.06A3.17,3.17,0,0,0,397.59,359.93ZM782,354c2.69-4.36-1.89-5.77-13.21-4.05-7.21,1.1-9,2.34-6.12,4.19,5.53,3.5,17.13,3.42,19.33-.14Zm-413.44-3.38c1.82-2.95-41.15-6.55-55.62-4.67-6.52.85-42.09,2.29-79,3.19s-67.93,2.39-68.84,3.3,44.21,1.35,100.26,1,102.51-1.63,103.23-2.8Zm614.24.29c0-4.14-5.58-7-9.24-4.75A3.53,3.53,0,0,0,972.2,351c2.3,3.72,10.59,3.7,10.59,0ZM787.53,340.45c9.72-.58,18.68-2.14,19.91-3.47,3.52-3.78-54.92.75-58.71,4.55-2.48,2.48-.09,2.93,8.87,1.68,6.74-.94,20.21-2.18,29.93-2.76Zm-186.44-.77c8.92-3.42,5-7.33-7.41-7.33-11.78,0-16.41,3.94-8.43,7.17a20,20,0,0,0,15.84.16Zm381.7-1.5c5.89.17,12.79-1.09,15.32-2.78,3.2-2.15-8-3.16-36.77-3.32-105.09-.61-148.53,1.51-140.56,6.86,2.49,1.66,34.36,2,77.75.89,40.44-1.07,78.36-1.81,84.26-1.65ZM195.37,326.23c0-1.69-3.45-3.07-7.66-3.07s-7.66,1.38-7.66,3.07,3.45,3.06,7.66,3.06S195.37,327.91,195.37,326.23Zm160.19,1c3.24-2-11.36-13.25-17.19-13.25-6.81,0-14.47-3.4-13-5.77.7-1.13-1.12-5.24-4.05-9.13-4.28-5.67-8.93-7.3-23.51-8.25-20.89-1.36-38.09,1.05-38.09,5.33,0,1.76,7.07,2.17,17.62,1,21.07-2.29,15.93,2.69-6.06,5.86-16.19,2.34-22.76,7.84-9.44,7.91,6.59,0,7.53.73,4,2.94-7.21,4.55.7,10.2,17.6,12.55s68.6,2.93,72.09.78Zm49.81-1.2c1.11-1.8,1.54-3.56.95-3.92-3.27-2-42.43,2-42.43,4.39,0,3.94,39,3.51,41.48-.47Zm390.53.21c0-1.69-4.14-3.07-9.2-3.07s-9.19,1.38-9.19,3.07,4.14,3.06,9.19,3.06S795.9,327.91,795.9,326.23Zm-592-14.79c.94-2.87-1.18-3.77-7.18-3.07-4.69.55-9.13,2.83-9.86,5.07-.95,2.86,1.18,3.77,7.18,3.06C198.72,316,203.16,313.67,203.89,311.44Zm616.24.57c2.94-2.55-29.24-.76-33.39,1.86-2.94,1.86,1.89,2.23,13.79,1.06,10.08-1,18.9-2.31,19.6-2.92Zm86.81-1.09c24.09,0,27.65-5.2,9.48-13.82-9.81-4.66-14.45-4.91-37.53-2-14.48,1.81-34.24,4.15-43.9,5.18-19.27,2.07-27.14,7.56-11,7.64,8,0,9.18.73,5.55,3.31-3.32,2.36,3.93,2.78,26,1.5,16.85-1,40-1.77,51.32-1.78ZM397.57,309.7c0-.66-2.07-2-4.6-3s-4.59-.42-4.59,1.21,2.07,3,4.59,3S397.57,310.36,397.57,309.7ZM200,298.65c3.31-5.36-1.6-9.89-6.4-5.9-2.38,2-4.32,4.8-4.32,6.28,0,3.69,8.39,3.4,10.72-.38Zm185.62-9.51c-2.69-6.75-2.95-6.83-3.13-1-.1,3.51.73,7.3,1.85,8.43,3.66,3.66,4.28,0,1.28-7.47Zm488.3,0c5.16-4.91-2.24-8.45-21.3-10.19-11-1-16.68-.6-14.16,1,6.06,3.84,1.42,9.42-8.23,9.89-7,.34-6.58.7,2.48,2.3,13.5,2.39,37.37.65,41.21-3ZM831,279.9c1.71-1.58-3.05-2.7-11.49-2.7-10.94,0-14.4,1.14-14.4,4.74,0,3.79,2.29,4.33,11.49,2.69,6.32-1.12,12.8-3.25,14.4-4.73Zm-595.77-18c3.37-2.17,1.17-3-8.25-3-7.06,0-13.69,1.33-14.73,3C209.77,265.85,229.06,265.85,235.2,261.88Zm66.68,1a33.72,33.72,0,0,0-12.26-.06c-3.81.73-1.41,1.36,5.33,1.39s9.85-.56,6.93-1.33Zm567.55-8.45c47.83-2.15,49.2-2.35,30.82-4.57-20.67-2.49-97.18,2.78-91.54,6.31,2.22,1.39,10.93,1.83,19.36,1s27-2.07,41.36-2.71Zm-549-9.57c2.22-.7,3.26-2.51,2.33-4s1.4-3.8,5.17-5.09c6.15-2.1,5.81-2.47-3.38-3.62-6.81-.86-12.19.47-16,4-5,4.5-6.5,4.64-10.9,1-6.59-5.47-86.92-8.26-86.92-3,0,2,6.63,3.49,16.09,3.66l16.08.3-13.26,3.55c-7.29,1.95-12.4,4.4-11.35,5.45,2,2,95.27,0,102.17-2.15Zm-70.47-6.48c2.21-.88,4.85-.77,5.87.25s-.79,1.74-4,1.6c-3.57-.14-4.29-.87-1.85-1.85Zm120.83,2.86c-.42-2.1,1.16-3.83,3.5-3.83a6.88,6.88,0,0,0,5.88-4.19c1.24-3.23-1.68-4.06-12.69-3.6-10,.43-14.3,1.9-14.3,5,0,2.83-4.06,4.69-11.56,5.31-19.27,1.59-9.34,7.06,11.06,6.08,13.1-.63,18.64-2.08,18.11-4.74Zm507-8.74c-1-1-3.66-1.13-5.87-.24-2.44,1-1.72,1.7,1.85,1.85,3.23.13,5-.59,4-1.61Zm-9.45-8.06c-5.18-3.33-35.67-2.83-35.67.59,0,1.63,8.7,2.65,19.59,2.3S870.26,225.64,868.33,224.4Zm44-2.35c3.38-2.19,1.37-3-7.66-3-6.74,0-14.33,1.34-16.85,3-3.39,2.19-1.37,3,7.66,3C902.21,225,909.79,223.69,912.32,222.05ZM401.2,210.48c1.22-1.22-33.91-1.87-78.06-1.45-131.77,1.25-136.86,1.4-123.17,3.68,16,2.68,198.35.65,201.23-2.23Zm-80.91-12.36c.68-2-1.6-3.64-5.17-3.64-6.36,0-8.27,3.22-4.28,7.21C313.68,204.53,318.8,202.59,320.29,198.12Zm476.65-.77c-2.22-2.22-6.57-2.31-13.63-.28l-10.38,3,13.64.28C796.2,200.52,799.24,199.65,796.94,197.35Zm36.5,1.23a11.82,11.82,0,0,0-7.66,0c-2.1.85-.38,1.54,3.83,1.54S835.55,199.43,833.44,198.58Zm72.06-3.23a81.66,81.66,0,0,0-18.38,0c-5.51.68-1.74,1.26,8.37,1.27S910.1,196.05,905.5,195.35Zm26,.18c-2.08-.84-6.21-.89-9.2-.11s-1.28,1.46,3.78,1.52,7.49-.57,5.42-1.41ZM362.37,183.1c10.56-2-14.18-2.6-79.66-2-52.24.48-96.36,1.11-98,1.4s1.76,1.58,7.66,2.86C206.79,188.51,343.16,186.69,362.37,183.1Zm25.21-2.73c-1-1-3.66-1.13-5.87-.24-2.45,1-1.72,1.7,1.85,1.85,3.23.13,5-.59,4-1.61Zm593.69-1.21c-2.26-3.66-12.93-3.66-21.45,0-4.59,2-2.44,2.69,8.61,2.85C977.52,182.14,982.44,181.05,981.27,179.16ZM794,176.65c.85-1.38-2.51-1.91-7.48-1.18s-9,1.85-9,2.5C777.52,180.31,792.51,179.11,794,176.65Zm24.85-3.46c-8.88-2.11-8.72-2.26,4.6-4.28,7.58-1.15,30.85-3.39,51.69-5s38.66-3.63,39.58-4.55c2.81-2.81-50.39-1.9-100.46,1.72-26.12,1.89-48.87,4.84-50.56,6.54-2.06,2.09,2.62,2.56,14.38,1.42,20-1.92,33,.22,26.48,4.35-2.55,1.62,1.11,2.47,9.7,2.28,12.33-.29,12.81-.55,4.59-2.5ZM871,173c1-1.68-1-3.06-4.42-3.06s-6.3,1.38-6.3,3.06,2,3.07,4.41,3.07S869.93,174.72,871,173ZM906.2,170c3.33-2.15,1-2.85-8.28-2.52-17.15.61-24.78,5.5-8.57,5.5,6.74,0,14.33-1.34,16.85-3Zm-662.62-4.91c-1-1-3.66-1.12-5.87-.24-2.45,1-1.72,1.7,1.85,1.85,3.23.13,5-.59,4-1.61Zm20-.18a11.82,11.82,0,0,0-7.66,0c-2.11.85-.39,1.55,3.83,1.55S265.66,165.72,263.56,164.87Zm13.78,563.64a43.69,43.69,0,0,1,13.79,0c3.79.73.69,1.32-6.89,1.32S273.55,729.24,277.34,728.51Zm120.26-7.13c0-1.29,17.58-3.2,39.07-4.24s50.68-3.24,64.89-4.87,26.52-2.27,27.37-1.43c4.64,4.64-8.37,8.45-32.27,9.44-71.2,3-99.06,3.26-99.06,1.1Zm-229-12.31c3.15-1.88,37.62-3.71,84.25-4.47,46.28-.76,73.23-.25,65.14,1.23C295.61,709.92,162.27,712.81,168.55,709.07Zm671.78-9c-1.19-1.94,6.34-3,20.5-3,15.59,0,21,1,17.8,3C872.57,704,842.75,704,840.33,700Zm-378.39-9.19c0-1.69,3.11-3.17,6.9-3.29S483,686.3,491.77,685c17.42-2.48,27.25.46,19.2,5.75C504.88,694.78,461.94,694.82,461.94,690.84Zm510.14-.07c6.88-1.36,13.53-1.2,15.17.36s-3.11,2.63-12.26,2.42l-15.17-.35Zm30.67-3a3.53,3.53,0,0,1,4.78-1.35c4.25,2.63,3.45,4.47-1.93,4.47-2.63,0-3.91-1.4-2.85-3.12Zm-609.87-9.34c-1-1.62,4.52-2.86,12.71-2.86,16.69,0,16.87,1.43.5,4-6.29,1-12.23.47-13.21-1.1Zm565.41-9c0-1.68,3.79-3,8.43-2.85,7.46.19,7.73.52,2.3,2.85C960.65,673,958.29,673,958.29,669.39Zm20.88-5.16c2.21-.88,4.85-.77,5.87.25s-.79,1.74-4,1.6c-3.57-.14-4.3-.87-1.85-1.85Zm-527.94-4c1-1.69,3.88-3.06,6.31-3.06s4.41,1.37,4.41,3.06-2.84,3.06-6.31,3.06S450.19,661.88,451.23,660.2ZM291.25,615a307.79,307.79,0,0,1,33.7,0c8.79.62.81,1.12-17.73,1.11s-25.72-.51-16-1.12ZM370,611.18c2.53-1.64,8.74-3,13.79-3,7.05,0,8.12.69,4.6,3-2.53,1.63-8.73,3-13.79,3C367.58,614.15,366.51,613.46,370,611.18ZM226.8,600c-12.72-5.15,2.27-7.17,53.46-7.17,35.28,0,56.18,1.1,54.39,2.85C331.56,598.66,233.29,602.6,226.8,600Zm711.74-16.1a3.41,3.41,0,1,1,4.69,1.11A3.41,3.41,0,0,1,938.54,583.86Zm-579.23-37c1-1.69,4-3.07,6.49-3.07s3.74,1.38,2.7,3.07-4,3.06-6.49,3.06S358.27,548.52,359.31,546.84Zm415.16-5.23c0-3.75,32.86-6.26,91.15-7,29.41-.36,43.66.55,43.66,2.77,0,2-8,3.31-20.68,3.34-11.38,0-41.71.93-67.41,2C790.64,544,774.47,543.62,774.47,541.61ZM204.59,503.94c-6.28-2-5.06-2.51,6.71-2.76,7.9-.16,15.22,1.08,16.26,2.76C229.79,507.54,215.82,507.54,204.59,503.94Z"/></svg>