<svg width="24" height="24" viewBox="0 0 24 24" fill="none" xmlns="http://www.w3.org/2000/svg">
<g clip-path="url(#clip0_23_2)">
<path d="M6.12879 11.2618C6.07431 11.294 6.02142 11.3279 5.9702 11.3691C5.96603 11.3773 5.96061 11.3869 5.96157 11.381L6.12879 11.2618Z" fill="black"/>
<path d="M6.11738 12.7916H6.11782L6.11691 12.7911L6.11738 12.7916Z" fill="black"/>
<path d="M6.17539 12.8178L6.17139 12.8163L6.17539 12.8182V12.8178Z" fill="black"/>
<path d="M6.10105 12.9946L6.09397 12.9913L6.10153 12.9951L6.10105 12.9946Z" fill="black"/>
<path d="M6.11782 12.7911L6.13839 12.8009L6.11878 12.792L6.13652 12.8028L6.21114 12.8477L6.15618 12.8094L6.16673 12.8145L6.17139 12.8164L6.15479 12.8079L6.04415 12.7312L6.03691 12.7237L6.02358 12.7083C6.01585 12.7013 6.01092 12.6952 6.00674 12.6868C5.99902 12.6779 5.99672 12.669 5.99715 12.6732C5.99811 12.676 6.00578 12.6956 6.01139 12.7237C6.02497 12.7331 6.04367 12.7504 6.05513 12.7555L6.11782 12.7911Z" fill="black"/>
<path d="M19.0028 18.6529C18.9472 18.2272 18.8966 17.9596 18.8966 17.9601C18.8966 17.9601 18.8465 17.692 18.7712 17.2906C18.6917 16.9023 18.5855 16.3835 18.4798 15.8651C18.3745 15.3552 18.281 14.8542 18.2258 14.486C18.1687 14.1169 18.1481 13.8825 18.1481 13.8825C18.1476 13.8825 18.1187 13.6398 18.1163 13.3174C18.1154 13.1598 18.1261 12.9796 18.1546 12.8528C18.1659 12.7981 18.1804 12.7607 18.1879 12.7438C18.3006 12.6461 18.4119 12.5113 18.4985 12.2672C18.5252 12.1895 18.5467 12.0726 18.5453 11.9485C18.5453 11.8316 18.5229 11.7099 18.4747 11.5872C18.4246 11.4578 18.3647 11.3701 18.3001 11.2964C18.258 11.2461 18.2098 11.2019 18.1654 11.1666C18.149 11.0459 18.1481 10.8696 18.1556 10.7182C18.1733 10.3842 18.2098 10.1353 18.2098 10.1353C18.2098 10.1353 18.2393 9.89461 18.3011 9.51967C18.3624 9.1454 18.4587 8.63713 18.5593 8.12086C18.658 7.59623 18.7562 7.07272 18.8311 6.67878C18.8966 6.27296 18.9406 6.00305 18.9406 6.00305C18.9406 6.00305 18.9841 5.73261 19.0276 5.30386C19.0491 5.08938 19.0687 4.83439 19.0706 4.5404C19.0669 4.24287 19.065 3.9191 18.9419 3.49317C18.9143 3.39726 18.8545 3.24638 18.8184 3.17785C18.7801 3.09785 18.7403 3.01786 18.6936 2.93877C18.6046 2.78089 18.497 2.62699 18.3773 2.48475C18.1382 2.19776 17.8337 1.97015 17.5502 1.82929C17.2639 1.6894 17.0094 1.62672 16.8363 1.59703C16.6617 1.5673 16.5635 1.56308 16.5635 1.56308V1.56356C16.5616 1.56356 16.5228 1.56097 16.4629 1.55722C16.432 1.55674 16.3965 1.55583 16.3581 1.55492C16.3207 1.5554 16.2805 1.55631 16.2402 1.55679C16.214 1.55818 16.1883 1.55962 16.163 1.56101C16.1429 1.53761 16.1223 1.51425 16.1008 1.49013C16.0746 1.46136 16.0475 1.43325 16.0222 1.40639C15.996 1.3804 15.9726 1.35657 15.952 1.33647C15.9104 1.29671 15.8818 1.27029 15.8818 1.27029C15.8818 1.27029 15.6582 1.05299 15.2905 0.838275C14.9247 0.617473 14.4213 0.421466 13.9273 0.306125C13.4319 0.187284 12.9467 0.137454 12.5884 0.11736C12.2292 0.0967375 11.9948 0.0999987 11.9948 0.100478L11.9513 0.100958C11.3289 0.106809 10.6917 0.153617 10.0365 0.315237C9.38788 0.480839 8.69646 0.748209 8.09765 1.31733L8.09837 1.31781C8.09674 1.31877 8.07194 1.34381 8.03357 1.38146C8.01439 1.40155 7.99243 1.42567 7.96854 1.45095C7.9449 1.47785 7.92015 1.50663 7.89507 1.53492C7.87497 1.55972 7.85483 1.58475 7.8357 1.60811C7.80505 1.60859 7.77345 1.60907 7.7405 1.6095C7.70309 1.61161 7.66563 1.61348 7.63034 1.61535C7.5948 1.61818 7.5618 1.62048 7.53399 1.62307C7.47692 1.62868 7.43903 1.63266 7.43903 1.63266C7.43903 1.63266 7.34805 1.64106 7.18758 1.67194C7.02759 1.70398 6.79485 1.76129 6.52374 1.88502C6.25498 2.00573 5.94694 2.20174 5.68633 2.47237C5.55512 2.60594 5.43536 2.75725 5.33311 2.91585C5.27954 2.99493 5.23513 3.07632 5.18996 3.15818L5.17312 3.18907L5.14411 3.24988L5.12329 3.29482C5.09845 3.35376 5.06152 3.45107 5.04584 3.50603C4.91741 3.95631 4.92748 4.28497 4.93122 4.5839C4.94177 4.87865 4.96911 5.13288 4.99649 5.34716C5.05188 5.77284 5.10219 6.04026 5.10219 6.04026C5.10219 6.04026 5.15202 6.30806 5.22732 6.70948C5.30683 7.09847 5.41378 7.61681 5.519 8.1352C5.62403 8.64485 5.71784 9.14636 5.77352 9.51434C5.8304 9.88319 5.85092 10.1176 5.85092 10.1176C5.88018 10.4135 5.89327 10.7049 5.87366 10.9405C5.86968 11.0944 5.82757 11.2088 5.81424 11.249C5.74431 11.3103 5.67578 11.3879 5.6049 11.5C5.57569 11.5447 5.53636 11.6244 5.50994 11.7021C5.48375 11.7788 5.46294 11.8542 5.45546 11.9711C5.4367 12.1764 5.49987 12.4169 5.61828 12.5979C5.67909 12.6915 5.76139 12.7739 5.83534 12.8351C5.84397 12.895 5.85006 12.9722 5.85054 13.0606C5.85313 13.2982 5.82762 13.5799 5.7916 13.8643C5.7916 13.8643 5.76234 14.1048 5.70062 14.48C5.63885 14.8543 5.5425 15.3619 5.44145 15.8788C5.34227 16.4032 5.24358 16.9271 5.16943 17.3211C5.10368 17.7267 5.0597 17.9966 5.0597 17.9966C5.0597 17.9966 5.01572 18.267 4.97198 18.6955C4.95098 18.9107 4.93036 19.1652 4.9294 19.4599C4.93266 19.757 4.93477 20.0812 5.05783 20.5064C5.08522 20.6023 5.14507 20.7544 5.18041 20.8212C5.21878 20.9017 5.25854 20.9812 5.30554 21.0607C5.39421 21.2184 5.50179 21.3728 5.62111 21.515C5.86013 21.8022 6.16448 22.0301 6.44844 22.1709C6.73452 22.3117 6.98922 22.3739 7.16284 22.4039C7.33429 22.4333 7.4316 22.4375 7.43438 22.4375C7.43438 22.4375 7.47462 22.4399 7.53639 22.4432C7.56655 22.4441 7.60257 22.4445 7.64046 22.4455C7.67815 22.445 7.71906 22.4445 7.7593 22.4436C7.78548 22.4422 7.81052 22.4408 7.83627 22.4394C7.85637 22.4628 7.87651 22.4867 7.89752 22.5105C7.9249 22.5391 7.95132 22.5671 7.97655 22.5943C8.00254 22.62 8.02638 22.6438 8.04652 22.664C8.08882 22.7032 8.11645 22.7304 8.11645 22.7304C8.11645 22.7304 8.34075 22.947 8.70826 23.1617C9.07457 23.383 9.5777 23.5785 10.072 23.6941C10.5674 23.813 11.0528 23.8625 11.4109 23.8826C11.7701 23.9033 12.005 23.8999 12.005 23.8995C12.0046 23.8995 12.2397 23.9028 12.5985 23.8823C12.9573 23.8621 13.4438 23.8116 13.9407 23.6904C14.4365 23.5711 14.9427 23.3714 15.3104 23.1388C15.6772 22.9139 15.8989 22.6864 15.9008 22.6837C15.9008 22.6837 15.9266 22.658 15.9659 22.6191C15.985 22.5985 16.007 22.5747 16.0309 22.5489C16.0542 22.5227 16.0795 22.4947 16.1038 22.4656C16.1244 22.4404 16.1441 22.4161 16.1637 22.3922C16.1946 22.3922 16.2264 22.3917 16.2582 22.3908C16.2956 22.3885 16.3331 22.3871 16.3686 22.3852C16.4037 22.3824 16.4369 22.3801 16.465 22.3778C16.5221 22.3722 16.5595 22.3675 16.5595 22.3675V22.368C16.5595 22.368 16.6503 22.359 16.8107 22.3277C16.9712 22.2964 17.2037 22.2384 17.4746 22.1158C17.744 21.9951 18.051 21.7991 18.312 21.5273C18.4434 21.394 18.5632 21.2428 18.6647 21.0843C18.718 21.0053 18.7629 20.9243 18.8078 20.842L18.8247 20.811L18.8537 20.7498L18.8743 20.7048C18.9005 20.6454 18.9374 20.5485 18.9529 20.4934C19.0811 20.0433 19.0708 19.7144 19.0671 19.4155C19.0576 19.1207 19.0305 18.8667 19.0028 18.6529ZM18.7712 20.4372C18.7563 20.4873 18.7244 20.571 18.7016 20.6248L18.6809 20.6697L18.6552 20.7235L18.6398 20.7521C18.5977 20.8292 18.5551 20.906 18.5055 20.9804C18.4101 21.1291 18.2983 21.2695 18.1762 21.3939C17.9329 21.6461 17.6476 21.8281 17.3968 21.9413C17.1446 22.0563 16.9262 22.1101 16.7755 22.1405C16.6244 22.1695 16.5379 22.178 16.5379 22.178C16.5379 22.178 16.4967 22.1822 16.434 22.1878C16.4027 22.1901 16.3662 22.1934 16.3269 22.1957C16.288 22.1971 16.2464 22.199 16.2053 22.2004C16.1636 22.2004 16.1224 22.2004 16.0836 22.2004C16.0785 22.2004 16.0738 22.2 16.0691 22.2C16.0672 22.2028 16.0654 22.2051 16.0635 22.2079C16.0392 22.2392 16.014 22.2729 15.9882 22.3057C15.9615 22.3375 15.9344 22.3688 15.9096 22.3983C15.8834 22.4264 15.8596 22.4526 15.839 22.475C15.7968 22.5167 15.7697 22.5439 15.7688 22.5448C15.7688 22.5448 15.5611 22.76 15.2111 22.9752C14.8622 23.196 14.3765 23.3878 13.8956 23.5038C13.4147 23.6212 12.9403 23.6718 12.5885 23.6914C12.2367 23.7115 12.0054 23.7087 12.0054 23.7087C12.0054 23.7087 11.7749 23.7119 11.4229 23.6918C11.0716 23.6727 10.597 23.623 10.117 23.5075C9.63794 23.3966 9.15399 23.2071 8.80614 22.9971C8.45643 22.7926 8.2457 22.5877 8.2457 22.5877C8.2457 22.5877 8.21553 22.5587 8.16968 22.5161C8.14695 22.4932 8.12076 22.4661 8.09295 22.4385C8.08666 22.4315 8.08009 22.424 8.07376 22.417H8.07424L8.07563 22.4165H8.07611C8.07472 22.4161 8.07376 22.4161 8.07237 22.4156C8.05132 22.3922 8.02979 22.3683 8.00758 22.3445C7.97952 22.3113 7.95214 22.2771 7.92524 22.2453C7.92428 22.2439 7.92336 22.243 7.92241 22.2411C7.88404 22.2444 7.84337 22.2477 7.80313 22.2509C7.75915 22.2519 7.71494 22.2533 7.67379 22.2542C7.63216 22.2537 7.59379 22.2532 7.56032 22.2528C7.49366 22.2486 7.449 22.2462 7.449 22.2462V22.2467C7.44574 22.2462 7.35568 22.242 7.1966 22.2153C7.03474 22.1868 6.79892 22.1288 6.5351 21.9997C6.27219 21.8697 5.99077 21.6591 5.7681 21.3911C5.65746 21.2587 5.55545 21.1146 5.47195 20.9649C5.42798 20.8905 5.39057 20.8152 5.35431 20.7389C5.31969 20.673 5.26751 20.5397 5.24156 20.4503C5.12857 20.0596 5.12531 19.7467 5.12181 19.4599C5.1232 19.175 5.14281 18.9256 5.16344 18.7137C5.2067 18.2922 5.25019 18.0241 5.25019 18.0241C5.25019 18.0241 5.29393 17.7556 5.35944 17.3533C5.43311 16.9617 5.53186 16.4382 5.63055 15.9153C5.7316 15.3983 5.82843 14.8888 5.89063 14.5108C5.95356 14.1333 5.98329 13.8882 5.98329 13.8882C6.01955 13.5986 6.04549 13.3114 6.04319 13.0587C6.04319 13.0269 6.04065 12.9979 6.03921 12.9675L6.04923 12.9741L6.12362 13.0195L6.06794 12.9806L6.07168 12.9825L6.09177 12.9918L6.09431 12.9928L6.0665 12.9801L6.03868 12.9605C6.03494 12.8753 6.02861 12.7958 6.01619 12.7416C6.0148 12.735 6.01336 12.7318 6.01173 12.7257C5.94181 12.6789 5.84613 12.5975 5.77947 12.4945C5.68331 12.3467 5.63142 12.1521 5.64729 11.9851C5.65362 11.8906 5.67022 11.8293 5.69175 11.7666C5.71352 11.703 5.74508 11.6375 5.76939 11.601C5.83702 11.4934 5.9032 11.4254 5.97053 11.3711C5.99116 11.3348 6.05686 11.169 6.06506 10.9587C6.08659 10.7037 6.0723 10.4043 6.0419 10.1012C6.0419 10.1012 6.02084 9.86118 5.96305 9.48806C5.90694 9.11566 5.81265 8.6109 5.70762 8.0998C5.60116 7.58194 5.49545 7.06404 5.41589 6.67504C5.34151 6.27641 5.2912 6.01 5.2912 6.01C5.2912 6.01 5.24137 5.74426 5.18641 5.3251C5.15998 5.11504 5.13308 4.86571 5.12258 4.58011C5.11835 4.28982 5.11111 3.97358 5.22852 3.56257C5.24281 3.51231 5.27508 3.42857 5.29753 3.37472L5.3181 3.32983L5.34357 3.27693L5.35925 3.24772C5.40088 3.17075 5.44371 3.09401 5.49402 3.02035C5.58873 2.87139 5.70033 2.73053 5.82311 2.60584C6.06588 2.35344 6.35195 2.17148 6.60249 2.05873C6.85532 1.94435 7.07382 1.88963 7.22422 1.85989C7.3751 1.83064 7.46143 1.82272 7.46143 1.82272C7.46143 1.82272 7.50305 1.81826 7.56574 1.81217C7.59686 1.81006 7.63379 1.80723 7.67264 1.80445C7.71148 1.80306 7.75311 1.80143 7.79474 1.79999C7.83589 1.79999 7.87708 1.79999 7.91588 1.79999C7.92125 1.79999 7.92547 1.80047 7.93037 1.80047C7.93224 1.79764 7.93411 1.79534 7.93598 1.79251C7.96058 1.76119 7.98581 1.72772 8.01132 1.69472C8.03823 1.66312 8.06489 1.63156 8.09036 1.60207C8.11611 1.57353 8.14019 1.54758 8.16076 1.52514C8.20239 1.48351 8.22973 1.45613 8.23116 1.45474C8.79286 0.920093 9.45435 0.660924 10.0829 0.500934C10.7172 0.344684 11.3413 0.297924 11.9522 0.292073L11.9948 0.291594C11.9948 0.291594 12.2255 0.288333 12.5773 0.308427C12.9286 0.327611 13.4035 0.37696 13.8825 0.492253C14.3625 0.603853 14.8458 0.792619 15.1934 1.00287C15.5433 1.20756 15.7538 1.4122 15.7538 1.4122C15.7538 1.4122 15.7842 1.44121 15.8301 1.48447C15.8526 1.50692 15.8792 1.53382 15.9068 1.56188C15.9129 1.56869 15.9195 1.57641 15.9265 1.58365H15.9255H15.9241C15.9251 1.58413 15.926 1.58413 15.927 1.58413C15.9485 1.60753 15.97 1.63161 15.9919 1.65549C16.0205 1.68892 16.0481 1.72311 16.0748 1.75467C16.0757 1.75606 16.0766 1.75702 16.0776 1.75889C16.116 1.75563 16.1562 1.75328 16.1974 1.74978C16.2404 1.74839 16.2848 1.74695 16.326 1.74604C16.3677 1.74652 16.4065 1.747 16.4397 1.74743C16.5057 1.75141 16.5487 1.75376 16.5497 1.75376C16.5497 1.75376 16.6414 1.75798 16.8037 1.78488C16.9646 1.81318 17.2009 1.87116 17.4647 2.00032C17.7272 2.13014 18.0083 2.34044 18.2315 2.60824C18.3428 2.74157 18.4443 2.8852 18.5281 3.03469C18.572 3.10907 18.6095 3.18461 18.6455 3.26086C18.681 3.32729 18.733 3.46013 18.7587 3.54972C18.8715 3.94058 18.8752 4.25332 18.8789 4.53987C18.8775 4.82432 18.8574 5.07389 18.8368 5.28582C18.7938 5.70733 18.7507 5.97561 18.7507 5.97561C18.7507 5.97561 18.7077 6.2439 18.6418 6.64579C18.5683 7.03804 18.4701 7.56132 18.3709 8.08436C18.2708 8.60131 18.1735 9.11096 18.1118 9.48897C18.049 9.86698 18.0201 10.1117 18.0201 10.1117C18.0196 10.1117 17.9827 10.3626 17.9644 10.7091C17.9593 10.8155 17.9597 10.9299 17.9649 11.0391C17.962 11.0378 17.9593 11.0359 17.9564 11.0344L17.9649 11.0405C17.9677 11.1048 17.9705 11.1704 17.9794 11.2242C17.9817 11.2408 17.9845 11.2572 17.9878 11.2719C17.9892 11.2726 17.9911 11.273 17.992 11.274C18.0281 11.296 18.1015 11.3577 18.1548 11.4214C18.2068 11.4817 18.2559 11.5533 18.2971 11.6581C18.3364 11.7578 18.3541 11.8565 18.3541 11.9519C18.3551 12.052 18.3382 12.147 18.3158 12.2115C18.246 12.409 18.1539 12.5208 18.0617 12.6017C18.0135 12.6359 17.8428 12.758 17.8713 12.7379L17.9256 12.7065C17.9602 12.6832 17.9958 12.6579 18.0323 12.6298C18.0351 12.6265 18.0388 12.6204 18.0393 12.619H18.0388C18.051 12.6101 18.0557 12.6069 18.0618 12.6026C18.052 12.6115 18.0426 12.6218 18.0323 12.6302C18.0295 12.634 18.0276 12.6354 18.023 12.6452C18.0061 12.6765 17.9841 12.7378 17.9682 12.8127C17.935 12.9623 17.9242 13.1528 17.9252 13.3189C17.928 13.6557 17.9575 13.9022 17.9575 13.9027C17.9575 13.9027 17.979 14.1427 18.037 14.5155C18.0932 14.8884 18.1872 15.3927 18.2924 15.904C18.3987 16.4214 18.5044 16.9393 18.5839 17.3285C18.6583 17.7271 18.7088 17.9933 18.7088 17.9933C18.7088 17.9933 18.7583 18.2595 18.8136 18.6786C18.8403 18.8882 18.8665 19.138 18.8772 19.423C18.8807 19.7101 18.8882 20.0264 18.7712 20.4372ZM6.02919 12.9614L6.03015 12.9619L6.03063 12.9623L6.02919 12.9614ZM6.0383 12.9656C6.0383 12.9651 6.0383 12.9651 6.0383 12.9656L6.057 12.9745L6.0383 12.9656Z" fill="black"/>
<path d="M17.9507 11.2662L17.9581 11.2714C17.9666 11.2786 17.9741 11.2877 17.9806 11.2964C17.9918 11.3065 17.9993 11.3226 18.0021 11.3252C18.0106 11.3448 17.9984 11.3165 17.9881 11.2726C17.9465 11.2438 17.9016 11.2187 17.8562 11.1973L17.9507 11.2662Z" fill="black"/>
<path d="M17.8206 11.1721L17.8196 11.1764V11.1778L17.8192 11.1787L17.8467 11.1911C17.8495 11.1927 17.8522 11.1945 17.854 11.1954L17.8205 11.1708V11.1721H17.8206Z" fill="black"/>
<path d="M17.9134 11.0043L17.9083 11.0021L17.8965 11.0012H17.8937L17.8918 11.0016L17.9267 11.0177C17.9371 11.0224 17.946 11.0293 17.9569 11.0347L17.9154 11.0043H17.9134V11.0043Z" fill="black"/>
<path d="M7.83052 1.9491C7.82515 1.95773 7.82093 1.96454 7.81786 1.96828L7.81503 1.97365L7.81407 1.97456V1.97504C7.87891 1.90934 7.91095 1.87682 7.91095 1.87682C7.91095 1.87682 7.98226 1.85438 8.12451 1.81016H8.12403L8.12264 1.80968L8.11679 1.8092C8.11209 1.8092 8.10533 1.80824 8.09621 1.80781C8.07823 1.8069 8.05272 1.80551 8.02159 1.80407C7.99468 1.80268 7.96313 1.80148 7.93061 1.80057C7.91004 1.82977 7.88989 1.85855 7.87306 1.88267C7.85532 1.90977 7.84059 1.93341 7.83052 1.9491Z" fill="black"/>
<path d="M8.04082 22.2271C8.07237 22.2224 8.09928 22.2181 8.11846 22.2158C8.12781 22.2145 8.13458 22.213 8.13999 22.2121L8.14561 22.2112H8.147H8.14748C7.99056 22.1794 7.91195 22.163 7.91195 22.163C7.91195 22.163 7.87171 22.1279 7.7922 22.0591L7.79316 22.0601L7.79642 22.0652C7.79992 22.0699 7.80366 22.0764 7.80903 22.0849C7.82049 22.1012 7.83714 22.1246 7.85627 22.1532C7.87545 22.1789 7.89862 22.2088 7.92245 22.2406C7.9248 22.2406 7.92807 22.2406 7.93113 22.2402C7.97089 22.2355 8.00878 22.2313 8.04082 22.2271Z" fill="black"/>
<path d="M7.79172 22.0591L7.7922 22.0596V22.0591H7.79172Z" fill="black"/>
<path d="M16.1692 22.0502C16.1748 22.0418 16.1785 22.0362 16.1814 22.0315L16.1842 22.0264L16.1852 22.025C16.1206 22.09 16.0883 22.1227 16.0883 22.1227C16.0883 22.1227 16.0176 22.1452 15.8755 22.1892H15.8764L15.8774 22.1896H15.883C15.8881 22.1901 15.8952 22.191 15.904 22.192C15.9223 22.193 15.948 22.1943 15.9784 22.1962C16.0055 22.1972 16.0374 22.1981 16.0692 22.1995C16.0902 22.1696 16.1104 22.1415 16.1267 22.1176C16.1445 22.0896 16.1589 22.0661 16.1692 22.0502Z" fill="black"/>
<path d="M16.1852 22.025V22.0254L16.1856 22.025H16.1852Z" fill="black"/>
<path d="M15.9587 1.77247C15.9264 1.77717 15.8998 1.78139 15.8811 1.78393C15.8712 1.78532 15.8642 1.78671 15.8596 1.78767L15.853 1.78863H15.8516V1.78911C16.0088 1.82023 16.0879 1.83659 16.0879 1.83659C16.0879 1.83659 16.1276 1.87164 16.2067 1.93999L16.2062 1.93951L16.203 1.93437C16.2001 1.92948 16.1955 1.92339 16.1899 1.91471C16.1787 1.89836 16.1628 1.87495 16.1431 1.84666C16.1239 1.82114 16.101 1.79122 16.0776 1.75894C16.0748 1.75894 16.0715 1.75942 16.0687 1.75942C16.0284 1.76474 15.991 1.76849 15.9587 1.77247Z" fill="black"/>
<path d="M16.2076 1.9409L16.2066 1.93994L16.2071 1.9409H16.2076Z" fill="black"/>
<path d="M17.0843 12.4908L17.074 12.4847L17.0689 12.4814L16.9356 12.385L16.9122 12.362L16.8589 12.305C16.8883 12.3616 16.9187 12.4093 16.9492 12.4472C16.9955 12.5034 17.0638 12.5558 17.0867 12.5726C17.1045 12.5848 17.1251 12.5946 17.1447 12.6049L17.1826 12.625L17.2051 12.6362L17.2107 12.6391C17.2163 12.6152 17.2247 12.5941 17.2322 12.5712L17.2261 12.5689C17.2064 12.5609 17.1891 12.5483 17.1704 12.538L17.1265 12.5146L17.0843 12.4908Z" fill="black"/>
<path d="M6.85278 11.3893L6.87618 11.4016C6.88203 11.4052 6.89206 11.4124 6.90074 11.4185L6.94097 11.4424L7.1143 11.5637L7.11617 11.5656L7.12015 11.5689L7.12763 11.5766L7.14211 11.5909L7.17137 11.6201L7.22729 11.6805C7.26004 11.7198 7.28954 11.7595 7.31827 11.8007C7.34469 11.84 7.36109 11.8774 7.38215 11.9167C7.4079 11.8555 7.43011 11.7956 7.44809 11.738C7.52295 11.5013 7.55312 11.2868 7.57134 11.0821C7.60338 10.6751 7.58046 10.3081 7.54631 9.94975C7.54631 9.94975 7.52056 9.66464 7.4572 9.25718C7.39543 8.84785 7.29534 8.31661 7.18844 7.79545C7.08274 7.28104 6.97723 6.76645 6.89863 6.38028C6.82774 6.00179 6.78098 5.74987 6.78098 5.74987C6.78098 5.74987 6.73303 5.49746 6.68555 5.13187C6.66262 4.94987 6.64109 4.74005 6.63385 4.53023C6.62473 4.32511 6.64109 4.10565 6.6736 4.00556C6.67782 3.99319 6.67058 4.01468 6.67125 4.00556L6.69068 3.96207L6.68694 3.96888L6.68646 3.96984C6.6832 3.97641 6.71384 3.91416 6.70027 3.94106L6.69888 3.94389L6.69605 3.94974L6.69135 3.96072L6.69509 3.95487C6.71662 3.91651 6.73624 3.87766 6.76012 3.84423C6.80477 3.77431 6.85369 3.71345 6.90587 3.66132C7.00692 3.55538 7.11895 3.48401 7.22911 3.43419C7.44852 3.33405 7.64031 3.32307 7.64031 3.32307C7.64031 3.32307 7.68803 3.31908 7.76011 3.31299C7.79685 3.31251 7.8401 3.3116 7.88595 3.31112C7.93247 3.31347 7.98139 3.31582 8.03122 3.31861L8.1021 3.32681L8.16527 3.33683C8.27845 3.36373 8.38372 3.38829 8.47426 3.40982C8.73108 3.47202 8.90253 3.51322 8.90253 3.51322C8.90253 3.51322 8.94512 3.34268 9.00991 3.08538C9.0256 3.02174 9.04291 2.95182 9.06113 2.87839L9.07495 2.82247L9.07543 2.8206L9.07403 2.82386L9.07356 2.82434V2.82482H9.07308L9.07356 2.82386L9.07658 2.81518L9.08219 2.79413L9.07538 2.82055L9.08406 2.80137L9.10319 2.76487L9.1278 2.72464L9.157 2.68392C9.17854 2.65654 9.19911 2.63174 9.21642 2.61021C9.25757 2.56647 9.28472 2.53817 9.28472 2.53817L9.2852 2.53865C9.5507 2.27901 9.97758 2.08228 10.4461 1.96814C10.9169 1.85093 11.4349 1.80767 11.9588 1.80393L11.9953 1.80345C11.9953 1.80297 12.196 1.80043 12.4902 1.81726C12.784 1.83318 13.1714 1.87524 13.5311 1.96253C13.8923 2.04674 14.2193 2.17935 14.4261 2.30543C14.6357 2.42892 14.7376 2.53117 14.7376 2.53117C14.7376 2.53117 14.7456 2.53865 14.7592 2.55223C14.7727 2.56556 14.7919 2.58474 14.8153 2.60767C14.8256 2.61913 14.8378 2.63222 14.8495 2.64555L14.8845 2.68766L14.9182 2.73279L14.9476 2.77773L14.9715 2.81844L14.9827 2.84209L14.9762 2.8194L14.9827 2.8395L14.985 2.84722V2.84487L14.9827 2.84113L14.9855 2.84981L15.0024 2.91014C15.0258 2.98966 15.0473 3.06428 15.067 3.13377C15.146 3.41073 15.1989 3.59552 15.1989 3.59552C15.1989 3.59552 15.3785 3.52814 15.6489 3.42733C15.7163 3.40205 15.7893 3.37515 15.867 3.34637C15.8978 3.33491 15.9316 3.32297 15.9657 3.31055L16.0214 3.29559L16.0855 3.28225L16.1519 3.2717L16.2169 3.26355C16.2581 3.26168 16.2964 3.25981 16.3297 3.2577C16.362 3.25818 16.3886 3.25909 16.4073 3.25909C16.4256 3.26072 16.4368 3.2612 16.4368 3.2612C16.4378 3.2612 16.6057 3.26403 16.7904 3.35357C16.8826 3.40153 16.9813 3.47102 17.0777 3.58492C17.1254 3.64199 17.1731 3.70774 17.2162 3.78611C17.2395 3.82308 17.2592 3.86514 17.2803 3.90797C17.3055 3.95756 17.2985 3.95099 17.3126 3.98796C17.3509 4.10609 17.3687 4.32809 17.3669 4.53392C17.3664 4.74422 17.3509 4.95543 17.3322 5.13763C17.2957 5.5037 17.2555 5.75562 17.2555 5.75562C17.2555 5.75562 17.2143 6.00755 17.1534 6.38599C17.0809 6.77057 16.9841 7.28325 16.8873 7.79578C16.7862 8.31364 16.6866 8.83975 16.6201 9.24154C16.5537 9.64339 16.5201 9.92179 16.5201 9.92179C16.5201 9.92179 16.478 10.1919 16.4536 10.6347C16.4452 10.8593 16.4349 11.1217 16.4859 11.4639C16.5107 11.598 16.5378 11.7458 16.6146 11.9208C16.6174 11.9161 16.6183 11.9118 16.6201 11.9072C16.6726 11.8057 16.7436 11.699 16.8274 11.5975L16.8962 11.5217L16.9327 11.4855L16.942 11.4759L16.9463 11.4709L16.9486 11.4686C16.8649 11.5285 16.9276 11.4836 17.0015 11.4307C17.0338 11.4024 17.0656 11.379 17.0936 11.3584L17.1301 11.3383C17.1507 11.3245 17.0712 11.3809 17.001 11.4308C16.9346 11.4874 16.8649 11.5696 16.8036 11.7398C16.8027 11.7435 16.8013 11.7495 16.7999 11.7542C16.8266 11.7173 16.8523 11.6799 16.8822 11.6438L16.9482 11.5723L16.9824 11.5367L16.9917 11.5281L16.9954 11.5238L16.9983 11.5213C16.9206 11.5764 16.9805 11.5334 17.0492 11.4845C17.0778 11.459 17.1063 11.438 17.1311 11.4197L17.1634 11.4019C17.1816 11.3891 17.1115 11.4393 17.0492 11.4845C16.9903 11.5344 16.9276 11.6083 16.8728 11.7612C16.8588 11.8085 16.8415 11.8861 16.8424 11.968C16.8448 12.0452 16.8579 12.1266 16.8897 12.2094C16.9262 12.2964 16.9645 12.3535 17.0038 12.4013C17.045 12.4518 17.1072 12.4981 17.1278 12.5135C17.1409 12.5229 17.1563 12.5289 17.1704 12.5378L17.2115 12.5594L17.2321 12.5702C17.2878 12.3853 17.3617 12.2235 17.4782 12.114C17.5156 12.0794 17.539 12.0452 17.5493 12.0139C17.6316 11.9709 17.6316 11.9273 17.5316 11.8848C17.5194 11.8797 17.5086 11.8712 17.4969 11.8637C17.4763 11.8465 17.4501 11.8282 17.4183 11.8123C16.4696 10.9552 18.6739 5.16971 17.9769 3.62775C17.2526 2.03154 15.6967 2.61117 15.6967 2.61117C15.6967 2.61117 15.2509 1.05438 11.9986 1.05438C8.74489 1.05438 8.3559 2.61126 8.3559 2.61126C8.3559 2.61126 6.7431 2.22227 6.02055 3.62784C5.37541 4.88326 7.24791 9.54838 6.78895 11.3586L6.7899 11.3591L6.80252 11.3644L6.82731 11.3759L6.84132 11.3836L6.84693 11.3864L6.85278 11.3893Z" fill="black"/>
<path d="M16.6567 12.0061C16.6689 12.0313 16.6782 12.0543 16.6932 12.08C16.725 12.1394 16.7737 12.2058 16.8228 12.2676L16.8579 12.305C16.8462 12.2825 16.8345 12.2624 16.8228 12.2353C16.7877 12.1441 16.7728 12.0538 16.7709 11.9682C16.7695 11.884 16.7858 11.8068 16.8013 11.7539C16.7568 11.8166 16.7166 11.8793 16.6853 11.9406C16.6735 11.9635 16.6674 11.9841 16.6567 12.0061Z" fill="black"/>
<path d="M7.25837 11.8409C7.23074 11.8021 7.20341 11.7642 7.17228 11.7273L7.12715 11.6791C7.19708 11.8049 7.23683 11.9574 7.22585 12.0889C7.21957 12.1563 7.2095 12.2007 7.19708 12.2433C7.25554 12.1604 7.3035 12.0772 7.34282 11.9944C7.31731 11.9443 7.29347 11.8933 7.25837 11.8409Z" fill="black"/>
<path d="M6.81442 11.4505L6.83873 11.4636C6.84084 11.4646 6.84554 11.4688 6.84736 11.4697L6.90774 11.5067L7.06634 11.6169L7.06822 11.6182L7.0722 11.622L7.07877 11.6286L7.09277 11.6421L7.12015 11.6697L7.12855 11.6791C7.11896 11.6627 7.11661 11.6426 7.10562 11.6271C7.04903 11.5326 6.95474 11.4554 6.90117 11.4189L6.86655 11.3979L6.85365 11.3892L6.84267 11.3829L6.79029 11.3586C6.78372 11.3825 6.776 11.4042 6.76876 11.4271L6.77461 11.4295L6.79706 11.4395L6.81442 11.4505Z" fill="black"/>
<path d="M17.2106 12.6404L17.1966 12.6348C17.1788 12.6264 17.1624 12.6152 17.1451 12.6049L17.0937 12.5778L17.0492 12.5539L17.0384 12.5469L17.0329 12.5437L16.8873 12.438L16.8625 12.4141C16.8297 12.3818 16.797 12.3472 16.768 12.314C16.7156 12.248 16.6651 12.1783 16.631 12.1161C16.6263 12.1076 16.624 12.1011 16.6202 12.0931C16.5627 12.2321 16.5182 12.3654 16.492 12.4866C16.4209 12.8187 16.4143 13.0919 16.4134 13.3198C16.4171 13.7726 16.4536 14.0496 16.4536 14.0496C16.4536 14.0496 16.4789 14.3344 16.5429 14.742C16.6047 15.1513 16.7048 15.6823 16.812 16.2039C16.9167 16.718 17.0225 17.2326 17.1015 17.6186C17.1722 17.9971 17.2189 18.2492 17.2189 18.2492C17.2189 18.2492 17.2666 18.5019 17.3144 18.8672C17.3368 19.0492 17.3583 19.2592 17.3658 19.4688C17.3742 19.6733 17.3574 19.8927 17.3255 19.9928C17.3213 20.0059 17.3284 19.9844 17.3284 19.9928L17.3092 20.0354L17.3125 20.0293L17.3135 20.0283C17.3065 20.0419 17.3031 20.0484 17.3013 20.0531L17.3008 20.055L17.3003 20.056C17.3003 20.0555 17.3013 20.0536 17.3013 20.0531L17.3031 20.0489L17.3083 20.0382L17.3097 20.0353L17.3045 20.0437C17.2831 20.0821 17.2629 20.1209 17.2395 20.1542C17.1946 20.2248 17.1455 20.2856 17.0936 20.3376C16.9925 20.4433 16.8802 20.5148 16.7703 20.5644C16.5509 20.665 16.3591 20.6758 16.3591 20.6758C16.3591 20.6758 16.3109 20.68 16.2393 20.6856C16.2028 20.686 16.1598 20.687 16.114 20.6874C16.0672 20.6851 16.0186 20.6823 15.969 20.68L15.8979 20.6716L15.8352 20.6617C15.722 20.6346 15.6162 20.6098 15.526 20.5883C15.2692 20.5265 15.0979 20.4849 15.0979 20.4849C15.0979 20.4849 15.0549 20.6561 14.9903 20.9125C14.9744 20.9771 14.9575 21.0458 14.9389 21.1197L14.9248 21.1754L14.9239 21.1801L14.9262 21.1745L14.9267 21.1731V21.1736L14.9262 21.1746L14.923 21.1829L14.9173 21.204L14.9239 21.1801L14.9155 21.197L14.8967 21.2335L14.8719 21.2737L14.8425 21.3144C14.8209 21.3416 14.8004 21.3664 14.7835 21.3884C14.7424 21.4305 14.7143 21.459 14.7143 21.4595C14.7143 21.4595 14.6208 21.56 14.4177 21.6863C14.2184 21.8145 13.8947 21.9474 13.5363 22.0344C13.1789 22.1219 12.792 22.1645 12.4982 22.1813C12.2039 22.1981 12.0035 22.1958 12.0035 22.1953C12.0035 22.1958 11.8028 22.1981 11.5086 22.1813C11.2145 22.1654 10.8274 22.1233 10.4677 22.0363C10.106 21.9521 9.7788 21.8192 9.57272 21.6934C9.36242 21.5694 9.26094 21.4674 9.26094 21.4674C9.26094 21.4674 9.25278 21.46 9.23897 21.4464C9.2254 21.4333 9.20646 21.4141 9.18329 21.3907C9.17279 21.3795 9.16085 21.3664 9.14891 21.3533L9.11385 21.3126L9.08042 21.2672L9.05069 21.2223L9.0268 21.1816L9.01558 21.1586L9.02186 21.1811L9.01558 21.161L9.01323 21.1535L9.01371 21.1549L9.01558 21.1586L9.01323 21.1497L8.99592 21.0894C8.97299 21.0099 8.95146 20.9354 8.93184 20.8657C8.85276 20.5893 8.80015 20.4045 8.80015 20.4045C8.80015 20.4045 8.62006 20.4714 8.34986 20.5724C8.28229 20.5977 8.20906 20.6248 8.13189 20.6538C8.10077 20.665 8.0671 20.6777 8.03271 20.6894L7.97751 20.7043L7.91296 20.7178L7.8463 20.7282L7.78174 20.7366C7.74059 20.7385 7.70223 20.7408 7.66856 20.7422C7.63696 20.7417 7.61029 20.7412 7.59159 20.7408C7.57336 20.7399 7.56233 20.7389 7.56233 20.7389C7.56094 20.7389 7.39323 20.7366 7.2082 20.6463C7.11675 20.599 7.018 20.5289 6.92189 20.4157C6.87441 20.3581 6.82645 20.2921 6.78343 20.214C6.76027 20.177 6.74018 20.1349 6.71955 20.0919C6.6938 20.0409 6.70109 20.0484 6.68704 20.0114C6.64867 19.893 6.63093 19.6713 6.63256 19.4654C6.63351 19.255 6.64915 19.0439 6.66742 18.862C6.70392 18.4957 6.74416 18.244 6.74459 18.244C6.74459 18.244 6.7853 17.9918 6.84703 17.6138C6.9193 17.2292 7.01661 16.716 7.11349 16.2038C7.21502 15.6859 7.31463 15.1601 7.38086 14.7578C7.44824 14.3559 7.48191 14.0776 7.48191 14.0776C7.52262 13.7487 7.55605 13.4142 7.55418 13.0436C7.55092 12.8565 7.5432 12.6633 7.4962 12.435C7.47514 12.3269 7.44076 12.2058 7.3846 12.0748C7.30599 12.2287 7.2012 12.3859 7.04965 12.5328L7.00568 12.5637C7.04217 12.529 7.07982 12.4851 7.12452 12.4182C7.14039 12.3906 7.17056 12.3354 7.18859 12.2807C7.19305 12.269 7.19583 12.2559 7.19866 12.2437C7.14274 12.3242 7.07939 12.4042 7.00054 12.48L6.95728 12.5109C6.98932 12.48 7.02395 12.4406 7.06323 12.3808C7.07704 12.356 7.10485 12.3059 7.12126 12.2568C7.13694 12.2086 7.14835 12.1619 7.15564 12.0837C7.16619 11.9494 7.12735 11.7852 7.04548 11.666C6.98937 11.5703 6.88923 11.4957 6.84803 11.4697L6.83427 11.461L6.81552 11.4505L6.81504 11.45L6.76847 11.428C6.71255 11.613 6.63817 11.7754 6.52148 11.8848C6.48499 11.9204 6.46158 11.9545 6.45132 11.9855C6.36897 12.0289 6.36806 12.072 6.46911 12.1141C6.48173 12.1197 6.4918 12.1286 6.50374 12.1361C6.52431 12.1539 6.55055 12.1707 6.58143 12.1871C7.53087 13.0441 5.32577 18.8297 6.02473 20.3716C6.74751 21.9683 8.30397 21.3882 8.30397 21.3882C8.30397 21.3882 8.7496 22.9451 12.0024 22.9451C15.2554 22.9451 15.6451 21.3882 15.6451 21.3882C15.6451 21.3882 17.2567 21.7774 17.98 20.3716C18.6239 19.117 16.7507 14.4509 17.2106 12.6404Z" fill="black"/>
<path d="M16.383 10.6314C16.4073 10.1839 16.449 9.91236 16.449 9.91236C16.449 9.91236 16.4831 9.63261 16.55 9.22981C16.6165 8.82628 16.7165 8.30051 16.8175 7.7826C16.9139 7.27036 17.0103 6.75739 17.0833 6.37377C17.1446 5.99672 17.1853 5.74527 17.1853 5.74527C17.1853 5.74527 17.2255 5.49358 17.262 5.13058C17.2798 4.94997 17.2948 4.74111 17.2957 4.53407C17.2976 4.33197 17.2789 4.11443 17.2442 4.00868C17.2312 3.97454 17.2405 3.98811 17.2153 3.93876C17.1957 3.8978 17.176 3.85665 17.1544 3.82183C17.1133 3.74697 17.0674 3.68525 17.0235 3.63168C16.9337 3.52478 16.8434 3.4621 16.7587 3.41836C16.5894 3.33553 16.4308 3.33275 16.4308 3.33275C16.4303 3.33275 16.4209 3.33227 16.4036 3.33136C16.3854 3.33088 16.3592 3.3304 16.3283 3.32997C16.3124 3.33045 16.2956 3.33093 16.2769 3.33136C16.2582 3.33275 16.2395 3.33414 16.2189 3.33601L16.1561 3.34373L16.0912 3.35472L16.0294 3.36829L15.9794 3.38162C15.8456 3.43145 15.7202 3.47773 15.6131 3.51754C15.3365 3.62118 15.1513 3.68966 15.1513 3.68966C15.1513 3.68966 15.098 3.49994 15.0166 3.21621C14.9959 3.14533 14.9735 3.06816 14.9506 2.98673C14.9398 2.94836 14.9281 2.90932 14.9164 2.86837L14.8902 2.81902L14.8631 2.77739L14.8318 2.7348L14.7986 2.69456C14.7869 2.68171 14.7752 2.66905 14.7654 2.65759C14.7546 2.64661 14.7443 2.63605 14.7359 2.62694C14.7261 2.61783 14.7182 2.61035 14.7107 2.60354C14.6976 2.59116 14.6892 2.58388 14.6892 2.58388C14.6892 2.58388 14.5933 2.48705 14.3898 2.36729C14.19 2.24519 13.8705 2.11585 13.5145 2.03259C13.1603 1.94674 12.7776 1.90511 12.4866 1.88919C12.1952 1.87255 11.9959 1.87538 11.9959 1.87538L11.9599 1.87586C11.4396 1.88008 10.9272 1.92286 10.4641 2.0382C10.003 2.1498 9.58739 2.34442 9.33594 2.59073C9.33431 2.59073 9.30855 2.61788 9.2688 2.65903C9.25196 2.6796 9.2323 2.70416 9.21177 2.72967L9.1853 2.7678L9.16334 2.80525L9.14458 2.84266C9.13547 2.87844 9.1266 2.91445 9.11792 2.94908C9.09921 3.02414 9.08142 3.0955 9.06502 3.16125C8.99908 3.42416 8.95486 3.60007 8.95486 3.60007C8.95486 3.60007 8.77967 3.55773 8.51604 3.49413C8.41264 3.46886 8.29197 3.44008 8.16215 3.40901L8.10321 3.39941L8.03376 3.39126L7.96197 3.38541L7.89152 3.38306C7.84591 3.38402 7.80337 3.38445 7.76683 3.38493C7.69594 3.3903 7.64894 3.39452 7.64894 3.39452C7.64894 3.39452 7.46464 3.40507 7.25904 3.50003C7.15564 3.54636 7.05224 3.61254 6.95728 3.71124C6.90836 3.75968 6.863 3.81651 6.82089 3.88317C6.7982 3.91478 6.77902 3.95219 6.75892 3.98868L6.7547 3.99664L6.736 4.03592C6.73648 4.04268 6.74607 4.01626 6.74233 4.02748C6.71447 4.11218 6.69624 4.32689 6.70492 4.5276C6.71264 4.73343 6.73413 4.94138 6.75662 5.122C6.8041 5.48524 6.85043 5.73716 6.85043 5.73716C6.85043 5.73716 6.89791 5.98813 6.96831 6.36614C7.04735 6.75211 7.15286 7.26671 7.25813 7.78131C7.36503 8.30296 7.4656 8.83511 7.52785 9.24607C7.59125 9.65587 7.61695 9.94267 7.61695 9.94267C7.65158 10.3034 7.67494 10.6739 7.64242 11.0886C7.62372 11.297 7.59355 11.516 7.51586 11.7602C7.49202 11.8345 7.46047 11.9136 7.4244 11.9936C7.42977 12.0044 7.43864 12.0179 7.44358 12.0286C7.50675 12.1737 7.54324 12.3037 7.5666 12.4197C7.61456 12.656 7.62276 12.8525 7.62554 13.0424C7.62741 13.4185 7.59393 13.7558 7.55279 14.0861C7.55279 14.0861 7.51907 14.3668 7.45174 14.7696C7.38507 15.1729 7.28494 15.6992 7.18389 16.2171C7.08706 16.7294 6.99023 17.2421 6.91704 17.6257C6.85618 18.0028 6.81504 18.254 6.81504 18.254C6.81504 18.254 6.7748 18.5057 6.7383 18.8687C6.72051 19.0493 6.70487 19.2584 6.70392 19.4652C6.70205 19.6678 6.72118 19.8853 6.75605 19.9906C6.76842 20.0247 6.75931 20.0102 6.78482 20.0607C6.80492 20.1019 6.82367 20.1426 6.84607 20.1776C6.88678 20.2526 6.93239 20.3138 6.97685 20.3681C7.06644 20.4752 7.1565 20.5379 7.24048 20.5814C7.41006 20.6637 7.56842 20.6665 7.56842 20.6665C7.56842 20.6665 7.57849 20.667 7.5958 20.6679C7.61403 20.6684 7.63997 20.6689 7.67067 20.6698C7.6863 20.6693 7.70409 20.6684 7.72189 20.6679C7.74059 20.6665 7.76025 20.6651 7.78083 20.6632L7.84351 20.6557L7.90758 20.6445L7.96955 20.6309L8.01981 20.6179C8.15337 20.5678 8.27898 20.5215 8.38612 20.4817C8.66308 20.3783 8.8481 20.3096 8.8481 20.3096C8.8481 20.3096 8.90167 20.4995 8.98306 20.783C9.0032 20.8541 9.02565 20.9308 9.04881 21.0122C9.05979 21.0506 9.07125 21.0899 9.08276 21.1306L9.10919 21.1802L9.13585 21.2218L9.1677 21.2644L9.20113 21.3046C9.21259 21.3177 9.22405 21.3299 9.23412 21.3416C9.24467 21.3528 9.25474 21.3631 9.26386 21.3725C9.27345 21.3814 9.28165 21.3888 9.28889 21.3958C9.30222 21.4085 9.31038 21.4165 9.31038 21.4165C9.31038 21.4165 9.40629 21.5133 9.61026 21.633C9.81006 21.7552 10.1296 21.8847 10.4851 21.9676C10.8395 22.0536 11.2224 22.0953 11.5136 22.1112C11.8049 22.1276 12.0041 22.1248 12.0041 22.1248C12.0041 22.1248 12.2032 22.1271 12.4946 22.1102C12.7861 22.0953 13.1678 22.0522 13.5206 21.9656C13.8724 21.8805 14.1891 21.7495 14.3814 21.6265C14.576 21.5054 14.664 21.4104 14.6649 21.4095C14.6649 21.4095 14.6916 21.3818 14.7318 21.3403C14.7482 21.3196 14.7678 21.2953 14.7884 21.2696L14.8146 21.2312L14.8371 21.1942L14.8568 21.1545C14.8661 21.1189 14.874 21.0843 14.8829 21.0501C14.9016 20.9752 14.9194 20.9037 14.9363 20.8387C15.0017 20.5758 15.0457 20.4003 15.0457 20.4003C15.0457 20.4003 15.2207 20.4429 15.4845 20.5065C15.5879 20.5313 15.7086 20.5603 15.8382 20.5912L15.8962 20.601L15.9664 20.6095L16.0384 20.6156L16.1081 20.6179C16.1535 20.6174 16.1966 20.6169 16.2321 20.6165C16.3032 20.6099 16.35 20.6062 16.35 20.6062C16.35 20.6062 16.5352 20.5954 16.7401 20.501C16.8431 20.4542 16.9474 20.3877 17.0419 20.289C17.0901 20.2409 17.1359 20.1838 17.1781 20.1174C17.201 20.0856 17.2202 20.0481 17.2407 20.0121L17.244 20.006L17.2627 19.9648C17.2623 19.9583 17.2529 19.985 17.2567 19.9733C17.2852 19.8886 17.3025 19.6739 17.2941 19.4732C17.2861 19.2673 17.2651 19.0596 17.2421 18.8786C17.1949 18.5156 17.1481 18.2639 17.1481 18.2639C17.1481 18.2639 17.1009 18.0127 17.0302 17.6347C16.9516 17.2488 16.8459 16.7342 16.7411 16.2195C16.6335 15.6983 16.5334 15.166 16.4712 14.7548C16.4075 14.3454 16.3818 14.0582 16.3818 14.0582C16.3818 14.0582 16.3453 13.7798 16.3407 13.3214C16.3421 13.0907 16.3487 12.8133 16.4212 12.4732C16.4521 12.3324 16.5035 12.1757 16.5774 12.0096C16.4783 11.8 16.4441 11.6288 16.4156 11.4768C16.3629 11.124 16.375 10.859 16.383 10.6314ZM10.1111 15.5405C11.236 11.4723 10.1111 15.5405 11.236 11.4723C10.5404 11.1914 10.0489 10.5093 10.0489 9.71304C10.0489 8.66581 10.8978 7.81694 11.945 7.81694C12.9927 7.81694 13.8413 8.66581 13.8413 9.71304C13.8413 10.4265 13.4479 11.0473 12.8664 11.371C13.9494 15.5404 13.9494 15.5404 13.9494 15.5404C13.9494 15.5404 10.2534 15.5405 10.1111 15.5405Z" fill="black"/>
</g>
<defs>
<clipPath id="clip0_23_2">
<rect width="23.8" height="23.8" fill="white" transform="translate(0.0999985 0.100006)"/>
</clipPath>
</defs>
</svg>
