<svg id="Layer_1" data-name="Layer 1" xmlns="http://www.w3.org/2000/svg" viewBox="0 0 252 252"><path d="M76.48,18a3.91,3.91,0,0,0,.85.51,14,14,0,0,0,1.93.38c1.14.14,2.3.15,3.43.35A15.13,15.13,0,0,1,87,21c1.43.75,2.84,1.54,4.27,2.31a18.74,18.74,0,0,0,4,1.53c1.68.46,3.34,1,5,1.51a4.88,4.88,0,0,1,3,2.8,61.68,61.68,0,0,1,2.45,6.16c.38,1.06.79,2.11,1.24,3.14a7.74,7.74,0,0,0,2.26,2.9c1.5,1.22,3.07,2.36,4.62,3.51a16.09,16.09,0,0,1,3,2.71,8.74,8.74,0,0,1,1.21,1.86c.83,1.77,1.6,3.57,2.37,5.37a11.18,11.18,0,0,0,2.05,2.91c1,1.14,2.06,2.21,3.08,3.32a14.88,14.88,0,0,1,2.67,3.73,16.87,16.87,0,0,1,.71,2.11c1,3.28,1.93,6.56,2.91,9.84a3.21,3.21,0,0,1,0,2.12,3.32,3.32,0,0,0-.12,1.82,10.78,10.78,0,0,1,.16,1.14,3.36,3.36,0,0,1-.17,1.57,49.37,49.37,0,0,0-2.2,7.13c-.47,2-.84,4-1.23,6a12.46,12.46,0,0,0-.17,1.84,7.68,7.68,0,0,0,.07,1,4,4,0,0,0,1.68-1.24c.54-.7,1-1.45,1.52-2.2s1-1.68,1.53-2.51a6.42,6.42,0,0,1,1.9-1.95,38.36,38.36,0,0,0,5.2-4.22c2.51-2.39,5-4.84,7.48-7.24a44.52,44.52,0,0,1,5.34-4.45l.2-.14a1.24,1.24,0,0,0,1.75-.4c.27-.32.49-.7.74-1.06h2.15a2.47,2.47,0,0,1,.43,1.51,13.1,13.1,0,0,1-.46,3.41A104,104,0,0,1,154.54,89c-.89,2.63-1.73,5.29-2.55,8-.26.85-.38,1.74-.57,2.67l-.63.26c0,.47-.06.95-.11,1.44a10.9,10.9,0,0,1-3.23,6.69,22.32,22.32,0,0,1-5.42,3.89c-1.38.76-2.77,1.51-4.18,2.21a16.09,16.09,0,0,0-5.91,5c-.64.87-1.39,1.67-2.11,2.48A7.74,7.74,0,0,1,128,123c-.89-.45-1.24-.33-1.68.55a11.09,11.09,0,0,0-.89,3,57.05,57.05,0,0,0-.77,6.91,1.28,1.28,0,0,0,.23,1,.57.57,0,0,1,.08.41,29.51,29.51,0,0,1-1.37,6,5.07,5.07,0,0,0-.4,1.91A5.38,5.38,0,0,1,123,144c-.76,3.78-1.55,7.54-2.28,11.32s-1.37,7.32-2,11c-.51,2.93-1,5.88-1.43,8.82a20.09,20.09,0,0,0-.4,3.87.48.48,0,0,1-.06.24.57.57,0,0,0,0,.81c-.34,1-.69,1.87-1,2.79a8.11,8.11,0,0,1-2,3.64,12.94,12.94,0,0,0-1.07,1.26,3.25,3.25,0,0,0-.53,3.08,11.21,11.21,0,0,0,1.23,2.65c.47.77,1,1.52,1.41,2.29.31.53.29.54-.1,1a5.61,5.61,0,0,0-1.21,3.23,22.42,22.42,0,0,0,.18,5.67c.3,2.3.66,4.59,1,6.88a4.72,4.72,0,0,0,.13.54c.36,0,.38-.29.47-.48a16.17,16.17,0,0,0,1-3.87c.29-1.81.56-3.61.89-5.41a9,9,0,0,1,.58-1.82c1.72-4.13,3.25-8.32,4.78-12.52,1.38-3.8,2.73-7.61,4.1-11.41l.06-.18a10.52,10.52,0,0,0,1-5.09,47.87,47.87,0,0,1,.44-6.56c.19-1.8.46-3.59.71-5.38a21.7,21.7,0,0,1,2.91-7.78c1.59-2.77,3.26-5.49,4.89-8.24a5.57,5.57,0,0,1,1.5-1.63,21.75,21.75,0,0,0,3.47-3.38,52.15,52.15,0,0,1,7.37-7c2.73-2.19,5.59-4.19,8.48-6.15,2.18-1.49,4.41-2.9,6.56-4.43a50.57,50.57,0,0,0,7.63-6c1.26-1.3,2.5-2.61,3.72-4a37,37,0,0,1,7.69-6.58c1.13-.71,2.22-1.51,3.33-2.26a2.25,2.25,0,0,0,.72-.78c.5-.84,1-1.67,1.56-2.48a5.1,5.1,0,0,1,2.46-2,5.69,5.69,0,0,0,2.31-1.43c.08-.09.3-.09.46-.09.44,0,.89,0,1.32,0a.64.64,0,0,1,.63.2c.14.15.31.27.47.41v.25c-.67.81-1.31,1.66-2,2.43-1,1-2,2-3,3a4.84,4.84,0,0,0-1.15,1.89c-.89,2.77-1.79,5.54-2.68,8.32a91.43,91.43,0,0,1-3.43,9.33,21.22,21.22,0,0,1-5.18,7.2c-1.26,1.14-2.56,2.25-3.84,3.37a77.67,77.67,0,0,0-7.53,7.43c-1.17,1.35-2.29,2.75-3.37,4.18a73.76,73.76,0,0,0-6.22,10,11,11,0,0,1-2,2.81,3.44,3.44,0,0,0-1.07,2.18,6.78,6.78,0,0,1-2,4c-1.16,1.24-2.3,2.51-3.44,3.77a36,36,0,0,0-3.63,4.45,5.13,5.13,0,0,0-1.14,3.4c-.49,0-.69.31-.87.66-1.67,3.16-3.35,6.32-5,9.48a11.68,11.68,0,0,1-2.11,2.95c-1.16,1.15-2.34,2.3-3.51,3.44l-2.38,2.32a1.55,1.55,0,0,0-.57,1.16s-.07.1-.15.19a2.41,2.41,0,0,1-.28-.43.91.91,0,0,0-1.06-.69,1.14,1.14,0,0,1-.44-.06,2.17,2.17,0,0,1-1.52-1.5c-.06-.19-.15-.46-.3-.52a1.87,1.87,0,0,0-1.18-.2,13.62,13.62,0,0,1-1.37,4.83c-.63,1.33-1.29,2.64-2,3.94a11,11,0,0,0-1.15,3.49,5.62,5.62,0,0,1-.37,1.35,23.19,23.19,0,0,0-1.43,5.28,64.19,64.19,0,0,0-.8,7.81,58.81,58.81,0,0,0,.16,9,9.16,9.16,0,0,0,.61,2.73,1.86,1.86,0,0,1,0,1.66c-.2.4-.46.77-.64,1.18s-.22.67-.33,1h-.51a3.19,3.19,0,0,1-1.76-1.06l-.49.27a1.29,1.29,0,0,1-.16-.09,4.08,4.08,0,0,1-1.14-3.27c0-.51.11-1,.18-1.52a4.45,4.45,0,0,0-.16-2.14c-.58-1.62-1.12-3.26-1.71-4.88-.34-.94-.73-1.86-1.12-2.78a11.24,11.24,0,0,1-.65-3.24,9,9,0,0,0-.76-3.14,3.06,3.06,0,0,1-.26-1.24c0-.91,0-1.83.06-2.74,0-.75.09-1.49.08-2.24a4.36,4.36,0,0,0-.2-1.18,3.05,3.05,0,0,1,0-1.82c.26-.86.59-1.69.88-2.53s.55-1.48.77-2.23a2.92,2.92,0,0,0,0-1.89c-.19-.47-.27-.51-.76-.41a3.13,3.13,0,0,1-2-.22c-.65-.31-1.29-.65-1.92-1a6.29,6.29,0,0,0-3.29-1c-.12-.42-.26-.82-.36-1.23s-.2-.87-.28-1.31a6.78,6.78,0,0,0-1.54-3.24c-1.46-1.71-2.84-3.5-4.26-5.26a3.92,3.92,0,0,1-.39-.58,70.36,70.36,0,0,0-4-6,90.55,90.55,0,0,1-5.11-7.63,73.39,73.39,0,0,1-4.11-8.92,93.94,93.94,0,0,1-3.29-9.8,60.24,60.24,0,0,1-2-10.39,27.6,27.6,0,0,1,.62-10,11.53,11.53,0,0,0,.33-3.6,11.59,11.59,0,0,1,.27-3.1,5.67,5.67,0,0,0,.08-1.84,14.5,14.5,0,0,1,.31-4.36,64.61,64.61,0,0,1,1.68-6.75c.1-.3.2-.61.33-.9a18.24,18.24,0,0,0,1.32-5.3c.25-1.92.5-3.84.78-5.75a8.26,8.26,0,0,1,.34-1.49,4.79,4.79,0,0,0,0-3A24,24,0,0,0,82,88.81a10.45,10.45,0,0,1-1.12-5,22.94,22.94,0,0,1,1-6.19,116.51,116.51,0,0,1-7.49-12.63c-.4-.73-.74-1.48-1.14-2.21A2.9,2.9,0,0,1,73,60.15c.35-.85.77-1.66,1.17-2.49.2,0,.37,0,.53,0a.51.51,0,0,1,.56.33c.26.48.54,1,.81,1.44.63,1.11,1.25,2.22,1.88,3.32a10.56,10.56,0,0,1,1,2.59c.15.55.33,1.1.52,1.64a2.52,2.52,0,0,0,1.18,1.37,5.21,5.21,0,0,0,.56.31,5.34,5.34,0,0,1,2.47,2.3q2.22,3.51,4.52,7A17.94,17.94,0,0,0,91,81.17a12.39,12.39,0,0,0,1.47,1.12.82.82,0,0,1,.44.71,7.2,7.2,0,0,1,0,2.85l.69.22c0,.2,0,.43,0,.66a1.56,1.56,0,0,0,.49,1.2c.66.66,1.31,1.34,2,2a1.78,1.78,0,0,1,.48.8c.38,1.19.79,2.38,1.17,3.58a1,1,0,0,0,.54.65c.56.26,1.08.6,1.64.87a3.65,3.65,0,0,1,1.76,1.93c.3.71.58,1.42.88,2.12a4.16,4.16,0,0,0,1.16,1.5c.53.47,1,.94,1.56,1.43a4.06,4.06,0,0,1,1.1,2c.17.7.31,1.42.52,2.11a8.79,8.79,0,0,0,.6,1.46c.12.23.21.42,0,.64a1.48,1.48,0,0,0-.17,1.23,6.8,6.8,0,0,0,.78,2.08l.47.9a.7.7,0,0,1,.09.66.64.64,0,0,0,.07.48,6.29,6.29,0,0,1,.54,2.48c.08,2,.1,4,.15,6s0,3.79.12,5.68a7.54,7.54,0,0,1-.17,2.54,23,23,0,0,0-.57,3.91c-.39,4.52-.48,9.05-.48,13.59,0,3.13.14,6.26.22,9.38a5,5,0,0,0,.09,1,.68.68,0,0,1-.37.85,1.24,1.24,0,0,0-.22.2,3.17,3.17,0,0,1,.21,2.87,5.14,5.14,0,0,0,0,2.64c.32,1.78.58,3.57.9,5.35a12.81,12.81,0,0,0,.49,1.71.88.88,0,0,1,0,.85,2.75,2.75,0,0,0-.16,2.6c.42,1.29.71,2.62,1,3.94a5,5,0,0,1,.08,1,1.16,1.16,0,0,1-.29.94c-.14.13-.18.29,0,.44,0,0,.1-.06.13-.11.67-1.28,1.33-2.56,2-3.84a4.9,4.9,0,0,0,.59-1.8c.26-2.3.57-4.6.86-6.9a3.81,3.81,0,0,1,.19-.81,41.24,41.24,0,0,0,2-7.91c.55-3.18,1.09-6.37,1.67-9.55a23,23,0,0,1,.75-2.7,2.11,2.11,0,0,0,.07-1.19,4.85,4.85,0,0,1,.06-2.27c.79-3.31,1.53-6.63,2.29-9.95.06-.22.09-.46.17-.68a6.3,6.3,0,0,0,.17-3.52,7.2,7.2,0,0,1-.08-2.27,32,32,0,0,0,.2-4.15,20.31,20.31,0,0,1,.51-4c.21-1.11.37-2.22.55-3.33a2.31,2.31,0,0,0-.27-1.6c-.34-.59-.64-1.2-.92-1.82a3.57,3.57,0,0,1,.06-3.2c.5-1,1-2,1.4-3a7.2,7.2,0,0,0,.37-1.28c.24-1.1.45-2.21.7-3.31.14-.66.39-1.31.48-2,.13-1,.18-2.08.24-3.12a6.61,6.61,0,0,1,.49-2.23,7.49,7.49,0,0,0,.42-2.44l.24-4.4a10.6,10.6,0,0,1,.69-2.64q.87-2.57,1.68-5.15a4.81,4.81,0,0,0,0-2.76c-.54-1.93-.93-3.89-1.45-5.82a35.12,35.12,0,0,0-1.26-3.88,10.3,10.3,0,0,0-2.25-3.3c-.88-.9-1.74-1.82-2.65-2.69a14.08,14.08,0,0,1-2.38-3.3,55.38,55.38,0,0,0-4.07-6.4,28.69,28.69,0,0,0-3.78-4.16A38.88,38.88,0,0,0,107,46.18a9.65,9.65,0,0,1-2.78-3.12c-.3-.51-.62-1-.93-1.53a6,6,0,0,0-2.48-2.23,30.05,30.05,0,0,0-4.37-1.77c-1.25-.42-2.5-.84-3.74-1.28a20.09,20.09,0,0,1-3.51-1.81,36.14,36.14,0,0,0-5.94-3.34c-1.72-.63-3.48-1.11-5.22-1.68-2.89-1-5.79-1.88-8.66-2.87a30.68,30.68,0,0,0-4.63-1.14c-1.5-.28-3-.55-4.5-.88a9.16,9.16,0,0,1-4.41-2.19.66.66,0,0,0-.22-.12V22a5.86,5.86,0,0,1,1-.22c1-.07,2-.11,3-.13a9.17,9.17,0,0,0,2.45-.28,4,4,0,0,0,1.71-.89c-.1-.57-.53-1.14.12-1.65.48.18,1,.33,1.39.53a2.9,2.9,0,0,0,1.88.13,4.82,4.82,0,0,0,1.53-.59,2.06,2.06,0,0,1,2.2-.16,7.37,7.37,0,0,0,1.83.53A3.63,3.63,0,0,0,76.35,18Zm80.87,122.5c-.16.18-.28.44-.48.53a11.28,11.28,0,0,0-3.61,2.89A34,34,0,0,0,149,150c-.22.39-.42.79-.63,1.19l.93,1c1-1.2,1.92-2.34,2.85-3.5,1.31-1.65,2.62-3.29,3.89-5a16,16,0,0,0,1.28-2.2C157.47,141.21,157.64,140.83,157.35,140.5ZM87.41,87.09c-.4.69.11,2.2,1.06,3a1.22,1.22,0,0,0,.72-.83.63.63,0,0,0,0-.53C88.58,88.15,88,87.62,87.41,87.09ZM158,140.64c.68.1.83-.5,1.17-.81,0,0,0-.12,0-.19l-.5-.36C158.37,139.72,157.7,139.87,158,140.64Zm-14.41,1.87c-.11.2-.26.4.06.66ZM116.23,55.23h.09l.1-.45-.15,0Z"/></svg>