<svg width="300" height="300" viewBox="0 0 300 300" fill="none" xmlns="http://www.w3.org/2000/svg">
<path d="M84.6072 118.167C83.1905 116.893 81.7262 115.679 80.4048 114.31C79.8872 113.753 79.5982 113.022 79.5952 112.262C79.5617 111.679 79.7548 111.106 80.1342 110.662C80.5136 110.218 81.0499 109.938 81.631 109.881C83.061 109.78 84.4978 109.921 85.881 110.298C87.5174 110.869 89.109 111.562 90.6429 112.369C91.4315 112.769 92.3023 112.979 93.1864 112.983C94.0705 112.988 94.9434 112.786 95.736 112.395C96.5286 112.003 97.219 111.432 97.7525 110.727C98.286 110.022 98.6479 109.203 98.8095 108.333C98.9886 106.896 99.0602 105.448 99.0238 104C99.2381 91.7619 98.8452 79.5357 98.2857 67.3214C98.1667 64.5834 98.1429 61.8453 98.2857 59.1191C98.4101 58.1564 98.2373 57.1787 97.7905 56.317C97.3437 55.4553 96.6442 54.7507 95.7857 54.2976C94.5952 53.5834 93.2381 52.9524 91.7143 52.1548C91.1429 52.9524 90.5238 53.6548 90.1191 54.4167C89.7396 55.1284 89.3978 55.8595 89.0952 56.6072C88.3565 58.3533 87.2173 59.9011 85.7696 61.1254C84.3219 62.3497 82.6065 63.2162 80.7619 63.6548C80.4524 63.0834 79.9048 62.5238 79.9405 62.0238C79.9622 61.6233 80.0627 61.231 80.2364 60.8694C80.41 60.5078 80.6534 60.184 80.9524 59.9167C81.7402 59.3754 82.4006 58.669 82.8879 57.8467C83.3751 57.0243 83.6774 56.1058 83.7738 55.1548C84.0595 52.9524 82.5833 51.7024 80.5476 52.5C78.7738 53.1786 77.0714 54.0357 75.381 54.7976C75.0175 54.4299 74.8136 53.9337 74.8136 53.4167C74.8136 52.8996 75.0175 52.4034 75.381 52.0357C76.6687 50.3538 78.4635 49.1308 80.5 48.5476C85.5714 46.9643 90.6072 46.8095 95.3572 49.7381C96.0176 50.0511 96.7024 50.3099 97.4048 50.5119C97.7024 49.2024 97.9762 48.131 98.1786 47.1429C99.5119 40.1548 104 35.4881 109.571 31.6667C109.971 31.3897 110.433 31.2177 110.917 31.1667C117.012 30.6905 123.143 30.0834 128.917 32.8214C130.942 33.7877 132.885 34.9184 134.726 36.2024C135.369 36.5672 135.857 37.1551 136.096 37.8549C136.335 38.5547 136.309 39.3178 136.024 40C134.917 42.75 136.226 44.5953 138.202 46.2738C139.917 47.7381 141.571 49.2619 143.262 50.75C144.702 52.0119 144.726 53.4643 143.857 55.381L139.167 54.4643C138.488 55.25 137.786 56.0834 137.036 56.9405C133.622 55.874 129.943 56.0297 126.631 57.381C123.583 58.553 120.232 58.6745 117.107 57.7262C116.196 57.473 115.417 56.8809 114.929 56.0714C114.349 54.5961 113.673 53.1604 112.905 51.7738C112.167 50.5834 113.381 47.3095 114.94 46.2381C117.869 44.2381 120.893 42.4643 124.69 42.6667C127.024 42.9872 129.398 42.8251 131.667 42.1905C131.5 41.2976 131.595 40.2381 131.107 39.5953C130.424 38.7143 129.52 38.0287 128.488 37.6072C126.145 36.5544 123.705 35.7331 121.202 35.1548C111.393 33.3453 105.619 38.5119 104.964 47.9524C104.952 48.5961 104.976 49.2399 105.036 49.881C105.369 56.3095 105.595 62.75 106.048 69.1667C106.502 73.6474 106.665 78.1529 106.536 82.6548C106.286 86.6667 106.048 90.6905 106.06 94.7024C106.06 98.3929 106.369 102.083 106.643 105.762C106.693 106.67 106.963 107.552 107.429 108.333C109.417 111.214 109.536 111.167 109.643 114.012C108.738 115.472 107.36 116.577 105.738 117.143C104.161 116.785 102.609 116.319 101.095 115.75C99.2857 114.964 98.0119 115.488 96.6667 117.048C96.881 118.238 97.131 119.702 97.3333 121.095C97.6508 123.325 97.9564 125.548 98.25 127.762C98.3056 128.883 98.4289 130.001 98.6191 131.107C99.1905 133.286 100.262 133.869 102.536 133.69C105.571 133.452 108.631 133.179 111.667 133.179C112.722 133.154 113.768 133.385 114.715 133.851C115.662 134.318 116.483 135.006 117.107 135.857C118.643 137.917 118.917 140.619 116.119 141.964C115.56 142.25 115.024 142.583 114.321 142.988C112.857 142.19 113.369 140.25 112.036 139.262C109.1 139.016 106.15 139.016 103.214 139.262C103.94 140.167 104.179 140.75 104.476 140.786C105.917 140.94 107.369 140.905 108.81 141.024C109.54 141.045 110.245 141.299 110.821 141.748C111.397 142.198 111.814 142.82 112.012 143.524C112.08 144.328 111.885 145.132 111.455 145.815C111.025 146.498 110.385 147.023 109.631 147.31C108.569 147.654 107.47 147.874 106.357 147.964C105.238 148.095 104.095 147.964 102.988 148.155C99.8333 148.607 97.25 149.738 95.7262 152.917C94.8095 154.857 93.0119 156.381 91.5953 158.107C93.0714 160.06 95.4643 160.667 97.5476 161.083C99.9288 161.718 102.212 162.675 104.333 163.929C105.619 162.595 107.369 162.595 109.095 162.607C109.744 162.647 110.393 162.517 110.977 162.231C111.561 161.945 112.061 161.513 112.429 160.976C113.619 159.274 114.81 157.571 115.881 155.821C118.119 152.31 120.321 148.774 122.548 145.238C123.31 144.048 124.167 142.857 124.821 141.571C127.083 137.167 129.274 132.726 131.488 128.298C131.766 127.539 132.147 126.822 132.619 126.167C134.167 124.512 135.536 122.857 135.702 120.405C135.702 119.619 136.893 118.952 137.119 118.119C137.655 115.738 140.774 114.548 140.345 111.726C141.857 109.655 143.333 107.548 144.917 105.524C146.5 103.5 148.167 101.607 149.786 99.6429C150.026 99.2685 150.226 98.8694 150.381 98.4524C153.107 92.881 157.405 88.5953 161.786 84.3572C162.111 84.0112 162.522 83.7567 162.976 83.6191C165.988 83.0595 167.738 80.6429 170.119 79.1072C175.06 75.9286 180.048 72.631 186.31 72.5357C187.083 72.4002 187.837 72.1765 188.56 71.8691C189.465 71.5593 190.404 71.3556 191.357 71.2619C194.548 71.2619 197.738 71.2619 200.881 71.4405C202.608 71.5266 204.318 71.8184 205.976 72.3095C207.06 72.631 207.857 73.0715 208.988 72.3095C209.365 72.1982 209.761 72.1704 210.15 72.228C210.538 72.2855 210.91 72.4271 211.238 72.6429C214.202 74.5238 217.75 75.4405 220.298 78.0119C221.885 79.5992 223.433 81.2222 224.94 82.881C226.238 84.2976 227.476 85.75 228.69 87.2381C229.492 88.0285 230.153 88.9506 230.643 89.9643C231.988 93.7857 234.488 96.9881 236.274 100.571C239.146 106.639 241.265 113.036 242.583 119.619C243.702 124.619 245.131 129.56 245.881 134.643C246.19 136.714 246.488 138.786 246.726 140.857C247.119 144.357 247.655 147.821 248.31 151.286C249.155 155.857 249.333 160.548 249.821 165.179C249.988 166.774 250.19 168.369 250.393 169.94C250.81 173.119 251.345 176.262 251.5 179.464C251.655 182.667 252.631 186.071 252.821 189.464C253.071 194.226 254.012 198.988 254.214 203.833C254.292 206.886 253.992 209.937 253.321 212.917C252.131 218.417 250.94 223.929 247.536 228.631C246.717 229.826 245.788 230.942 244.762 231.964C243.484 233.333 241.782 234.231 239.931 234.514C238.08 234.797 236.188 234.448 234.56 233.524C232.663 232.356 230.424 231.873 228.214 232.155C226.529 232.329 224.826 232.096 223.249 231.474C221.672 230.853 220.268 229.861 219.155 228.583C218.268 227.511 217.137 226.666 215.857 226.119C215.345 226.179 214.964 226.119 214.726 226.262C210.524 228.798 205.857 229.988 201.143 231.024C200.039 231.251 198.953 231.557 197.893 231.941C197.118 232.172 196.428 232.624 195.906 233.241C195.384 233.859 195.052 234.614 194.952 235.417C196.607 235.679 198.179 235.857 199.714 236.202C201.25 236.548 202.679 236.905 204.262 235.75C205.107 235.143 206.738 235.405 207.976 235.583C210.202 235.905 212.381 236.524 214.655 235.881C215.127 235.758 215.626 235.783 216.083 235.952C219.655 237.262 223.464 236.952 227.06 236.417C228.459 236.186 229.892 236.281 231.248 236.694C232.605 237.106 233.848 237.826 234.881 238.798C232.857 246.095 228.333 249.298 217.214 251.381C216.793 252.058 216.57 252.84 216.57 253.637C216.57 254.434 216.793 255.216 217.214 255.893C217.607 256.407 217.842 257.022 217.893 257.667C217.476 262.095 217.798 266.702 215.31 270.762C214.588 271.821 213.736 272.785 212.774 273.631C212.071 274.286 211.167 274.702 210.393 275.298C204.81 279.714 198.786 279.048 193.19 275.917C186.167 271.976 179.524 267.226 175.048 260.345C171.722 255.234 168.317 250.183 164.833 245.191C160.179 238.488 157.964 230.738 156.738 222.702C155.855 216.978 155.311 211.206 155.107 205.417C154.833 197.083 154.274 188.75 153.917 180.417C153.923 178.821 154.058 177.229 154.321 175.655C154.786 171.679 156.429 167.905 156.452 163.821C156.586 162.864 156.959 161.955 157.536 161.179C159.821 157.452 162.44 154.131 166.417 151.917C170.655 149.536 174.833 147.321 179.702 146.417C184.917 145.425 190.282 145.535 195.452 146.738C198.607 147.464 200.548 150.012 202.595 152.262C204.643 154.512 204.607 157.143 204.548 159.655C203.214 161.369 201.643 160.143 200.202 160.548C199.88 160.846 199.585 161.172 199.321 161.524C198.039 163.489 196.352 165.158 194.373 166.419C192.394 167.679 190.168 168.502 187.845 168.833C183.44 169.619 178.964 170.262 174.417 169.298C171.917 168.75 169.31 168.726 166.786 168.298C164.262 167.869 164.274 167.762 162.31 165.369C161.226 171.714 159.119 177.69 160.321 184.107C160.473 185.71 160.504 187.321 160.417 188.929C160.343 190.215 160.448 191.504 160.726 192.762C162.298 197.452 162.012 202.286 162.19 207.119C162.404 212.581 163.239 218.001 164.679 223.274C165.417 226.071 166.131 228.869 166.702 231.702C167.678 236.46 169.803 240.907 172.893 244.655C175.366 247.705 177.361 251.113 178.81 254.762C179.894 257.089 181.35 259.224 183.119 261.083C186.463 264.782 190.226 268.078 194.333 270.905C197.93 273.707 202.461 275.027 207 274.595C208.552 274.564 210.044 273.991 211.217 272.975C212.391 271.96 213.173 270.567 213.429 269.036C214.335 264.121 214.391 259.088 213.595 254.155C213.523 253.844 213.411 253.544 213.262 253.262C212.56 251.5 211.857 251.083 209.905 251.429C209.281 251.592 208.671 251.807 208.083 252.071C205.94 247.821 201.345 248.679 197.952 246.774C197.488 244.929 198.607 243.845 200.048 243.012C200.957 242.555 201.896 242.157 202.857 241.821C202.738 240.631 202.024 240.571 201.429 240.631C200.302 240.652 199.18 240.763 198.071 240.964C197.357 241.085 196.626 241.06 195.923 240.89C195.219 240.72 194.557 240.409 193.976 239.976C190.595 237.738 190.024 234.286 192.786 231.429C194.714 229.476 197.024 227.702 199.81 227.452C205.42 226.797 210.872 225.161 215.917 222.619C216.774 222.214 217.679 221.881 218.821 221.429C219.56 222.202 220.333 222.964 221.048 223.81C222.248 225.313 223.524 226.755 224.869 228.131C226.69 229.774 228.917 229.786 230.393 228.012C232.667 225.286 235.464 224.988 238.881 225.464C238.813 226.115 238.697 226.759 238.536 227.393C238.238 228.274 238.357 229.155 239.143 229.464C239.882 229.672 240.672 229.596 241.357 229.25C242.219 228.814 242.986 228.211 243.611 227.475C244.237 226.739 244.709 225.885 245 224.964C246.644 220.771 247.662 216.359 248.024 211.869C248.603 204.171 248.276 196.431 247.048 188.81C245.107 177.738 243.476 166.595 241.929 155.476C240.735 146.739 238.969 138.089 236.643 129.583C236.128 127.721 235.73 125.829 235.452 123.917C234.907 120.422 233.89 117.018 232.429 113.798C230.048 108.369 227.321 103.083 224.655 97.75C223.991 96.6538 223.221 95.6251 222.357 94.6786C216.048 86.7143 207.5 83.3214 197.679 82.5595C196.723 82.5543 195.77 82.6744 194.845 82.9167C192.464 83.3532 190.083 83.8175 187.702 84.3095C186.924 84.4568 186.165 84.6925 185.44 85.0119C180.786 87.2024 175.917 89.0715 171.821 92.1548C169.155 94.1786 166.94 96.7857 164.369 98.9405C160.286 102.333 156.786 106.298 152.988 109.964C152.372 110.422 151.715 110.821 151.024 111.155C150.667 111.381 150.119 111.607 150.024 111.929C149.214 114.762 147.071 116.762 145.595 119.167C144.119 121.571 142.583 123.56 141.167 125.821C140.595 126.582 139.787 127.131 138.869 127.381C137.512 127.964 136.357 128.821 136.94 130.714C137.071 131.143 136.595 131.905 136.214 132.298C135.167 133.488 133.988 134.548 132.94 135.738C132.548 136.179 132.083 136.929 132.179 137.357C132.359 138.156 132.275 138.991 131.94 139.738C131.605 140.485 131.037 141.103 130.321 141.5C128.333 142.69 127.94 144.762 127.298 146.571C126.19 147.036 125.155 147.381 124.19 147.893C123.226 148.405 123.167 148.917 124.738 150.381C124.699 150.819 124.594 151.248 124.429 151.655C121.667 156.31 119 161.024 116.095 165.583C113.19 170.143 111.833 171.357 106.167 169.286C99.8691 166.988 93.3214 165.238 87.8572 160.952C86.0317 159.666 84.6573 157.837 83.9286 155.726C83 152.821 82.4167 149.774 81.4643 146.929C80.6908 144.902 79.8167 142.916 78.8453 140.976L80.6905 135.095C84.6429 133.298 88.2976 133.738 92.0595 134.405C93.1548 132.155 92.6905 129.857 92.9524 127.679C93.2143 125.5 94.1429 123.619 92.881 121.536C91.3571 121.536 89.7976 121.619 88.2381 121.536C86.131 121.381 84.6667 120.429 84.4167 118.071C85.8572 117.548 87.5119 119.119 88.8572 117.619C87.5595 115.738 87.5595 115.738 84.0952 115.548C84.2619 116.405 84.4286 117.286 84.6072 118.167ZM191.417 156.095C191.298 156.19 191.19 156.333 191.06 156.369C190.929 156.405 190.845 156.25 190.738 156.19H191.452C191.452 156.762 191.321 157.512 191.619 157.881C192.054 158.37 192.301 158.997 192.316 159.651C192.331 160.305 192.114 160.944 191.702 161.452C191.022 162.327 190.22 163.101 189.321 163.75C188.833 164.155 188.131 164.321 187.655 164.714C187.179 165.107 186.464 165.107 186.857 166.179C190.786 164.81 194.952 164.012 196.488 158.976L191.417 156.095ZM228.464 242.857C223.44 241.202 218.94 242.095 214.464 241.738C213.719 241.692 212.978 241.885 212.351 242.29C211.723 242.695 211.241 243.29 210.976 243.988C211.509 244.69 212.189 245.266 212.969 245.678C213.748 246.089 214.608 246.325 215.488 246.369C217.579 246.459 219.673 246.375 221.75 246.119C224.302 245.857 226.68 244.701 228.464 242.857ZM168.655 164.667C173.489 166.68 178.84 167.097 183.929 165.857C180.262 163.786 176.167 163.536 172.381 161.798L168.655 164.667ZM172.786 156.095C168.869 156.405 164.333 158.964 162.667 161.857C162.31 162.476 162.25 163.417 163.714 163.845L172.786 156.095ZM121.298 47.9048C119.929 47.3095 119.06 47.9762 118.381 49.0953C118.335 49.2331 118.323 49.3799 118.346 49.5234C118.369 49.6668 118.426 49.8027 118.512 49.9194C118.598 50.0362 118.712 50.1305 118.842 50.1942C118.973 50.258 119.117 50.2894 119.262 50.2857C120.5 50.1072 121.083 49.2738 121.298 47.9048ZM140.167 124.095C139.595 123.405 139.262 122.655 138.905 122.643C137.881 122.643 137.714 123.524 137.714 124.333C137.714 124.726 138.131 125.107 138.345 125.524L140.167 124.095ZM206.333 240.917C206.002 241.523 205.723 242.156 205.5 242.81C205.5 242.988 205.774 243.429 205.988 243.476C206.774 243.655 207.179 243.143 207.107 242.452C207.143 242.071 206.774 241.726 206.333 240.893V240.917ZM134.786 51.2619L134.988 50.631C134.393 50.3077 133.781 50.0176 133.155 49.7619C133.024 49.7619 132.631 50.0714 132.536 50.3214C132.44 50.5714 132.643 50.9524 132.786 50.9881C133.44 51.1905 134.119 51.1905 134.786 51.2619ZM135.595 130.81L135.321 130.048C135.214 130.119 135.024 130.167 135.012 130.25C134.994 130.496 134.994 130.742 135.012 130.988L135.595 130.81ZM129.06 138.667C129.109 138.791 129.169 138.91 129.238 139.024C129.476 138.952 129.714 138.845 129.94 138.762C129.869 138.643 129.786 138.405 129.738 138.417C129.505 138.479 129.278 138.563 129.06 138.667ZM121.595 51.9048V51.5476L121.179 51.7143L121.595 51.9048ZM178.631 158.107C178.536 158.012 178.417 157.821 178.333 157.845C178.091 157.914 177.856 158.005 177.631 158.119C177.726 158.214 177.845 158.417 177.917 158.405C178.164 158.328 178.403 158.229 178.631 158.107Z" fill="black"/>
<path d="M217.048 207.321C220.429 206 220.429 206 224.107 206.917C226.298 204.274 226.333 201.488 224.583 198.583C224.514 198.436 224.431 198.297 224.333 198.167C221.286 194.893 221.845 191.167 223 186.845C223.595 187.536 224.19 187.929 224.19 188.321C224.174 189.692 224.439 191.051 224.969 192.314C225.5 193.578 226.284 194.719 227.274 195.667C228.164 196.609 228.829 197.743 229.216 198.98C229.604 200.218 229.705 201.527 229.512 202.809C229.458 203.45 229.363 204.086 229.226 204.714C227.952 210.845 226.012 212.476 219.702 212.667C218.083 212.667 216.488 212.464 215.452 214.202C215.113 214.663 214.645 215.014 214.107 215.211C213.569 215.408 212.986 215.442 212.429 215.309C208.357 214.881 204.226 214.631 200.845 211.738C201.226 210.202 202.44 209.857 203.714 209.619C206.393 209.107 209.155 208.917 211.762 207.357C211.869 206.167 212.071 204.976 212.083 203.667C212.19 195.619 212.381 187.571 212.286 179.524C212.19 171.476 211.75 163.774 211.5 155.893C211.405 152.679 211.56 149.452 211.333 146.238C210.893 139.821 210.429 133.405 209.667 127.012C208.964 121.059 205.321 117.095 200.143 114.488C197.384 113.195 194.554 112.058 191.667 111.083C186.369 109.119 181.214 109.893 176.19 112.048C171.571 114.023 167.623 117.294 164.821 121.464C160.726 127.25 156.667 133.048 152.571 138.821C149.69 142.893 146.905 147.048 143.81 150.952C140.417 155.238 136.667 159.286 133.179 163.44C131.011 165.781 129.021 168.28 127.226 170.917C124.917 174.643 121.44 176.869 118.048 179.25C116.488 180.369 114.881 181.429 113.286 182.5C109.131 185.242 104.46 187.105 99.5595 187.976C94.2381 189.012 89.6905 187.274 85 185.881C78.9524 184.071 74.4524 179.929 70.5714 175.107C69.7619 174.107 68.7738 173.25 67.9643 172.25C66.9025 171.043 65.9391 169.753 65.0833 168.393C62.0476 163.107 59.1309 157.679 56.1071 152.44C52.3728 146.036 49.7939 139.024 48.4881 131.726C48.1428 129.667 47.5476 127.655 47.0119 125.643C45.8142 121.448 45.4621 117.058 45.9762 112.726C46.6905 107.298 47.5039 101.889 48.4166 96.5C49.6071 89.3571 50.9047 82.2857 50.7976 74.9643C50.6904 68.5476 51.2262 62.0952 51.7381 55.6785C51.9762 52.8095 53 50.0238 53.4047 47.1666C54.4881 39.5357 57.6547 32.6904 61.3214 26.0595C62.2276 24.5422 63.3326 23.1529 64.6071 21.9285C65.0238 21.5 65.9762 21.5952 67.1666 21.3571C60.7143 31.7857 57.6071 42.7024 55.9524 54.0595C55.8114 55.3402 55.7478 56.6283 55.7619 57.9166C55.5952 64.9881 55.5 72.0714 55.2738 79.1547C55.1071 84.1666 53.8095 89.0119 52.8928 93.9047C52.4285 96.2857 52 98.6666 51.3214 100.964C49.1905 108.262 49.5952 115.548 50.8095 122.952C52.0905 130.226 54.0843 137.355 56.7619 144.238C58.619 149.179 61.3809 153.762 63.8095 158.524C65 160.809 66.2857 163.024 67.5595 165.262C69.3333 168.381 72.0119 170.726 74.5238 173.202C75.2143 173.881 76.0952 174.393 76.7381 175.071C80.6904 179.417 85.7619 181.476 91.3333 182.988C96.4904 184.434 101.993 184.013 106.869 181.798C111.481 179.869 115.632 176.984 119.048 173.333C121.083 171.071 122.94 168.643 124.869 166.298C128.048 162.452 131.155 158.559 134.393 154.786C140.833 147.345 146.298 139.155 151.94 131.155C155.119 126.702 158.06 122.071 161.274 117.655C165.631 111.793 171.662 107.39 178.571 105.024C185.571 102.464 192.488 103.095 199.298 105.833C202.956 107.403 206.394 109.444 209.524 111.905C212.69 114.286 216.036 120.333 216.952 125C217.107 125.786 217.238 126.583 217.321 127.381C218.179 136.19 219.059 145 218.714 153.869C218.333 163.5 217.821 173.143 217.44 182.774C217.19 189.524 217.048 196.274 216.893 203.012C216.857 204.429 216.988 205.845 217.048 207.321ZM217.75 210.417L217.226 210C217.131 210.226 216.94 210.476 216.964 210.702C216.988 210.929 217.262 211 217.429 211.155L217.75 210.417Z" fill="black"/>
<path d="M199.452 208.917C199.477 209.183 199.442 209.451 199.35 209.702C199.258 209.953 199.112 210.18 198.922 210.368C198.732 210.556 198.503 210.699 198.251 210.788C197.999 210.877 197.73 210.908 197.464 210.881C196.39 210.636 195.418 210.066 194.681 209.247C193.944 208.429 193.477 207.403 193.345 206.309C193.321 205.595 193.558 204.897 194.012 204.345C194.465 203.793 195.104 203.425 195.81 203.309C196.118 203.245 196.437 203.243 196.747 203.304C197.057 203.364 197.351 203.485 197.614 203.66C197.876 203.835 198.101 204.06 198.276 204.323C198.451 204.586 198.571 204.881 198.631 205.19C199.036 206.536 199.238 207.952 199.452 208.917Z" fill="black"/>
</svg>
