<svg width="200" height="50" viewBox="0 0 200 50" fill="none" xmlns="http://www.w3.org/2000/svg">
<g clip-path="url(#clip0_1_3)">
<path d="M17.8414 43.6743C17.5067 43.7033 17.2053 43.5607 16.9153 43.2726C16.7034 43.0501 16.5932 42.891 16.5569 42.7496C16.5206 42.6082 16.504 42.4169 16.4792 42.13C16.4357 41.6279 16.4484 41.2173 16.4495 40.9522C16.5059 40.4896 16.7921 39.6217 17.328 38.2985C17.866 36.9993 18.1407 36.2769 18.1283 36.1335C18.0598 35.8985 17.877 35.4566 17.6039 34.8057C17.3068 34.1569 17.0118 33.5321 16.693 32.9092C16.3959 32.2604 16.1694 31.8705 16.0333 31.6896C15.8733 31.5107 15.785 31.3256 15.7446 31.1364C15.6866 30.4669 16.0798 29.9993 16.9458 29.7075L17.2785 29.6546C17.974 29.6185 18.4094 29.9181 18.535 30.5336C18.5619 30.8444 18.5067 31.0419 18.3954 31.1479C18.2945 31.3734 18.3035 32.3121 18.4244 33.988C18.501 34.8726 18.586 35.2989 18.7056 35.2886C18.7773 35.2823 19.0374 34.9467 19.4399 34.3096C21.4183 31.5608 22.6092 30.0123 23.0148 29.6882C23.2415 29.524 23.544 29.4015 23.8746 29.3247C24.2354 29.3175 24.5586 29.4341 24.8403 29.6265C25.124 29.8429 25.3401 30.1132 25.4387 30.4179C25.4987 31.1113 24.9798 31.5175 23.8799 31.6127C23.3778 31.6562 22.9775 31.7631 22.729 31.9532C22.2975 32.2556 21.6756 32.8634 20.8155 33.781C19.6298 35.1122 19.0089 36.0091 19.0045 36.5154C19.1519 37.1048 19.5321 37.6019 20.1193 37.9847C20.7065 38.3675 21.3468 38.5289 22.0402 38.4689L22.2554 38.4503C24.1683 38.2847 27.0444 36.4459 30.9037 32.8839C31.7502 32.0879 32.2452 31.6837 32.3845 31.6235C32.7432 31.5924 32.9989 31.763 33.1297 32.1612C33.1285 32.4263 33.0016 32.63 32.7032 32.8004C32.1958 33.0611 31.0623 33.8819 29.2987 35.2149C27.6682 36.416 26.4391 37.245 25.6156 37.7499C24.7702 38.2808 24.0736 38.582 23.5319 38.7252C23.1077 38.8342 22.6077 38.9016 22.0338 38.9512C21.2447 39.0195 20.6564 38.9018 20.2469 38.6241C19.8614 38.3443 19.4114 37.8773 18.921 37.2212L18.5709 36.7938C18.4877 36.9455 18.4263 37.0713 18.3389 37.1752C18.2536 37.303 18.1725 37.4787 18.0455 37.6824C17.9446 37.9079 17.7823 38.2592 17.5825 38.7342C17.3848 39.2331 17.2485 39.6063 17.2036 39.9233C17.1328 40.2185 17.1243 40.677 17.176 41.2747C17.2029 41.5856 17.2195 41.7769 17.2538 41.8943C17.2641 42.0139 17.3202 42.1054 17.4221 42.1688C17.5 42.2344 17.6237 42.2718 17.7973 42.3291C18.2203 42.4852 18.4541 42.6818 18.5247 42.9406C18.5557 43.2993 18.3831 43.5311 18.0327 43.6577L17.8414 43.6743ZM33.057 36.7927C32.8179 36.8134 32.4926 36.673 32.1548 36.389C31.8129 36.0573 31.6281 35.5915 31.5743 34.9698C31.4957 34.0612 31.7446 32.7629 32.3192 31.051C32.7084 29.9814 32.8698 29.3411 32.8512 29.1259C32.8617 28.6914 33.0043 28.39 33.2747 28.1739C33.5471 27.9817 33.8497 27.8591 34.1605 27.8322C34.4994 27.8511 34.7686 27.9001 34.9962 28.0249C35.2457 28.1238 35.4193 28.181 35.5887 28.1904C35.7322 28.178 35.9193 28.1136 36.1522 28.0212C36.4309 27.9007 36.7116 27.8042 36.9746 27.7814C37.8655 27.7766 38.3653 28.2633 38.446 29.1958C38.4686 30.0129 38.2384 30.9723 37.7795 32.072C37.6349 32.3495 37.5319 32.5511 37.4986 32.7226L37.5246 32.7445C37.6441 32.7341 38.0423 32.6033 38.7192 32.352C39.3981 32.1246 40.1685 31.8411 40.9608 31.5317C41.777 31.2201 42.4518 30.9449 43.0091 30.704C43.7514 30.3747 44.291 30.2076 44.6019 30.1807C44.7932 30.1641 44.9408 30.1996 44.9969 30.2911C45.053 30.3826 45.1173 30.5697 45.1422 30.8566C45.1369 31.0739 45.0297 31.2277 44.8208 31.3181C44.6118 31.4084 44.12 31.5714 43.3673 31.7811C42.5927 32.0168 41.7703 32.2566 40.8523 32.5047C39.9343 32.7527 39.1576 32.9645 38.5203 33.116C38.0722 33.227 37.7177 33.3059 37.4848 33.3983C37.2737 33.4648 37.0887 33.5531 36.9774 33.6591C36.8422 33.7671 36.733 33.897 36.63 34.0986C36.1359 34.7918 35.54 35.4216 34.8381 35.94C34.1362 36.4585 33.5352 36.7514 33.057 36.7927ZM32.6854 35.2832C32.7082 35.5462 32.8662 35.7011 33.1312 35.7023C33.5616 35.665 34.0233 35.4324 34.5183 35.0282C34.9873 34.6022 35.4782 34.1501 35.9649 33.6503L35.3234 33.754C34.6519 33.788 33.8941 33.6609 33.0781 33.4184L32.9917 33.8113C32.9147 34.0347 32.8657 34.304 32.7928 34.5753C32.7459 34.8684 32.6928 35.0898 32.6854 35.2832ZM33.3871 32.8135C33.3975 32.933 33.5253 33.0183 33.7706 33.0694C34.1136 33.136 34.9567 33.1353 36.2998 33.0673L36.7679 32.3522C37.0873 31.8669 37.3287 31.316 37.5181 30.7215C37.7294 30.101 37.8315 29.6103 37.8223 29.2257C37.8016 28.9866 37.7174 28.8493 37.5698 28.8139C37.4222 28.7785 37.2289 28.7712 36.9659 28.7939C36.5833 28.827 36.209 28.9558 35.8149 29.1344C35.4229 29.337 35.1328 29.603 34.9185 29.9106C34.7282 30.2162 34.4962 30.5976 34.2684 31.0268C34.0166 31.4581 33.8085 31.8375 33.6462 32.1888C33.4839 32.5401 33.3809 32.7417 33.3871 32.8135ZM45.6515 41.2675C45.3168 41.2965 45.0154 41.1539 44.7254 40.8658C44.5135 40.6433 44.4033 40.4842 44.367 40.3428C44.3307 40.2014 44.3141 40.0101 44.2893 39.7232C44.2458 39.2211 44.2585 38.8104 44.2596 38.5454C44.316 38.0828 44.6022 37.2149 45.1381 35.8917C45.6761 34.5925 45.9508 33.8701 45.9384 33.7267C45.8699 33.4917 45.6871 33.0498 45.414 32.3989C45.1169 31.7501 44.822 31.1252 44.5031 30.5024C44.206 29.8536 43.9796 29.4637 43.8434 29.2827C43.6834 29.1039 43.5951 28.9188 43.5547 28.7296C43.4967 28.0601 43.8899 27.5925 44.7559 27.3007L45.0886 27.2478C45.7841 27.2117 46.2196 27.5113 46.3451 28.1267C46.372 28.4376 46.3168 28.6351 46.2055 28.7411C46.1046 28.9666 46.1136 29.9053 46.2345 31.5811C46.3111 32.4658 46.3962 32.8921 46.5157 32.8817C46.5874 32.8755 46.8475 32.5399 47.25 31.9028C49.2284 29.154 50.4193 27.6055 50.8249 27.2813C51.0516 27.1172 51.3541 26.9946 51.6847 26.9178C52.0455 26.9107 52.3687 27.0273 52.6504 27.2197C52.9341 27.4361 53.1502 27.7064 53.2488 28.0111C53.3088 28.7045 52.7899 29.1107 51.69 29.2059C51.1879 29.2494 50.7876 29.3563 50.5391 29.5464C50.1076 29.8488 49.4857 30.4566 48.6256 31.3742C47.4399 32.7054 46.819 33.6023 46.8146 34.1085C46.962 34.698 47.3422 35.1951 47.9294 35.5779C48.5166 35.9607 49.1569 36.1221 49.8503 36.0621L50.0655 36.0434C51.9784 35.8779 54.8545 34.0391 58.7138 30.477C59.5603 29.6811 60.0553 29.2769 60.1946 29.2167C60.5533 29.1856 60.809 29.3562 60.9398 29.7544C60.9386 30.0195 60.8117 30.2232 60.5133 30.3936C60.0059 30.6543 58.8724 31.4751 57.1088 32.8081C55.4783 34.0092 54.2492 34.8382 53.4257 35.3431C52.5803 35.874 51.8837 36.1752 51.342 36.3184C50.9178 36.4274 50.4178 36.4948 49.8439 36.5444C49.0549 36.6127 48.4665 36.495 48.057 36.2173C47.6715 35.9375 47.2215 35.4705 46.7311 34.8144L46.381 34.387C46.2978 34.5387 46.2364 34.6645 46.149 34.7684C46.0637 34.8962 45.9826 35.0719 45.8557 35.2756C45.7547 35.5011 45.5924 35.8524 45.3926 36.3274C45.1949 36.8263 45.0586 37.1995 45.0137 37.5165C44.9429 37.8117 44.9344 38.2702 44.9862 38.8679C45.0131 39.1788 45.0296 39.37 45.0639 39.4875C45.0742 39.6071 45.1303 39.6986 45.2322 39.762C45.3101 39.8276 45.4338 39.865 45.6074 39.9223C46.0304 40.0784 46.2642 40.275 46.3348 40.5338C46.3659 40.8925 46.1932 41.1242 45.8428 41.2509L45.6515 41.2675ZM60.8671 34.3859C60.628 34.4066 60.3027 34.2662 59.9649 33.9822C59.6231 33.6505 59.4382 33.1847 59.3844 32.563C59.3058 31.6544 59.5547 30.3561 60.1293 28.6442C60.5185 27.5746 60.6799 26.9343 60.6613 26.7191C60.6719 26.2846 60.8144 25.9832 61.0848 25.7671C61.3572 25.5749 61.6598 25.4523 61.9706 25.4254C62.3095 25.4443 62.5787 25.4932 62.8063 25.6181C63.0558 25.7169 63.2294 25.7742 63.3988 25.7836C63.5423 25.7712 63.7294 25.7068 63.9623 25.6144C64.241 25.4939 64.5217 25.3974 64.7847 25.3746C65.6756 25.3698 66.1754 25.8565 66.2561 26.789C66.2787 27.6061 66.0485 28.5655 65.5896 29.6652C65.445 29.9427 65.342 30.1443 65.3087 30.3158L65.3347 30.3377C65.4542 30.3273 65.8524 30.1965 66.5293 29.9452C67.2082 29.7178 67.9786 29.4343 68.7709 29.1249C69.5871 28.8133 70.2619 28.5381 70.8192 28.2972C71.5616 27.9679 72.1011 27.8008 72.412 27.7739C72.6033 27.7573 72.7509 27.7927 72.807 27.8842C72.8631 27.9757 72.9274 28.1629 72.9523 28.4498C72.947 28.6671 72.8399 28.8209 72.6309 28.9113C72.4219 29.0016 71.9301 29.1646 71.1774 29.3743C70.4028 29.61 69.5804 29.8498 68.6624 30.0978C67.7444 30.3459 66.9677 30.5577 66.3304 30.7092C65.8823 30.8202 65.5278 30.8991 65.2949 30.9915C65.0839 31.058 64.8988 31.1463 64.7875 31.2522C64.6523 31.3603 64.5431 31.4902 64.4401 31.6918C63.946 32.385 63.3501 33.0147 62.6482 33.5332C61.9463 34.0516 61.3453 34.3446 60.8671 34.3859ZM60.4956 32.8764C60.5183 33.1394 60.6763 33.2943 60.9414 33.2955C61.3717 33.2582 61.8334 33.0256 62.3284 32.6214C62.7974 32.1953 63.2883 31.7433 63.775 31.2435L63.1335 31.3472C62.462 31.3812 61.7042 31.2541 60.8882 31.0115L60.8018 31.4045C60.7248 31.6279 60.6758 31.8972 60.6029 32.1685C60.556 32.4616 60.5029 32.683 60.4956 32.8764ZM61.1972 30.4067C61.2076 30.5262 61.3354 30.6115 61.5807 30.6625C61.9237 30.7292 62.7668 30.7285 64.11 30.6605L64.578 29.9454C64.8974 29.4601 65.1388 28.9092 65.3282 28.3147C65.5395 27.6942 65.6416 27.2035 65.6324 26.8189C65.6117 26.5798 65.5276 26.4425 65.38 26.4071C65.2323 26.3717 65.039 26.3644 64.776 26.3871C64.3934 26.4202 64.0191 26.549 63.6251 26.7276C63.2331 26.9302 62.9429 27.1962 62.7286 27.5038C62.5383 27.8094 62.3063 28.1908 62.0785 28.62C61.8267 29.0513 61.6186 29.4307 61.4563 29.782C61.294 30.1333 61.191 30.3349 61.1972 30.4067ZM74.6208 38.6158C74.4056 38.6344 74.2757 38.5252 74.255 38.2861C74.2406 38.1188 74.2937 37.8973 74.4383 37.6198C74.5829 37.3423 74.6818 37.0929 74.7546 36.8216C74.8275 36.5503 74.8588 36.3549 74.8464 36.2114C74.8153 35.8528 74.5597 35.6822 74.0513 35.6539C73.3414 35.5226 72.9839 35.2886 72.9528 34.9299C72.9363 34.7386 73.0372 34.5131 73.2795 34.2512C73.5198 33.9654 73.7964 33.821 74.1072 33.7941C74.5137 33.759 74.7673 33.9056 74.9158 34.2301C75.0705 34.6262 75.2312 35.6481 75.3699 37.2501C75.4009 37.6088 75.3998 37.8739 75.3883 38.0194C75.3768 38.165 75.2915 38.2928 75.1345 38.4268C74.9993 38.5349 74.8121 38.5993 74.6208 38.6158ZM93.5106 37.5592C93.2954 37.5778 93.1655 37.4686 93.1448 37.2295C93.0868 36.56 94.2267 35.2568 96.5884 33.318C97.96 32.1875 99.2525 31.2566 100.444 30.5512C100.88 30.2967 101.083 30.1346 101.072 30.0151C101.066 29.9434 101.012 29.8758 100.884 29.7905C100.54 29.4348 99.7482 29.1902 98.5081 29.0566C97.2679 28.923 95.3126 28.8755 92.5962 28.9419C90.5514 28.9743 89.0544 28.9353 88.0835 28.8507C85.4878 28.6417 84.1015 27.6536 83.9504 25.9081C83.8573 24.8321 84.0948 23.6793 84.6629 22.4498C85.231 21.2202 86.1931 19.812 87.5254 18.2272C90.2972 14.9039 93.8454 11.9228 98.2199 9.30389C100.828 7.70509 103.273 6.45758 105.554 5.53747C107.836 4.61735 109.765 4.08901 111.343 3.95243C112.611 3.84276 113.564 4.00116 114.201 4.40373C114.838 4.8063 115.203 5.40107 115.271 6.19012C115.42 7.91169 114.349 10.2929 112.035 13.3357C109.721 16.3786 106.103 19.9439 101.181 24.0314C100.143 24.844 99.3121 25.5422 98.686 26.1023C98.3699 26.3464 97.9977 26.4991 97.5434 26.5384C96.6826 26.6129 96.2034 26.3653 96.1039 25.7717C96.0853 25.5565 96.0926 25.3631 96.154 25.2374C96.2549 25.0118 96.8217 24.6014 97.85 23.9584C99.3578 23.0088 101.014 21.8296 102.843 20.4186C107.335 16.9224 110.589 13.6054 112.632 10.4897C113.8 8.67822 114.356 7.30519 114.271 6.32486C114.184 5.32061 113.304 4.89091 111.606 5.03784C109.717 5.20131 107.298 5.91658 104.346 7.15972C101.396 8.42677 98.4992 10.0265 95.6771 11.9329C92.5669 14.1293 89.9036 16.4797 87.6894 19.008C85.4751 21.5363 84.2902 23.7106 84.1824 25.5267C84.2134 25.8853 84.3681 26.2814 84.6424 26.6672C84.8949 27.079 85.2087 27.365 85.5382 27.5533C86.169 27.8841 87.0307 28.0986 88.1732 28.2166C89.3156 28.3345 91.0755 28.3508 93.477 28.2634C95.8347 28.228 97.3056 28.2453 97.8898 28.3152C98.6892 28.3664 99.4252 28.5195 100.072 28.7527C100.718 28.9858 101.1 29.2178 101.242 29.4704C101.33 29.6555 101.434 29.7429 101.554 29.7325C101.673 29.7222 102.024 29.5955 102.581 29.3545C103.415 28.9692 103.976 28.7761 104.215 28.7554C104.454 28.7347 104.65 28.766 104.78 28.8752C104.91 28.9844 104.994 29.1216 105.004 29.2412C105.019 29.4086 104.983 29.5562 104.922 29.6819C104.775 29.9355 104.059 30.2866 102.753 30.785C101.799 31.1807 101.314 31.4155 101.322 31.5111C101.328 31.5828 101.225 31.7845 100.987 32.0942C99.8483 33.6863 98.1906 35.1306 96.0361 36.4011C94.8227 37.1324 93.9649 37.5198 93.5106 37.5592ZM93.3653 36.9936L93.5067 36.9573C94.0026 36.8421 94.4725 36.705 94.9799 36.4443C96.7111 35.5718 98.0754 34.6347 99.1227 33.6527C99.8122 32.9908 100.474 32.2832 101.055 31.4861C98.6677 32.849 96.9291 33.9148 95.8175 34.7096C94.7277 35.4785 93.903 36.2484 93.3653 36.9936ZM109.192 43.4048C107.806 43.5248 107.048 42.8436 106.922 41.3851C106.771 39.6396 107.678 37.3207 109.6 34.4804C111.545 31.6141 114.018 29.0152 117.018 26.6597C117.561 26.2514 117.942 25.9293 118.163 25.6934C118.383 25.4575 118.482 25.2081 118.463 24.9929C118.445 24.7777 118.326 24.5229 118.134 24.2505C117.789 23.6058 117.163 23.3228 116.23 23.4035C114.915 23.5173 113.092 24.446 110.764 26.2133C109.084 27.3946 108.101 28.0096 107.862 28.0303C107.408 28.0696 107.139 27.7555 107.084 27.11C107.005 26.2014 107.248 24.8313 107.812 22.9999C108.017 22.3076 108.269 21.8763 108.567 21.7059C108.868 21.5595 109.172 21.4608 109.483 21.4339C109.842 21.4029 110.161 21.4716 110.438 21.6162C110.716 21.7609 110.878 21.9636 110.903 22.2506C110.921 22.4658 110.849 22.737 110.654 22.9948C110.462 23.2764 110.281 23.4125 110.113 23.427C109.946 23.4415 109.656 23.7075 109.269 24.2469C108.88 24.7623 108.519 25.3235 108.186 25.9305C107.875 26.5115 107.719 26.9345 107.737 27.1497C107.744 27.2215 107.794 27.2412 107.889 27.233C108.2 27.2061 108.956 26.7552 110.133 25.8825C112.829 23.9146 114.789 22.9019 116.057 22.7922C116.583 22.7467 117 22.831 117.331 23.0432C117.663 23.2555 117.925 23.4978 118.121 23.818C118.315 24.1144 118.483 24.3889 118.578 24.6457C118.698 24.9244 118.783 25.0616 118.882 25.1012C119.074 25.0846 119.535 24.8519 120.245 24.4291C120.98 24.0043 121.672 23.6552 122.395 23.3759C123.093 23.0986 123.659 22.9533 124.042 22.9202C124.428 22.9349 124.801 23.0713 125.133 23.2835C125.464 23.4957 125.652 23.7203 125.671 23.9355C125.688 24.1268 125.626 24.2525 125.517 24.3824C125.406 24.4884 125.266 24.5487 125.099 24.5631C124.956 24.5756 124.786 24.5661 124.587 24.487C124.285 24.3445 123.918 24.2799 123.488 24.3171C123.153 24.3461 122.59 24.5153 121.823 24.8466C121.057 25.1779 120.341 25.529 119.678 25.9477C119.358 26.144 119.129 26.2843 119.07 26.434C118.985 26.5618 118.951 26.7333 118.974 26.9963C119.065 28.0484 118.857 29.5359 118.323 31.437C117.812 33.3361 117.142 35.0563 116.338 36.6194C115.302 38.564 114.115 40.1603 112.802 41.4062C111.488 42.6521 110.292 43.3096 109.192 43.4048ZM107.247 41.5255C107.278 41.8842 107.323 42.1212 107.407 42.2585C107.489 42.3718 107.597 42.507 107.751 42.6142C108.087 42.8742 108.458 42.9866 108.912 42.9473C109.271 42.9163 109.669 42.7854 110.109 42.5787C111.794 41.7343 113.417 40.1725 114.953 37.8715C116.49 35.5945 117.577 33.1156 118.236 30.4328C118.641 28.7114 118.802 27.5171 118.74 26.7997C118.73 26.6802 118.702 26.6344 118.654 26.6386C118.535 26.6489 118.214 26.8453 117.669 27.2297C114.627 29.372 112.054 31.9314 109.998 34.9037C108.028 37.7481 107.111 39.9474 107.247 41.5255ZM129.824 40.9929C129.442 41.026 129.09 40.8637 128.772 40.5299C128.406 40.2002 128.185 39.593 128.109 38.7083C127.914 35.9066 128.376 32.6146 129.442 28.7884C130.462 25.2554 132.173 20.8192 134.602 15.4779L134.997 14.4801L134.973 14.4822C134.552 14.9041 133.484 16.201 131.797 18.4187C130.084 20.6146 129.179 21.8492 129.035 22.1267C128.916 22.4261 128.656 22.7618 128.278 23.1317C127.97 23.4715 127.553 23.9412 127.055 24.5866C126.168 25.7474 125.448 26.3396 124.898 26.3872C124.635 26.41 124.412 26.333 124.226 26.1323C124.042 25.9555 123.948 25.6987 123.919 25.3639C123.879 24.9096 124.168 24.0656 124.812 22.8777C125.848 20.9331 126.795 19.9116 127.632 19.8392C127.895 19.8164 128.142 19.8913 128.322 20.0203L128.596 20.1171C128.835 20.0964 129.581 19.2609 130.838 17.6345C132.17 16.0497 133.582 14.2654 135.072 12.2815C136.46 10.4992 137.274 9.60971 137.537 9.58695C137.776 9.56626 137.904 9.65155 137.968 9.8387C137.904 10.2056 137.261 11.6826 135.987 14.2259C131.658 22.9356 129.378 29.9984 129.127 35.4404C129.106 36.3094 129.106 37.1525 129.133 38.0174C129.224 39.0695 129.415 39.607 129.704 39.6061C129.8 39.5978 129.937 39.5137 130.118 39.3776C130.39 39.1854 130.597 39.0711 130.741 39.0587C130.908 39.0442 131.058 39.1035 131.212 39.2107C131.342 39.3199 131.426 39.4571 131.44 39.6245C131.467 39.9353 131.301 40.2388 130.939 40.511C130.579 40.8072 130.207 40.9598 129.824 40.9929ZM133.335 31.535C133.12 31.5536 132.948 31.5203 132.87 31.4548C132.766 31.3674 132.68 31.2062 132.637 30.9931C132.569 30.7581 132.522 30.4972 132.5 30.2342C132.45 29.6603 132.581 28.9504 132.869 28.1064C133.182 27.2603 133.805 25.8332 134.765 23.847C135.969 21.3339 136.727 19.5098 137.012 18.3529C137.112 17.8383 137.318 17.4351 137.58 17.1233C137.868 16.8334 138.166 16.663 138.501 16.6341C138.764 16.6113 139.012 16.6862 139.289 16.8308C139.567 16.9755 139.705 17.1803 139.726 17.4194C139.765 17.8737 139.357 18.7281 138.5 19.9585C137.312 21.8199 136.267 23.6688 135.34 25.4835C134.437 27.2961 134.002 28.3937 134.036 28.7763C134.042 28.848 134.07 28.8938 134.118 28.8897C134.189 28.8834 134.346 28.7494 134.589 28.4875C134.831 28.2257 135.093 27.9139 135.371 27.5044C136.02 26.6533 136.717 25.798 137.481 24.8887C138.224 24.0054 138.903 23.224 139.521 22.5683C140.115 21.9146 140.514 21.5187 140.721 21.4044C140.928 21.2902 141.067 21.2299 141.187 21.2196C141.354 21.2051 141.532 21.3102 141.746 21.5566C141.934 21.7813 142.108 22.1275 142.219 22.5756C142.427 23.3044 142.594 23.844 142.747 24.2162C143.074 24.9347 143.753 25.2614 144.829 25.1683C145.57 25.1041 146.482 24.7843 147.54 24.2109C148.599 23.6375 149.456 22.9611 150.139 22.2275C150.598 21.6819 150.912 21.4138 151.103 21.3973C151.151 21.3931 151.224 21.4108 151.276 21.4545C151.528 21.5773 151.662 21.7343 151.679 21.9256C151.714 22.3321 151.344 22.7976 150.551 23.3722C149.78 23.9207 148.882 24.4079 147.811 24.8379C146.766 25.2897 145.848 25.5377 145.059 25.606C144.198 25.6805 143.534 25.5212 143.091 25.126C142.647 24.7308 142.322 24.0362 142.091 23.0444C142.01 22.6659 141.916 22.4091 141.852 22.222C141.787 22.0348 141.729 21.9194 141.675 21.8518C141.599 21.8102 141.523 21.7686 141.449 21.7509C141.115 21.7799 140.487 22.316 139.561 23.3115C138.572 24.4089 137.663 25.5957 136.834 26.872C136.007 28.1721 135.512 29.1304 135.35 29.7707C135.301 30.0399 135.115 30.3933 134.815 30.8287C134.37 31.2527 133.885 31.4874 133.335 31.535ZM151.666 25.6124C150.494 25.7138 149.851 25.2395 149.762 24.2113C149.727 23.8049 149.783 23.3423 149.927 22.7758C150.07 22.2093 150.358 21.6304 150.808 20.9892C151.237 20.3739 151.719 19.8263 152.232 19.3483C152.747 18.8942 153.134 18.6438 153.421 18.619C153.637 18.6004 153.834 18.6555 154.012 18.7606C154.168 18.8917 154.256 19.0767 154.275 19.2919C154.316 19.7702 153.914 20.6962 153.044 22.0483C152.693 22.7291 152.198 23.1333 151.572 23.1393L150.923 23.1473C150.729 23.14 150.574 23.2979 150.477 23.5713C150.357 23.8467 150.306 24.092 150.324 24.3072C150.368 24.8093 150.845 25.033 151.732 24.9804C152.186 24.9411 152.682 24.8259 153.267 24.6307C154.229 24.3306 156.667 23.2765 160.632 21.488C162.97 20.3943 164.341 19.8179 164.724 19.7848C165.013 19.7839 165.171 19.9388 165.198 20.2497C165.219 20.4888 165.209 20.6582 165.146 20.7601C165.082 20.8619 164.899 20.9741 164.644 21.0925C164.298 21.267 162.455 21.9565 159.138 23.159C156.592 24.078 154.84 24.7114 153.88 25.0353C152.899 25.3852 152.168 25.569 151.666 25.6124ZM166.587 38.4376C165.2 38.5576 164.443 37.8764 164.317 36.4179C164.166 34.6724 165.073 32.3535 166.995 29.5132C168.939 26.6469 171.413 24.048 174.413 21.6925C174.955 21.2842 175.337 20.9621 175.558 20.7262C175.778 20.4903 175.877 20.2409 175.858 20.0257C175.84 19.8105 175.721 19.5557 175.529 19.2833C175.184 18.6386 174.557 18.3556 173.625 18.4363C172.31 18.5501 170.487 19.4788 168.159 21.2461C166.478 22.4274 165.496 23.0424 165.257 23.0631C164.802 23.1024 164.534 22.7883 164.478 22.1428C164.4 21.2342 164.643 19.8641 165.207 18.0327C165.412 17.3404 165.664 16.9091 165.962 16.7387C166.263 16.5923 166.567 16.4936 166.878 16.4667C167.237 16.4357 167.556 16.5044 167.833 16.649C168.111 16.7936 168.273 16.9964 168.298 17.2834C168.316 17.4986 168.243 17.7698 168.049 18.0276C167.856 18.3092 167.676 18.4453 167.508 18.4598C167.341 18.4743 167.051 18.7403 166.664 19.2797C166.275 19.7951 165.914 20.3563 165.581 20.9633C165.27 21.5443 165.114 21.9673 165.132 22.1825C165.139 22.2543 165.188 22.274 165.284 22.2658C165.595 22.2389 166.351 21.788 167.528 20.9152C170.224 18.9474 172.184 17.9347 173.452 17.825C173.978 17.7795 174.394 17.8638 174.726 18.076C175.057 18.2883 175.319 18.5306 175.516 18.8508C175.71 19.1472 175.878 19.4217 175.973 19.6785C176.093 19.9572 176.177 20.0944 176.277 20.134C176.468 20.1174 176.93 19.8847 177.64 19.4619C178.374 19.037 179.067 18.688 179.79 18.4087C180.488 18.1314 181.054 17.9861 181.436 17.953C181.823 17.9677 182.196 18.1041 182.528 18.3163C182.859 18.5285 183.047 18.7531 183.066 18.9683C183.083 19.1596 183.021 19.2853 182.912 19.4152C182.801 19.5212 182.661 19.5815 182.494 19.5959C182.35 19.6084 182.181 19.5989 181.981 19.5198C181.68 19.3773 181.313 19.3127 180.883 19.3499C180.548 19.3789 179.984 19.5481 179.218 19.8794C178.452 20.2107 177.735 20.5618 177.073 20.9805C176.753 21.1768 176.524 21.3171 176.465 21.4667C176.379 21.5946 176.346 21.7661 176.369 22.0291C176.46 23.0812 176.251 24.5687 175.717 26.4698C175.207 28.3689 174.537 30.0891 173.733 31.6522C172.697 33.5968 171.51 35.1931 170.196 36.439C168.883 37.6849 167.687 38.3424 166.587 38.4376ZM164.642 36.5583C164.673 36.917 164.718 37.154 164.802 37.2913C164.884 37.4046 164.992 37.5398 165.146 37.647C165.481 37.907 165.852 38.0194 166.307 37.9801C166.665 37.9491 167.064 37.8182 167.503 37.6115C169.189 36.7671 170.812 35.2053 172.348 32.9043C173.885 30.6273 174.971 28.1484 175.63 25.4656C176.036 23.7442 176.197 22.5499 176.135 21.8325C176.125 21.713 176.097 21.6672 176.049 21.6714C175.929 21.6817 175.609 21.8781 175.064 22.2625C172.022 24.4048 169.449 26.9642 167.393 29.9365C165.423 32.7809 164.505 34.9802 164.642 36.5583Z" fill="black"/>
</g>
<defs>
<clipPath id="clip0_1_3">
<rect width="200" height="50" fill="white"/>
</clipPath>
</defs>
</svg>
