<svg width="150" height="50" viewBox="0 0 150 50" fill="none" xmlns="http://www.w3.org/2000/svg">
<path d="M7.10963 42.4071C6.77377 42.4358 6.47133 42.2947 6.18034 42.0098C5.96771 41.7897 5.85713 41.6324 5.8207 41.4925C5.78428 41.3526 5.76762 41.1634 5.74273 40.8797C5.69908 40.383 5.71183 39.9768 5.71293 39.7147C5.76953 39.2571 6.05671 38.3987 6.59446 37.0899C7.13431 35.8049 7.40996 35.0904 7.39751 34.9486C7.32878 34.7161 7.14535 34.279 6.87131 33.6352C6.57319 32.9935 6.27727 32.3754 5.95727 31.7594C5.65915 31.1177 5.43197 30.7321 5.2953 30.553C5.13475 30.3762 5.04614 30.1931 5.00561 30.006C4.94741 29.3438 5.34196 28.8813 6.21094 28.5927L6.54479 28.5403C7.24268 28.5046 7.67968 28.801 7.80561 29.4096C7.83261 29.7172 7.77722 29.9125 7.66553 30.0173C7.56429 30.2404 7.57332 31.1688 7.69463 32.8264C7.7715 33.7014 7.85689 34.1231 7.9768 34.1128C8.04875 34.1066 8.30974 33.7747 8.71363 33.1446C10.6988 30.4257 11.8938 28.8941 12.3008 28.5735C12.5283 28.4112 12.8319 28.2899 13.1636 28.2139C13.5256 28.2069 13.85 28.3222 14.1326 28.5125C14.4173 28.7266 14.6341 28.9939 14.7331 29.2953C14.7933 29.9811 14.2726 30.3829 13.1689 30.4771C12.6651 30.5201 12.2634 30.6258 12.0141 30.8139C11.5811 31.113 10.957 31.7141 10.094 32.6217C8.90418 33.9384 8.28115 34.8255 8.27673 35.3262C8.42464 35.9093 8.80615 36.4009 9.39537 36.7796C9.98459 37.1582 10.6271 37.3178 11.3229 37.2585L11.5388 37.24C13.4583 37.0763 16.3443 35.2576 20.2169 31.7343C21.0663 30.9471 21.563 30.5473 21.7028 30.4878C22.0627 30.457 22.3193 30.6257 22.4506 31.0196C22.4494 31.2818 22.322 31.4833 22.0226 31.6518C21.5134 31.9097 20.376 32.7215 18.6064 34.04C16.9703 35.228 15.7369 36.0479 14.9106 36.5473C14.0623 37.0724 13.3633 37.3704 12.8197 37.512C12.3941 37.6198 11.8923 37.6865 11.3165 37.7355C10.5247 37.8031 9.93432 37.6867 9.52341 37.412C9.13658 37.1352 8.68503 36.6733 8.19294 36.0244L7.84164 35.6017C7.75815 35.7517 7.69654 35.8761 7.60884 35.9789C7.52324 36.1053 7.44187 36.2791 7.31453 36.4806C7.21318 36.7036 7.05032 37.0511 6.84983 37.5209C6.65145 38.0144 6.51468 38.3835 6.46963 38.697C6.39858 38.989 6.39005 39.4425 6.44203 40.0337C6.46903 40.3412 6.48558 40.5303 6.52 40.6465C6.53034 40.7648 6.58663 40.8553 6.68888 40.918C6.76705 40.9829 6.89117 41.0199 7.06537 41.0766C7.48983 41.231 7.72444 41.4254 7.79528 41.6814C7.82649 42.0362 7.65319 42.2654 7.30158 42.3907L7.10963 42.4071ZM22.3776 35.6006C22.1377 35.621 21.8113 35.4822 21.4723 35.2013C21.1293 34.8732 20.9438 34.4125 20.8898 33.7976C20.8109 32.8989 21.0607 31.6147 21.6373 29.9215C22.0278 28.8636 22.1898 28.2303 22.1711 28.0174C22.1817 27.5876 22.3247 27.2895 22.5961 27.0758C22.8694 26.8857 23.173 26.7644 23.4849 26.7378C23.825 26.7565 24.0951 26.8049 24.3235 26.9284C24.5738 27.0261 24.748 27.0828 24.918 27.0921C25.062 27.0798 25.2498 27.0161 25.4835 26.9247C25.7631 26.8056 26.0448 26.7101 26.3087 26.6876C27.2027 26.6828 27.7042 27.1642 27.7852 28.0865C27.8078 28.8947 27.5768 29.8437 27.1164 30.9314C26.9713 31.2058 26.8679 31.4052 26.8345 31.5749L26.8606 31.5965C26.9805 31.5862 27.3801 31.4569 28.0593 31.2083C28.7405 30.9834 29.5136 30.703 30.3086 30.397C31.1276 30.0888 31.8048 29.8166 32.364 29.5783C33.1089 29.2526 33.6503 29.0873 33.9623 29.0607C34.1542 29.0443 34.3023 29.0793 34.3586 29.1698C34.4149 29.2603 34.4794 29.4455 34.5044 29.7292C34.4991 29.9442 34.3916 30.0963 34.1819 30.1857C33.9722 30.275 33.4787 30.4362 32.7234 30.6436C31.9461 30.8768 31.1209 31.1139 30.1997 31.3592C29.2786 31.6046 28.4992 31.8141 27.8597 31.964C27.4101 32.0738 27.0544 32.1518 26.8207 32.2432C26.6089 32.309 26.4232 32.3963 26.3115 32.5011C26.1758 32.608 26.0663 32.7365 25.9629 32.9359C25.4671 33.6215 24.8692 34.2443 24.1648 34.7572C23.4605 35.2699 22.8575 35.5597 22.3776 35.6006ZM22.0048 34.1075C22.0276 34.3677 22.1862 34.5209 22.4522 34.5221C22.8839 34.4852 23.3472 34.2551 23.8439 33.8553C24.3146 33.4339 24.8071 32.9868 25.2955 32.4924L24.6518 32.595C23.978 32.6286 23.2176 32.5029 22.3988 32.263L22.3121 32.6517C22.2348 32.8727 22.1857 33.139 22.1125 33.4074C22.0654 33.6973 22.0122 33.9162 22.0048 34.1075ZM22.7088 31.6648C22.7193 31.783 22.8475 31.8673 23.0937 31.9178C23.4378 31.9838 24.2839 31.9831 25.6317 31.9158L26.1013 31.2085C26.4218 30.7285 26.664 30.1836 26.8541 29.5956C27.0661 28.9819 27.1685 28.4965 27.1593 28.1161C27.1385 27.8796 27.0542 27.7438 26.906 27.7088C26.7578 27.6738 26.5639 27.6666 26.3 27.689C25.9161 27.7218 25.5405 27.8492 25.1451 28.0258C24.7518 28.2262 24.4606 28.4893 24.2455 28.7935C24.0546 29.0958 23.8218 29.473 23.5932 29.8976C23.3405 30.3242 23.1317 30.6994 22.9688 31.0469C22.806 31.3944 22.7026 31.5938 22.7088 31.6648ZM36.1787 39.7843C35.9627 39.8027 35.8324 39.6947 35.8116 39.4582C35.7972 39.2928 35.8504 39.0737 35.9955 38.7992C36.1406 38.5247 36.2399 38.278 36.3129 38.0097C36.3861 37.7414 36.4175 37.5481 36.405 37.4062C36.3738 37.0515 36.1174 36.8827 35.6072 36.8547C34.8949 36.7249 34.5361 36.4934 34.5049 36.1386C34.4884 35.9494 34.5896 35.7264 34.8327 35.4673C35.0739 35.1847 35.3514 35.0418 35.6633 35.0152C36.0712 34.9805 36.3257 35.1255 36.4747 35.4465C36.6299 35.8382 36.7912 36.849 36.9303 38.4335C36.9615 38.7883 36.9603 39.0505 36.9488 39.1944C36.9373 39.3385 36.8517 39.4649 36.6941 39.5974C36.5585 39.7043 36.3706 39.768 36.1787 39.7843ZM55.1335 38.7393C54.9176 38.7577 54.7872 38.6496 54.7664 38.4132C54.7082 37.751 55.8521 36.462 58.2219 34.5443C59.5982 33.4262 60.8952 32.5054 62.0908 31.8077C62.5283 31.556 62.732 31.3956 62.7209 31.2774C62.7149 31.2065 62.6607 31.1397 62.5323 31.0553C62.1871 30.7035 61.3926 30.4615 60.1482 30.3294C58.9037 30.1973 56.9417 30.1503 54.2159 30.216C52.1641 30.248 50.662 30.2094 49.6877 30.1257C47.0831 29.919 45.692 28.9417 45.5404 27.2152C45.447 26.151 45.6853 25.0108 46.2553 23.7947C46.8254 22.5785 47.7908 21.1856 49.1277 19.6181C51.909 16.3311 55.4695 13.3825 59.859 10.7922C62.4761 9.21079 64.9295 7.97689 67.2184 7.06681C69.5082 6.15673 71.4439 5.63415 73.0273 5.49906C74.2997 5.39059 75.2559 5.54726 75.8951 5.94544C76.5343 6.34362 76.9006 6.9319 76.9688 7.71235C77.1183 9.41514 76.0436 11.7704 73.7217 14.78C71.3997 17.7897 67.7692 21.3161 62.8303 25.359C61.7887 26.1628 60.955 26.8533 60.3267 27.4073C60.0095 27.6488 59.636 27.7998 59.1802 27.8387C58.3164 27.9124 57.8356 27.6675 57.7357 27.0803C57.7171 26.8675 57.7244 26.6762 57.786 26.5519C57.8872 26.3287 58.456 25.9228 59.4878 25.2868C61.0008 24.3476 62.6627 23.1812 64.498 21.7856C69.0055 18.3276 72.2707 15.0467 74.3207 11.965C75.4928 10.1733 76.0507 8.81525 75.9654 7.84562C75.8781 6.85232 74.995 6.42731 73.2912 6.57263C71.3957 6.73432 68.9684 7.44179 66.0062 8.67137C63.046 9.9246 60.1393 11.5069 57.3075 13.3925C54.1865 15.5649 51.5141 17.8897 49.2923 20.3904C47.0703 22.8911 45.8814 25.0417 45.7732 26.838C45.8043 27.1927 45.9595 27.5845 46.2348 27.9661C46.4881 28.3734 46.803 28.6563 47.1336 28.8425C47.7666 29.1697 48.6313 29.3819 49.7777 29.4986C50.9241 29.6152 52.69 29.6313 55.0998 29.5449C57.4656 29.5098 58.9416 29.527 59.5278 29.5961C60.3299 29.6467 61.0685 29.7982 61.7175 30.0288C62.3657 30.2594 62.749 30.4888 62.8915 30.7387C62.9798 30.9218 63.0842 31.0082 63.2046 30.9979C63.324 30.9877 63.6762 30.8624 64.2351 30.6241C65.072 30.243 65.6349 30.052 65.8747 30.0315C66.1146 30.011 66.3112 30.042 66.4417 30.15C66.5721 30.258 66.6564 30.3937 66.6665 30.512C66.6815 30.6776 66.6454 30.8236 66.5842 30.9479C66.4367 31.1987 65.7182 31.546 64.4077 32.0389C63.4504 32.4303 62.9638 32.6626 62.9718 32.7571C62.9778 32.828 62.8745 33.0275 62.6356 33.3339C61.493 34.9086 59.8296 36.3371 57.6677 37.5938C56.4501 38.3171 55.5894 38.7003 55.1335 38.7393ZM54.9877 38.1798L55.1296 38.1439C55.6272 38.03 56.0987 37.8944 56.6079 37.6365C58.345 36.7735 59.714 35.8467 60.7649 34.8754C61.4568 34.2207 62.1209 33.5208 62.7039 32.7324C60.3084 34.0804 58.5638 35.1346 57.4483 35.9207C56.3548 36.6813 55.5272 37.4428 54.9877 38.1798ZM70.8689 44.5211C69.4781 44.6398 68.7175 43.966 68.5911 42.5234C68.4395 40.797 69.3497 38.5034 71.2783 35.694C73.23 32.859 75.7115 30.2885 78.7218 27.9586C79.2667 27.5548 79.649 27.2362 79.8708 27.0029C80.0915 26.7696 80.1909 26.5229 80.1718 26.31C80.1537 26.0972 80.0343 25.8452 79.8417 25.5757C79.4955 24.9381 78.8673 24.6581 77.9311 24.738C76.6116 24.8505 74.7823 25.7691 72.4463 27.5171C70.7605 28.6855 69.7741 29.2938 69.5343 29.3143C69.0787 29.3532 68.8088 29.0425 68.7536 28.404C68.6743 27.5053 68.9182 26.1502 69.4841 24.3388C69.6898 23.654 69.9427 23.2274 70.2417 23.0589C70.5438 22.9141 70.8488 22.8165 71.1609 22.7899C71.5211 22.7592 71.8412 22.8271 72.1192 22.9702C72.3981 23.1133 72.5607 23.3138 72.5858 23.5976C72.6038 23.8105 72.5316 24.0787 72.3359 24.3337C72.1432 24.6123 71.9616 24.7469 71.793 24.7612C71.6255 24.7756 71.3345 25.0386 70.9461 25.5722C70.5558 26.0819 70.1936 26.637 69.8594 27.2374C69.5473 27.8121 69.3908 28.2304 69.4089 28.4433C69.4159 28.5143 69.4661 28.5338 69.5614 28.5257C69.8735 28.4991 70.6321 28.0531 71.8131 27.1899C74.5184 25.2435 76.4851 24.2418 77.7575 24.1333C78.2853 24.0883 78.7038 24.1717 79.0359 24.3816C79.369 24.5916 79.632 24.8312 79.8286 25.1479C80.0233 25.4411 80.1919 25.7126 80.2872 25.9666C80.4076 26.2423 80.4929 26.378 80.5922 26.4171C80.7849 26.4007 81.2475 26.1706 81.9599 25.7524C82.6975 25.3322 83.3918 24.9869 84.1173 24.7107C84.8177 24.4364 85.3857 24.2927 85.77 24.2599C86.1573 24.2745 86.5316 24.4094 86.8648 24.6193C87.1969 24.8292 87.3855 25.0513 87.4046 25.2642C87.4217 25.4534 87.3595 25.5777 87.2501 25.7062C87.1387 25.811 86.9982 25.8707 86.8306 25.8849C86.6872 25.8973 86.5166 25.8879 86.3169 25.8096C86.0138 25.6687 85.6456 25.6048 85.2141 25.6416C84.8779 25.6703 84.313 25.8376 83.5434 26.1653C82.7747 26.493 82.0563 26.8403 81.391 27.2544C81.0699 27.4486 80.8401 27.5873 80.7809 27.7354C80.6956 27.8618 80.6615 28.0314 80.6846 28.2916C80.7759 29.3322 80.5672 30.8035 80.0313 32.6838C79.5186 34.5622 78.8463 36.2637 78.0395 37.8097C76.9999 39.7331 75.8088 41.312 74.4913 42.5443C73.1728 43.7766 71.9727 44.4269 70.8689 44.5211ZM68.9172 42.6623C68.9483 43.0171 68.9934 43.2515 69.0777 43.3873C69.16 43.4994 69.2684 43.6331 69.4229 43.7391C69.7601 43.9963 70.1324 44.1075 70.5879 44.0686C70.9482 44.0379 71.3475 43.9085 71.789 43.704C73.4798 42.8688 75.1084 41.324 76.6497 39.0481C78.192 36.796 79.2827 34.3441 79.944 31.6906C80.3504 29.988 80.512 28.8067 80.4497 28.0971C80.4397 27.9789 80.4116 27.9336 80.3634 27.9378C80.244 27.948 79.9219 28.1422 79.3751 28.5224C76.3226 30.6414 73.7407 33.1728 71.6777 36.1127C69.7009 38.9261 68.7807 41.1014 68.9172 42.6623ZM91.5719 42.1355C91.1886 42.1682 90.8354 42.0077 90.5163 41.6776C90.149 41.3514 89.9273 40.7509 89.851 39.8758C89.6553 37.1047 90.1189 33.8486 91.1886 30.0641C92.2121 26.5697 93.929 22.1819 96.3664 16.8988L96.7627 15.9119L96.7386 15.914C96.3162 16.3313 95.2445 17.614 93.5517 19.8075C91.8328 21.9795 90.9247 23.2006 90.7802 23.4751C90.6608 23.7712 90.3999 24.1033 90.0206 24.4691C89.7115 24.8052 89.2931 25.2698 88.7934 25.9082C87.9033 27.0563 87.1808 27.642 86.6289 27.6891C86.365 27.7117 86.1413 27.6355 85.9546 27.437C85.77 27.2621 85.6757 27.0081 85.6466 26.677C85.6064 26.2276 85.8964 25.3928 86.5427 24.2179C87.5822 22.2945 88.5325 21.2842 89.3724 21.2125C89.6363 21.19 89.8841 21.2641 90.0647 21.3917L90.3397 21.4874C90.5795 21.4669 91.3281 20.6406 92.5894 19.0319C93.926 17.4644 95.3429 15.6995 96.838 13.7373C98.2308 11.9744 99.0476 11.0946 99.3115 11.0721C99.5513 11.0517 99.6797 11.136 99.744 11.3211C99.6797 11.684 99.0345 13.1449 97.7561 15.6605C93.4122 24.2752 91.1244 31.2609 90.8725 36.6436C90.8514 37.5031 90.8514 38.337 90.8785 39.1925C90.9698 40.2331 91.1615 40.7647 91.4515 40.7638C91.5478 40.7556 91.6853 40.6724 91.8669 40.5378C92.1399 40.3477 92.3476 40.2347 92.4921 40.2224C92.6596 40.2081 92.8102 40.2667 92.9647 40.3727C93.0951 40.4808 93.1794 40.6165 93.1935 40.782C93.2206 41.0894 93.054 41.3896 92.6907 41.6589C92.3295 41.9518 91.9562 42.1028 91.5719 42.1355ZM95.095 32.7808C94.8793 32.7992 94.7067 32.7662 94.6284 32.7014C94.524 32.615 94.4377 32.4556 94.3946 32.2448C94.3264 32.0123 94.2792 31.7543 94.2571 31.4942C94.207 30.9265 94.3384 30.2244 94.6274 29.3896C94.9415 28.5527 95.5666 27.1412 96.5299 25.1766C97.7381 22.6909 98.4987 20.8867 98.7847 19.7425C98.885 19.2335 99.0917 18.8347 99.3546 18.5263C99.6436 18.2395 99.9426 18.071 100.279 18.0424C100.543 18.0199 100.792 18.0939 101.07 18.237C101.348 18.3801 101.487 18.5826 101.508 18.8191C101.547 19.2685 101.138 20.1136 100.278 21.3305C99.0857 23.1716 98.0371 25.0004 97.1069 26.7953C96.2008 28.5881 95.7643 29.6737 95.7984 30.0522C95.8044 30.1231 95.8325 30.1684 95.8807 30.1643C95.9519 30.1581 96.1095 30.0256 96.3533 29.7665C96.5962 29.5076 96.8591 29.1992 97.138 28.7941C97.7892 27.9523 98.4886 27.1063 99.2553 26.207C100.001 25.3333 100.682 24.5604 101.302 23.9119C101.898 23.2653 102.299 22.8737 102.506 22.7607C102.714 22.6477 102.854 22.5881 102.974 22.5779C103.142 22.5635 103.32 22.6675 103.535 22.9112C103.724 23.1335 103.898 23.4759 104.01 23.9191C104.218 24.6399 104.386 25.1737 104.539 25.5418C104.868 26.2525 105.549 26.5756 106.629 26.4835C107.372 26.42 108.287 26.1037 109.349 25.5366C110.412 24.9694 111.272 24.3004 111.957 23.5748C112.417 23.0351 112.733 22.77 112.924 22.7536C112.972 22.7495 113.046 22.767 113.098 22.8102C113.351 22.9317 113.485 23.087 113.502 23.2762C113.537 23.6783 113.166 24.1387 112.37 24.707C111.597 25.2495 110.696 25.7314 109.621 26.1567C108.572 26.6036 107.651 26.8489 106.859 26.9164C105.995 26.9901 105.329 26.8326 104.885 26.4417C104.439 26.0508 104.113 25.3638 103.881 24.3828C103.8 24.0084 103.706 23.7544 103.641 23.5694C103.576 23.3842 103.518 23.2701 103.464 23.2032C103.387 23.162 103.311 23.1209 103.237 23.1034C102.902 23.1321 102.272 23.6623 101.342 24.647C100.35 25.7324 99.4379 26.9063 98.606 28.1686C97.7762 29.4545 97.2795 30.4024 97.1169 31.0357C97.0678 31.302 96.8811 31.6515 96.5801 32.0822C96.1336 32.5015 95.6469 32.7337 95.095 32.7808ZM113.489 26.9228C112.313 27.0231 111.668 26.5539 111.579 25.537C111.543 25.135 111.6 24.6774 111.744 24.1171C111.888 23.5568 112.177 22.9842 112.628 22.35C113.059 21.7414 113.542 21.1998 114.057 20.727C114.574 20.2779 114.962 20.0302 115.25 20.0057C115.467 19.9873 115.665 20.0418 115.843 20.1457C116 20.2754 116.088 20.4584 116.107 20.6712C116.148 21.1443 115.745 22.0602 114.872 23.3975C114.52 24.0709 114.023 24.4707 113.395 24.4766L112.744 24.4846C112.549 24.4773 112.393 24.6335 112.296 24.9039C112.176 25.1763 112.124 25.419 112.142 25.6318C112.187 26.1284 112.665 26.3497 113.555 26.2977C114.011 26.2588 114.509 26.1448 115.096 25.9518C116.061 25.655 118.507 24.6124 122.486 22.8434C124.832 21.7616 126.208 21.1915 126.592 21.1587C126.882 21.1578 127.041 21.3111 127.068 21.6186C127.089 21.8551 127.079 22.0226 127.016 22.1234C126.951 22.2241 126.768 22.3351 126.512 22.4522C126.165 22.6248 124.315 23.3067 120.987 24.4961C118.432 25.4051 116.674 26.0316 115.711 26.352C114.726 26.698 113.993 26.8798 113.489 26.9228ZM128.461 39.6081C127.07 39.7268 126.31 39.053 126.184 37.6104C126.032 35.8839 126.942 33.5903 128.871 30.781C130.822 27.946 133.304 25.3754 136.314 23.0456C136.858 22.6418 137.242 22.3232 137.463 22.0899C137.684 21.8565 137.783 21.6099 137.764 21.397C137.746 21.1842 137.627 20.9321 137.434 20.6627C137.088 20.025 136.459 19.7451 135.524 19.8249C134.204 19.9375 132.375 20.8561 130.039 22.6041C128.352 23.7725 127.367 24.3808 127.127 24.4013C126.67 24.4402 126.401 24.1295 126.345 23.491C126.267 22.5923 126.511 21.2372 127.077 19.4257C127.282 18.741 127.535 18.3144 127.834 18.1459C128.136 18.0011 128.441 17.9034 128.753 17.8768C129.114 17.8462 129.434 17.9141 129.712 18.0571C129.991 18.2002 130.153 18.4008 130.178 18.6846C130.196 18.8975 130.123 19.1657 129.929 19.4207C129.735 19.6992 129.554 19.8338 129.386 19.8482C129.218 19.8625 128.927 20.1256 128.539 20.6591C128.148 21.1689 127.786 21.724 127.452 22.3244C127.14 22.899 126.983 23.3174 127.001 23.5303C127.008 23.6013 127.058 23.6208 127.154 23.6127C127.466 23.5861 128.225 23.1401 129.406 22.2768C132.111 20.3305 134.078 19.3288 135.35 19.2203C135.878 19.1753 136.295 19.2587 136.629 19.4686C136.961 19.6786 137.224 19.9182 137.421 20.2349C137.616 20.5281 137.784 20.7996 137.88 21.0536C138 21.3293 138.084 21.465 138.185 21.5041C138.376 21.4877 138.84 21.2575 139.553 20.8394C140.289 20.4191 140.984 20.0739 141.71 19.7976C142.41 19.5234 142.978 19.3797 143.362 19.3469C143.75 19.3615 144.124 19.4964 144.457 19.7063C144.79 19.9161 144.978 20.1383 144.997 20.3511C145.014 20.5404 144.952 20.6647 144.843 20.7932C144.731 20.898 144.591 20.9577 144.423 20.9719C144.279 20.9843 144.109 20.9749 143.908 20.8966C143.606 20.7557 143.238 20.6918 142.807 20.7286C142.471 20.7573 141.905 20.9246 141.136 21.2523C140.367 21.58 139.648 21.9273 138.984 22.3414C138.662 22.5356 138.433 22.6743 138.373 22.8223C138.287 22.9488 138.254 23.1184 138.277 23.3786C138.368 24.4192 138.159 25.8905 137.623 27.7708C137.111 29.6492 136.439 31.3506 135.632 32.8967C134.593 34.8201 133.401 36.399 132.083 37.6313C130.765 38.8636 129.565 39.5139 128.461 39.6081ZM126.51 37.7493C126.541 38.1041 126.586 38.3385 126.67 38.4743C126.753 38.5863 126.861 38.7201 127.016 38.8261C127.352 39.0833 127.724 39.1944 128.181 39.1556C128.54 39.1249 128.94 38.9954 129.381 38.791C131.072 37.9558 132.701 36.411 134.242 34.1351C135.785 31.883 136.874 29.4311 137.536 26.7776C137.943 25.0749 138.105 23.8937 138.042 23.1841C138.032 23.0659 138.004 23.0206 137.956 23.0248C137.836 23.0349 137.515 23.2292 136.968 23.6094C133.915 25.7283 131.333 28.2598 129.27 31.1997C127.293 34.0131 126.372 36.1884 126.51 37.7493Z" fill="black"/>
</svg>
